<?xml version="1.0" encoding="utf-8"?>
<!-- Generator: Adobe Illustrator 19.0.0, SVG Export Plug-In . SVG Version: 6.00 Build 0)  -->
<svg version="1.1" id="Layer_1" xmlns="http://www.w3.org/2000/svg" xmlns:xlink="http://www.w3.org/1999/xlink" x="0px" y="0px"
	 width="792px" height="612px" viewBox="0 0 792 612" style="enable-background:new 0 0 792 612;" xml:space="preserve">
<style type="text/css">
	.st0{fill:#010101;}
	.st1{fill:#FEFEFE;}
	.st2{fill:#FDFDFD;}
	.st3{fill:#FCFCFC;}
	.st4{fill:none;}
</style>
<g>
	<g>
		<path d="M729,81c-9.7,2.4-18.4,4.1-26.7,6.9c-20.2,6.9-37.6,18.3-52.8,33c-13,12.6-27.4,23.1-42.9,32.2
			c-15.1,8.9-31.4,11.6-48.6,10.1c-3.5-0.3-7.1,0-10.8,0.5c10.2,4.2,21.1,4.6,31.9,5.8c-15.7,5.1-31.9,6.1-48.1,7.8
			c7.6,3,15.5,3.1,23.5,3.9c-11.4,3.9-23.2,4-35.2,3.7c3.7,2.5,8,2.8,12,4c0,1.9-1.4,1.4-2.3,1.6c-17.6,3.8-35.4,4.9-53.4,4.1
			c-2.9-0.1-4.9,0.7-6.4,3.2c-3.1,5.3-6.4,10.5-9.8,16.1c2.4,1,4.7,0.5,6.8,0.5c6.3,0.2,12.7,0.3,19,0.6c4,0.2,6.3,2.3,6.1,6.7
			c-0.2,5.4,0,10.9-0.1,16.3c-0.1,6.9-1.3,8.4-8.2,9.4c-9.2,1.3-15.6,5.9-18.4,15.1c-1.2,4-0.3,6.6,3.5,8.9
			c22.7,13.4,44.9,27.6,68,40.3c10.5,5.7,14.3,12.3,13.8,24.3c-1,24.4,0,48.9,0,73.3c0,8.3-0.3,16.6-0.5,24.9
			c-0.2,5.1-1.4,6.3-6.7,6.3c-99.3,0-198.6,0-297.9,0c-4.8,0-6.9-1.9-6.9-6.7c-0.2-28.1-0.3-56.1,0.3-84.2
			c0.2-8.1,0.6-16.3,0.4-24.4c-0.1-4,1.6-6.1,4.7-7.9c17.9-10.6,35.7-21.3,53.5-32c8.3-5,16.5-10,24.8-14.8c1.9-1.1,2.4-2.3,2.3-4.3
			c-0.2-9.5-7.7-17.6-17.5-18.7c-8.3-0.9-9.2-2-9.2-10c0-4.5,0-9.1,0-13.6c0-7.9,1.4-9.3,9.1-9.3c46.3,0,92.7,0,139,0.1
			c3.1,0,4.7-0.9,6.2-3.6c36.3-65.1,93-102.8,163.9-121.2c3.1-0.8,6-1.9,8.7-3.4C551,99.5,491.3,134,451.2,198.8
			c0.3-1.3,0.5-2.6,0.8-3.9c0.3-1.3,0.7-2.6,1-3.9c1.1-4.6,1.2-9.1-0.2-13.8c-4.7-15.6-3.5-30.5,7.4-44.9c-0.6,4.9-1.1,8.6-1.6,12.3
			c7.6-8.8,12.2-19.7,22-27.1c0.2,3.9-2.2,6.9-2.2,11.4c10-9.9,17.5-21.1,29.8-29.2c-4.6,6.8-8.6,12.5-13.1,19.2
			c3.5-0.9,5-2.9,6.6-4.4c14.5-14.3,30.6-26.2,49.9-33.4c13.5-5.1,27.5-7.7,41.6-9.6c14.9-2,29.8-5.1,44.8-4.9
			c26.1,0.3,52.4-0.1,77.8,7.7c2.7,0.8,5.3,2.1,7.9,3.3C725.2,78.4,726.5,79.4,729,81z"/>
		<path class="st0" d="M302.4,512.7c-7.2,0-14.4-0.6-21.6,1.2c-3.1,0.8-5.8,1.7-6.6,5.2c-0.8,3.8,2,5,4.6,6.2
			c3.5,1.7,6.3,4.4,10.3,5.5c9.1,2.3,16.8-1.7,24.7-4.8c1.7-0.7,3.4-2.7,5.1-0.3c1.8,2.4-0.3,3.9-1.8,5.3
			c-8.8,8.3-25.8,8.6-36.1,2.2c-9-5.6-11.9-14.2-14.6-23.3c-0.8-2.7,0.4-5.1,1.5-7.3c3.3-7.3,7-13.6,16.6-14.9
			c6.3-0.8,12.3-3,19-1.7c10.4,2,17.3,8.9,18.5,19.3c0.4,3.8-2.7,7.4-6.5,7.4C311.2,512.7,306.8,512.7,302.4,512.7z"/>
		<path class="st0" d="M488.6,512.6c-7,0.5-15-0.7-22.9,0.7c-5.2,1-8.3,2.9-8.6,6.4c-0.2,2,0.6,3.3,2.2,4.5
			c11.7,9.4,23.9,8.7,36.6,2.1c0.7-0.3,1.3-0.8,2-1c1.4-0.5,2.9-1.1,4,0.6c1,1.6,0.4,3-0.8,4c-5.1,4.5-11.1,7-17.9,7.8
			c-9.6,1.2-17.6-2.4-24.8-8.2c-7.6-6.1-10.4-22.4-5.7-30.9c3.2-5.7,6.8-9.6,14-10.9c6.3-1.1,12.3-3.2,18.9-2
			c11.1,2,18.1,9,19.4,20.1c0.4,3-2.5,6.4-6,6.6C495.9,512.8,492.7,512.6,488.6,512.6z"/>
		<path class="st0" d="M435.9,500.1c-3.5-1-5.1-3.3-6.8-5.3c-8.2-9.6-16.2-7-23.1,1.9c-2.6,3.3-4.1,7.3-5.5,11.3
			c-0.2,0.7-0.4,1.5-0.4,2.2c0.5,5.6,9.9,15.3,15.6,16.2c7.3,1.2,14.7-3.1,18-10.1c1.3-2.8,0-6,1.5-8.8c0.5-1,0.8-2.7,2-2.6
			c1.5,0.1,2.1,1.9,1.8,3.1c-1.6,8.4-2.9,17-10.6,22.5c-2.7,1.9-5.8,2.6-9,1.9c-4-0.8-7.9-1.7-11.8-2.8c-3.6-1.1-4.7,0.6-5,3.6
			c-0.7,6.3,2.3,10.4,8.5,11.8c1.9,0.4,5.3-0.4,5.4,1.9c0.1,2.7-3.1,3.9-5.6,4.2c-7.5,0.8-15,1.3-22.5,1.8c-1.2,0.1-2.3-0.5-2.9-1.8
			c-0.5-1.4,0.1-2.4,1-3.2c1.6-1.3,3.2-2.8,5.1-3.7c3.2-1.5,4.5-3.9,4.2-7.2c-0.7-7.6,1.1-15.2-0.3-22.9c-1-5.5,0.6-11.4,0.2-17.1
			c-0.3-3.7-1.4-6.1-5.6-6c-0.6,0-1.2-0.2-1.8-0.4c-1.2-0.4-3.1,0-2.7-2.2c0.3-1.7,1.9-1.7,3.3-1.7c2.9-0.1,5.8,0.1,8.4,1.3
			c4.8,2.2,9.4,2,13.9-0.3c7.8-3.9,14.3-1.2,20.6,3.3C434.7,493.1,435.2,496.2,435.9,500.1z"/>
		<path class="st0" d="M376.5,499.8c-3.3-2.1-5.4-4.4-7.5-6.7c-4.6-5.1-11.2-5.5-16.5-1.3c-5.1,4.1-8,9.6-10.3,15.6
			c-1.5,4,1.3,6.6,2.9,9.5c5.1,9,13.9,12.3,22,7.9c4.7-2.5,8.5-6.2,8.7-12.2c0.1-1.6,0.4-3.3,0.9-4.9c0.4-1.1,0.4-3.2,2.2-2.8
			c1.5,0.3,1.8,2.3,1.6,3.4c-1.6,8.3-3.1,16.7-10.5,22.2c-2.5,1.9-5.5,2.6-8.5,2c-3.8-0.8-7.6-1.7-11.4-2.8
			c-4.2-1.1-6.1,0.2-6.3,4.6c-0.3,5.6,3.3,9.5,9.4,10.9c1.8,0.4,4.9-0.4,4.9,1.8c0,2.5-2.7,3.5-5.3,3.9c-7.6,1.3-15.3,1.3-22.9,2
			c-1.2,0.1-2.4-0.4-3-1.6c-0.7-1.4,0.3-2.3,1-3.2c1.7-2.2,4.2-3.3,6.5-4.8c1.7-1.1,3.1-2.2,3.1-4.6c-0.2-14.1-0.5-28.1-0.6-42.2
			c0-3.5-1.2-5.4-4.9-5.5c-0.9,0-1.8-0.3-2.7-0.5c-1.1-0.3-2.1-0.7-1.9-2.1c0.2-1.2,1.1-1.7,2.3-1.7c3.2-0.1,6.4,0.1,9.3,1.4
			c4.8,2.1,9.4,1.8,13.8-0.4c7.6-3.9,13.9-1.1,20.1,3.3C376,493,377.2,495.8,376.5,499.8z"/>
		<path class="st0" d="M250.7,500.5c-2.1-2.3-4.1-4.7-6.2-6.9c-5.9-6.2-12.3-6.3-18.4-0.3c-1.5,1.5-3,3-4.2,4.7
			c-6.5,9.4-5.8,15.9,2.1,24.1c4.6,4.8,10.1,5.7,16.1,3.6c6.3-2.2,10.1-6.8,11.2-13.5c0.2-1.5,0.1-3.1,0.6-4.5
			c0.4-1.1,0.5-3.1,2.2-2.8c1.4,0.2,1.7,2,1.9,3.3c0.8,6.2-6.2,20-11.6,23c-3.8,2.2-7.9,1.5-11.8,0.6c-2.5-0.5-4.9-1.4-7.4-2
			c-4.2-1-6.2,0.6-6,5c0.2,5.7,3,8.7,8.5,10.2c2,0.5,5.6-0.6,5.5,2.3c-0.1,2.7-3.4,3.6-6,3.8c-7.3,0.7-14.7,1.2-22,1.8
			c-1.3,0.1-2.3-0.5-2.9-1.7c-0.8-1.4,0.1-2.3,0.8-3.3c1.6-2.3,4.3-3.2,6.6-4.6c2.2-1.4,3.1-3,3.2-5.8c0.4-12.3-1-24.6-0.2-37
			c0.5-7.8,0-7.9-7.4-9.9c-1.3-0.4-2.8-0.7-2.6-2.5c0.2-1.6,1.7-1.5,2.9-1.5c3.2-0.2,6.4,0.1,9.3,1.5c4.5,2.2,8.8,1.8,12.9-0.4
			c7.7-4,14.3-1.2,20.7,3c3,2,3.7,5.3,3.6,8.7C251.5,499.8,251.1,500.1,250.7,500.5z"/>
		<path d="M529.7,485.3c7.8,0.1,8.5,0.6,10.7,8.3c0.3,0.9,0.6,1.7,1.7,1.8c1.6,0.2,2.5-0.6,3.2-2c1.9-4.3,5.5-6.5,9.9-7.8
			c6-1.8,11.7-0.7,17,1.7c5.2,2.3,6.3,10.6,2.3,13.1c-4.3,2.8-7.8,1.3-9.2-3.7c-1.8-6.5-3.2-7.5-9.4-5.2c-13.5,4.9-19.9,16-15,30.5
			c0.6,1.9,2,2.6,3.6,3.1c3.6,1.1,7.1,2.5,10.9,2.6c2.4,0,3.8,1.3,4.1,3.4c0.3,2.4-1.9,2.9-3.5,3.3c-6.3,1.8-12.6,0.6-18.8-0.1
			c-2-0.2-4-0.4-5.7,0.2c-4.5,1.6-8.6,0.2-12.6-1.4c-1.2-0.5-2.8-0.7-2.7-2.5c0.1-1.5,1.3-2.4,2.6-2.8c2.8-1,5.6-2,8.5-2.9
			c4-1.3,5.9-4,6.4-8.3c0.6-5.1,0.7-10.2,0.7-15.3c0-7.1-1.6-9-8.4-10.7c-2.2-0.5-6.2,0-6-2.5c0.2-3.2,4.4-2,6.8-2.8
			C527.6,485,528.7,485.3,529.7,485.3z"/>
		<path class="st0" d="M599.7,516.1c4.4,0,10,5.1,10.2,9.3c0.2,4-5.8,9.1-10.8,9.2c-6.1,0.1-11.2-4.2-11.1-9.4
			C588.1,520.2,593.4,516.2,599.7,516.1z"/>
		<path class="st1" d="M401.8,316.9c5.4-4.8,9.8-8.7,14.2-12.6c1.9-1.7,2.6-4,3.4-6.3c2.1-5.8,4.5-11.5,6.6-17.3
			c0.7-2,1.7-2.8,3.9-2.8c8,0.1,16,0.1,24,0c2,0,3.5,0.8,5,1.7c25,15,49.9,29.9,74.9,44.8c2.4,1.4,3.3,2.9,3.3,5.7
			c-0.1,31.5-0.1,63.1,0,94.6c0,3.3-0.7,4.3-4.2,4.3c-84.2-0.1-168.4-0.1-252.7-0.1c-8.4,0-16.9-0.4-25.3-0.4c-3,0-3.8-0.8-3.8-3.8
			c0.2-31.8,0.2-63.7,0.2-95.5c0-2,0.6-3.3,2.4-4.3c25.6-15.3,51.2-30.6,76.8-46c1.2-0.7,2.5-0.9,3.9-0.9c25.1,0,50.1,0,75.2,0.1
			c5.6,0,5.7,0.2,3.4,5.1C408.3,293.6,404.7,304.4,401.8,316.9z"/>
		<path class="st2" d="M331,247.8c33.3,0,66.1,0,99.3,0c-2.9,5.8-5.5,10.8-7.9,16c-0.8,1.7-2.1,1.8-3.7,1.8c-26.1,0-52.2,0-78.3,0
			c-2.2,0-3.3-0.5-3.6-2.9C336.2,257.5,334.3,252.6,331,247.8z"/>
		<path class="st3" d="M394.1,226.5c26.5,0,53.1,0,79.6-0.1c3.3,0,4.7,0.4,4.7,4.3c-0.1,3.8-1.2,4.6-4.9,4.6
			c-36.8-0.1-73.6,0-110.4-0.1c-16.6,0-33.1-0.5-49.7-0.4c-3.9,0-3.4-2.2-3.6-4.6c-0.3-3,0.8-3.8,3.8-3.8
			C340.4,226.6,367.2,226.5,394.1,226.5z"/>
		<path class="st2" d="M457.5,248c-3.2,4.7-5,9.6-5.8,14.8c-0.2,1.7-0.7,2.8-2.7,2.8c-5-0.1-9.9,0-15.7,0c3-6.1,5.7-11.6,8.4-17
			c0.4-0.7,0.9-1.2,1.7-1.2C447.9,247.4,452.6,247.1,457.5,248z"/>
		<path class="st2" d="M292.6,506.4c-3.5,0-6.9,0.1-10.4,0c-2.5-0.1-4.8-1.4-5.8-3.7c-1-2.3,1.2-3.8,2.6-5.3
			c7.7-7.9,23.2-8,31.1-0.2c1.5,1.5,2.9,3.1,2.1,5.5c-0.8,2.3-2.9,2.4-4.8,2.8C302.6,506.4,297.6,506.5,292.6,506.4z"/>
		<path class="st2" d="M473.7,506.7c-1.9-0.1-5.5-0.2-9.1-0.5c-2.4-0.2-4.4-1.3-5.3-3.6c-0.9-2.3,1-3.6,2.3-4.9
			c8-8.2,23.2-8.5,31.5-0.5c1.5,1.4,2.6,2.9,2,5.1c-0.6,2.4-2.6,2.7-4.5,3C485.6,506.3,480.5,506.4,473.7,506.7z"/>
		<path d="M394.2,418.4c-42.1,0-84.2-0.1-126.3,0.1c-3.7,0-4.7-0.9-4.7-4.7c0.2-21,0.1-42,0.1-62.9c0-2.4,0.3-4,2.9-5.2
			c26.4-12.8,54.4-17.7,83.5-15.7c15.9,1.1,30.1,8.1,44.1,15.3c12.6,6.5,24.9,13.6,38.8,17.1c14.6,3.7,29.4,2,44.1,0.5
			c14.9-1.5,29.3-5.3,43.5-10c3.6-1.2,5-1.1,5,3.3c-0.3,19.9-0.3,39.8-0.4,59.7c0,1.6,0.4,3.1-2.4,3.1c-42.7-0.1-85.4-0.1-128.1-0.1
			C394.2,418.7,394.2,418.6,394.2,418.4z"/>
	</g>
</g>
<rect id="_x3C_Slice_x3E_" x="-145" y="-42" class="st4" width="2" height="375"/>
<rect x="-51.8" y="251.3" class="st4" width="642.4" height="526"/>
</svg>
