<?xml version="1.0" encoding="utf-8"?>
<!-- Generator: Adobe Illustrator 19.0.0, SVG Export Plug-In . SVG Version: 6.00 Build 0)  -->
<svg version="1.1" id="Layer_1" xmlns="http://www.w3.org/2000/svg" xmlns:xlink="http://www.w3.org/1999/xlink" x="0px" y="0px"
	 width="750px" height="500px" viewBox="-45 48.3 750 500" style="enable-background:new -45 48.3 750 500;" xml:space="preserve">
<style type="text/css">
	.st0{fill:#EBEBEB;}
	.st1{fill:#FAFAFA;}
	.st2{fill:#F5F5F5;}
	.st3{fill:#E0E0E0;}
	.st4{display:none;}
	.st5{display:inline;}
	.st6{fill:#263238;}
	.st7{fill:#455A64;}
	.st8{fill:#E8505B;}
	.st9{fill:none;}
	.st10{opacity:0.2;}
	.st11{opacity:0.2;enable-background:new    ;}
	.st12{fill:#FFBE9D;}
	.st13{fill:#EB996E;}
	.st14{fill:#010101;}
	.st15{fill:#FEFEFE;}
	.st16{fill:#FDFDFD;}
	.st17{fill:#FCFCFC;}
</style>
<g id="Background_Complete">
	<g id="XMLID_1_">
		<g id="XMLID_2_">
			<rect id="XMLID_494_" x="74.2" y="172.2" class="st0" width="110.9" height="199.3"/>
		</g>
		<g id="XMLID_3_">
			<rect id="XMLID_493_" x="78.6" y="178" class="st1" width="100.9" height="187.6"/>
		</g>
		<g id="XMLID_4_">
			<polygon id="XMLID_5_" class="st2" points="179.5,180.2 78.6,308.6 78.6,178 179.5,178 			"/>
		</g>
		<g id="XMLID_6_">
			<rect id="XMLID_492_" x="78.6" y="231.9" class="st0" width="103.1" height="2"/>
		</g>
		<g id="XMLID_7_">
			<rect id="XMLID_491_" x="78.6" y="276.6" class="st0" width="103.1" height="2"/>
		</g>
		<g id="XMLID_8_">
			<rect id="XMLID_490_" x="78.6" y="321.3" class="st0" width="103.1" height="2"/>
		</g>
		<g id="XMLID_9_">
			<rect id="XMLID_489_" x="126.5" y="232.9" class="st0" width="5.1" height="137.9"/>
		</g>
		<g id="XMLID_10_">
			<rect id="XMLID_416_" x="98" y="178" class="st0" width="2.3" height="55"/>
		</g>
		<g id="XMLID_11_">
			<rect id="XMLID_488_" x="118" y="178" class="st0" width="2.3" height="55"/>
		</g>
		<g id="XMLID_12_">
			<rect id="XMLID_487_" x="137.9" y="178" class="st0" width="2.3" height="55"/>
		</g>
		<g id="XMLID_13_">
			<rect id="XMLID_486_" x="157.8" y="178" class="st0" width="2.3" height="55"/>
		</g>
		<g id="XMLID_14_">
			<rect id="XMLID_485_" x="69.5" y="168.8" class="st2" width="4.7" height="203.9"/>
		</g>
		<g id="XMLID_15_">
			<polygon id="XMLID_16_" class="st3" points="189.8,373.3 185.1,371.5 185.1,168.8 189.8,168.8 			"/>
		</g>
		<g id="XMLID_17_">
			<rect id="XMLID_484_" x="69.5" y="166.8" class="st3" width="120.3" height="5.4"/>
		</g>
		<g id="XMLID_18_">
			<rect id="XMLID_483_" x="66.2" y="374" class="st3" width="126.8" height="5.1"/>
		</g>
		<g id="XMLID_19_">
			<polygon id="XMLID_20_" class="st0" points="185.1,371.5 193,374 66.2,374 74.2,371.5 			"/>
		</g>
	</g>
	<g id="XMLID_21_">
		<g id="XMLID_22_">
			<g id="XMLID_23_">
				<path id="XMLID_482_" class="st0" d="M662.4,296.4c0,0-7.8-0.6-7.1,17s2.5,27,2.5,27s-0.2,3.9-3.3,3.1c-3-0.8-8.7-4.6-11.5-1.7
					c-2.9,2.9-1.9,7.5,2,12.8s11.9,17.3,12.6,18.4c0.7,1.1,1,3.1-1.1,2.9s-16.6-5.1-18.5,1.9s11.3,20,12.7,21.5s1.5,2.4,0.9,3.3
					s-5.3-1.2-9.4-2.5c-4.2-1.2-9.2-1.9-10,2.2s5,16.2,26.8,28.9l10.5,5.2l9.9-6.3c20.4-14.8,24.9-27.4,23.8-31.5
					c-1.2-4-6.1-2.8-10.2-1.2c-4,1.6-8.5,4.2-9.2,3.4c-0.7-0.8-0.7-1.7,0.6-3.3c1.3-1.6,13.1-15.9,10.5-22.7
					c-2.6-6.8-16.5-0.5-18.6,0c-2.1,0.4-2-1.6-1.4-2.7c0.6-1.2,7.4-13.9,10.7-19.5c3.3-5.7,3.9-10.3,0.7-12.9
					c-3.1-2.5-8.4,1.8-11.3,2.9c-2.9,1.1-3.5-2.8-3.5-2.8s0.8-9.5-0.2-27.1S662.3,296.5,662.4,296.4"/>
			</g>
			<g id="XMLID_24_">
				<g id="XMLID_25_">
					<path id="XMLID_481_" class="st3" d="M663,312.2c0,0,0,0.1,0,0.4s0,0.6,0.1,1.1c0.1,1,0.2,2.4,0.3,4.2
						c0.2,3.6,0.5,8.8,0.9,15.3c0.7,12.9,1.6,30.8,2.4,50.5c0.9,19.7,1.7,37.6,2.3,50.5c0.3,6.4,0.6,11.7,0.8,15.3
						c0.1,1.8,0.2,3.2,0.2,4.2c0,0.5,0,0.8,0,1.1c0,0.2,0,0.4,0,0.4s0-0.1,0-0.4s0-0.6-0.1-1.1c-0.1-1-0.2-2.4-0.3-4.2
						c-0.2-3.6-0.5-8.8-0.9-15.3c-0.7-12.9-1.6-30.8-2.4-50.5c-0.9-19.7-1.7-37.6-2.3-50.5c-0.3-6.4-0.6-11.7-0.8-15.3
						c-0.1-1.8-0.2-3.2-0.2-4.2c0-0.5,0-0.8,0-1.1C663,312.3,663,312.2,663,312.2z"/>
				</g>
			</g>
			<g id="XMLID_26_">
				<g id="XMLID_27_">
					<path id="XMLID_480_" class="st3" d="M650.7,347.5c0,0,0.3,0.2,0.7,0.5c0.4,0.4,1,0.9,1.7,1.6c1.4,1.4,3.2,3.3,5.2,5.5
						s3.7,4.1,5.1,5.6c0.6,0.7,1.1,1.2,1.6,1.7c0.4,0.4,0.6,0.6,0.5,0.6c0,0-0.3-0.2-0.7-0.5c-0.4-0.4-1-0.9-1.7-1.6
						c-1.4-1.4-3.2-3.3-5.2-5.5c-2-2.1-3.8-4.1-5.2-5.6c-0.6-0.7-1.1-1.2-1.6-1.7C650.9,347.7,650.7,347.5,650.7,347.5z"/>
				</g>
			</g>
			<g id="XMLID_28_">
				<g id="XMLID_29_">
					
						<ellipse id="XMLID_479_" transform="matrix(0.7119 0.7022 -0.7022 0.7119 442.9553 -372.3053)" class="st3" cx="675.3" cy="353.8" rx="0.2" ry="12.4"/>
				</g>
			</g>
			<g id="XMLID_30_">
				<g id="XMLID_31_">
					<path id="XMLID_478_" class="st3" d="M666.5,393c0,0,0.2-0.2,0.7-0.5c0.6-0.3,1.2-0.7,2-1.1c1.7-1,4.1-2.3,6.7-3.9
						c2.6-1.6,4.9-3.1,6.5-4.2c0.8-0.5,1.4-0.9,2-1.3c0.5-0.3,0.7-0.5,0.7-0.4c0,0-0.2,0.2-0.7,0.6c-0.4,0.3-1.1,0.8-1.9,1.4
						c-1.6,1.2-3.9,2.7-6.5,4.3c-2.6,1.6-5,2.9-6.8,3.8c-0.9,0.5-1.6,0.8-2.1,1C666.8,392.9,666.5,393,666.5,393z"/>
				</g>
			</g>
			<g id="XMLID_32_">
				<g id="XMLID_33_">
					<path id="XMLID_477_" class="st3" d="M649.2,382.4c0,0,0.3,0.1,0.7,0.3c0.5,0.2,1.1,0.6,1.9,1.1c1.6,0.9,3.8,2.2,6.2,3.6
						s4.6,2.7,6.1,3.7c0.8,0.5,1.4,0.9,1.8,1.2c0.4,0.3,0.7,0.4,0.6,0.5c0,0-0.3-0.1-0.7-0.3c-0.5-0.2-1.1-0.6-1.9-1.1
						c-1.6-0.9-3.8-2.2-6.2-3.6s-4.6-2.7-6.1-3.7c-0.8-0.5-1.4-0.9-1.8-1.2S649.2,382.4,649.2,382.4z"/>
				</g>
			</g>
			<g id="XMLID_34_">
				<g id="XMLID_35_">
					<path id="XMLID_476_" class="st3" d="M645.7,409.2c0,0,0.3,0.1,0.9,0.4c0.6,0.4,1.5,0.8,2.4,1.3c2,1.1,4.9,2.8,8,4.6
						c3.1,1.8,5.9,3.5,7.9,4.7c0.9,0.6,1.7,1.1,2.4,1.5c0.6,0.4,0.9,0.6,0.8,0.6c0,0-0.3-0.1-0.9-0.4c-0.6-0.4-1.5-0.8-2.4-1.3
						c-2-1.1-4.9-2.8-8-4.6c-3.1-1.8-5.9-3.5-7.9-4.7c-0.9-0.6-1.7-1.1-2.4-1.5C646,409.4,645.7,409.2,645.7,409.2z"/>
				</g>
			</g>
			<g id="XMLID_36_">
				<g id="XMLID_37_">
					<path id="XMLID_475_" class="st3" d="M667.7,421.8c0,0,0.3-0.2,0.9-0.6c0.7-0.4,1.5-0.9,2.5-1.5c2.1-1.3,5.1-3.1,8.3-5.2
						s6.1-4.1,8.1-5.5c1-0.7,1.8-1.3,2.4-1.7c0.6-0.4,0.9-0.6,0.9-0.6s-0.3,0.3-0.8,0.7c-0.6,0.4-1.4,1.1-2.4,1.8
						c-2,1.5-4.9,3.5-8.1,5.6c-3.2,2.1-6.2,3.9-8.4,5.1c-1.1,0.6-2,1.1-2.6,1.4C668.1,421.6,667.7,421.8,667.7,421.8z"/>
				</g>
			</g>
		</g>
		<g id="XMLID_38_">
			<g id="XMLID_39_">
				<g id="XMLID_40_">
					<polygon id="XMLID_474_" class="st3" points="683.4,439.8 654.5,439.8 663.9,511.4 674,511.4 					"/>
				</g>
			</g>
			<g id="XMLID_41_">
				<g id="XMLID_42_">
					<g id="XMLID_43_">
						<path id="XMLID_473_" class="st2" d="M656,448.6c0,0,0,0.1,0.2,0.3c0.1,0.2,0.4,0.3,0.7,0.5c0.7,0.3,1.9,0.3,3.1-0.4
							c1.2-0.6,2.2-1.9,3.8-2.5s3.5-0.5,5.3,0.1c1.9,0.6,3.5,1.5,5,2.4s2.8,1.7,4,2.2s2.2,0.8,3,0.9c0.4,0,0.6,0.1,0.8,0.1
							s0.3,0,0.3,0c0-0.1-1.6-0.1-4-1.2c-1.2-0.5-2.5-1.3-3.9-2.2c-1.5-0.9-3.1-1.9-5-2.5s-4-0.7-5.6-0.1c-0.8,0.3-1.5,0.8-2.1,1.3
							s-1.1,0.9-1.7,1.3c-1.1,0.7-2.2,0.7-2.8,0.5C656.2,449,656,448.6,656,448.6z"/>
					</g>
				</g>
			</g>
			<g id="XMLID_44_">
				<g id="XMLID_45_">
					<g id="XMLID_46_">
						<path id="XMLID_472_" class="st2" d="M657,461.8c0,0,0.2-0.3,0.7-0.8s1.2-1.1,2.3-1.5s2.5-0.7,4-0.6c1.6,0.1,3.2,0.4,5,0.7
							c1.8,0.3,3.6,0.4,5.2,0.2c1.6-0.2,3-0.7,4.1-1.2s1.9-1,2.4-1.5c0.5-0.4,0.8-0.7,0.8-0.7c-0.1-0.1-1.2,0.9-3.3,1.8
							c-1.1,0.4-2.4,0.9-4,1c-1.5,0.2-3.2,0.1-5-0.2c-1.8-0.3-3.5-0.6-5.1-0.7c-1.6,0-3,0.3-4.2,0.7c-1.1,0.5-1.9,1.1-2.3,1.7
							c-0.2,0.3-0.4,0.5-0.4,0.6C657.1,461.7,657,461.8,657,461.8z"/>
					</g>
				</g>
			</g>
			<g id="XMLID_47_">
				<g id="XMLID_48_">
					<g id="XMLID_49_">
						<path id="XMLID_471_" class="st2" d="M680.2,468.8c0,0-0.3-0.2-0.8-0.4c-0.5-0.2-1.4-0.4-2.4-0.5s-2.3,0-3.6,0.2
							c-1.4,0.2-2.8,0.6-4.3,0.9s-3,0.5-4.3,0.5s-2.5-0.3-3.4-0.7c-1.9-0.8-2.5-2-2.6-1.9c0,0,0.1,0.3,0.5,0.8c0.4,0.4,1,1,2,1.5
							c0.9,0.5,2.2,0.8,3.5,0.9c1.4,0.1,2.9-0.1,4.4-0.5c1.5-0.3,3-0.7,4.3-0.9c1.3-0.2,2.5-0.3,3.5-0.3
							C679,468.3,680.1,468.9,680.2,468.8z"/>
					</g>
				</g>
			</g>
			<g id="XMLID_50_">
				<g id="XMLID_51_">
					<g id="XMLID_52_">
						<path id="XMLID_470_" class="st2" d="M659.6,478.8c0,0.1,1-0.6,2.8-0.3c0.9,0.2,1.8,0.6,2.9,1.1c1.1,0.5,2.4,0.9,3.8,1.1
							c2.8,0.3,5.4-0.6,6.9-1.6c0.8-0.5,1.3-1,1.7-1.3c0.4-0.4,0.5-0.6,0.5-0.6c-0.1-0.1-0.8,0.8-2.4,1.7c-1.6,0.9-4,1.7-6.7,1.4
							c-2.7-0.2-4.8-1.8-6.7-2c-0.9-0.1-1.7,0-2.2,0.2C659.8,478.5,659.6,478.7,659.6,478.8z"/>
					</g>
				</g>
			</g>
			<g id="XMLID_53_">
				<g id="XMLID_54_">
					<g id="XMLID_55_">
						<path id="XMLID_469_" class="st2" d="M661.2,492.5c0,0.1,1,0,2.4-0.5c1.5-0.5,3.3-1.6,5.4-2.4c1.1-0.4,2.1-0.6,3.1-0.6
							s1.8,0.2,2.5,0.6c1.3,0.7,1.7,1.6,1.8,1.5c0,0,0-0.2-0.3-0.6c-0.2-0.4-0.7-0.8-1.4-1.2c-0.7-0.4-1.6-0.7-2.6-0.7
							s-2.2,0.2-3.3,0.6c-2.2,0.9-3.9,2-5.3,2.6C662.1,492.3,661.2,492.4,661.2,492.5z"/>
					</g>
				</g>
			</g>
			<g id="XMLID_56_">
				<g id="XMLID_57_">
					<g id="XMLID_58_">
						<path id="XMLID_468_" class="st2" d="M662.6,498.9c0,0.1,0.7,0.3,1.8,0.6c1.2,0.3,2.8,0.6,4.6,0.8c1.8,0.2,3.5,0.2,4.6,0.1
							c1.2-0.1,1.9-0.2,1.9-0.2c0-0.1-2.9,0-6.5-0.4C665.5,499.4,662.7,498.7,662.6,498.9z"/>
					</g>
				</g>
			</g>
		</g>
	</g>
	<g id="XMLID_59_">
		<g id="XMLID_60_">
			<rect id="XMLID_467_" x="577.6" y="180.4" class="st3" width="89.4" height="58.8"/>
		</g>
		<g id="XMLID_61_">
			<rect id="XMLID_415_" x="580.7" y="182.8" class="st1" width="83.1" height="53.7"/>
		</g>
		<g id="XMLID_62_">
			<rect id="XMLID_466_" x="608.7" y="202.4" class="st3" width="27.1" height="14.8"/>
		</g>
	</g>
</g>
<g id="Background_Simple" class="st4">
	<g id="XMLID_63_" class="st5">
		<path id="XMLID_64_" class="st2" d="M631.5,265.8c-3.4-28.3-24.2-53.9-51.2-63c-30.8-10.4-64.4-0.2-95.1,10.5
			c-30.7,10.7-63.5,22.2-95,14.3c-43.2-10.8-69.3-53.5-104.1-81.3c-37.2-29.8-87.4-42.7-134.3-34.7c-26.7,4.5-53.3,16.3-70.2,37.5
			c-14.7,18.4-31.1,47.6-31.8,71.1c-1.3,42.8,10.1,83,51.6,130.8C226,480.6,371.8,460.7,503.2,435c32.6-6.4,66.6-30.9,94-59.5
			C629.5,342.1,635.5,298.8,631.5,265.8z"/>
	</g>
</g>
<g id="Floor">
	<g id="XMLID_881_">
		<g id="XMLID_882_">
			<path id="XMLID_883_" class="st6" d="M692.1,512.3c0,0.1-143,0.2-319.4,0.2s-319.4-0.1-319.4-0.2c0-0.1,143-0.2,319.4-0.2
				S692.1,512.2,692.1,512.3z"/>
		</g>
	</g>
</g>
<g id="Device">
	<g id="XMLID_68_">
		<g id="XMLID_69_">
			<path id="XMLID_465_" class="st0" d="M470.4,335.1H294V137.7h191.5V320C485.4,328.3,478.7,335.1,470.4,335.1z"/>
		</g>
		<g id="XMLID_70_">
			<g id="XMLID_71_">
				<g id="XMLID_72_">
					<path id="XMLID_73_" class="st7" d="M469.6,196.4c0,0.4-34.6,0.7-77.3,0.7s-77.3-0.3-77.3-0.7s34.6-0.7,77.3-0.7
						C435,195.7,469.6,196,469.6,196.4z"/>
				</g>
			</g>
			<g id="XMLID_74_">
				<g id="XMLID_75_">
					<path id="XMLID_76_" class="st7" d="M393.2,209.8c0,0.4-17.1,0.7-38.2,0.7s-38.2-0.3-38.2-0.7s17.1-0.7,38.2-0.7
						C376.2,209.1,393.2,209.4,393.2,209.8z"/>
				</g>
			</g>
			<g id="XMLID_77_">
				<g id="XMLID_78_">
					<ellipse id="XMLID_79_" class="st7" cx="413.7" cy="208.5" rx="10.1" ry="0.7"/>
				</g>
			</g>
			<g id="XMLID_80_">
				<g id="XMLID_81_">
					<ellipse id="XMLID_82_" class="st7" cx="453.7" cy="207.7" rx="20" ry="0.7"/>
				</g>
			</g>
			<g id="XMLID_83_">
				<g id="XMLID_84_">
					<path id="XMLID_85_" class="st7" d="M386.9,222.6c0,0.4-16.1,0.7-35.9,0.7s-35.9-0.3-35.9-0.7s16.1-0.7,35.9-0.7
						S386.9,222.2,386.9,222.6z"/>
				</g>
			</g>
			<g id="XMLID_86_">
				<g id="XMLID_87_">
					<path id="XMLID_88_" class="st7" d="M473.7,222.2c0,0.4-17.6,0.7-39.2,0.7c-21.7,0-39.2-0.3-39.2-0.7s17.6-0.7,39.2-0.7
						C456.2,221.5,473.7,221.8,473.7,222.2z"/>
				</g>
			</g>
			<g id="XMLID_89_">
				<g id="XMLID_90_">
					<ellipse id="XMLID_91_" class="st7" cx="456.3" cy="235.1" rx="17.5" ry="0.7"/>
				</g>
			</g>
		</g>
		<g id="XMLID_92_">
			<g id="XMLID_93_">
				<path id="XMLID_94_" class="st8" d="M401.5,182.1c0,0.4-18.9,0.7-42.3,0.7s-42.3-0.3-42.3-0.7s18.9-0.7,42.3-0.7
					S401.5,181.7,401.5,182.1z"/>
			</g>
		</g>
	</g>
	<g id="XMLID_95_">
		<g id="XMLID_96_">
			<g id="XMLID_97_">
				<g id="XMLID_98_">
					<g id="XMLID_99_">
						<g id="XMLID_100_">
							<g id="XMLID_101_">
								<path id="XMLID_464_" class="st6" d="M519.2,511.2H148.5c-7.5,0-13.5-6.1-13.5-13.5v-236c0-7.5,6.1-13.5,13.5-13.5h370.7
									c7.5,0,13.5,6.1,13.5,13.5v236C532.7,505.2,526.7,511.2,519.2,511.2z"/>
							</g>
						</g>
					</g>
					<g id="XMLID_102_">
						<g id="XMLID_103_">
							<g id="XMLID_104_">
								<path id="XMLID_463_" class="st6" d="M533.3,514.8H135.4c-9.1,0-16.5-7.4-16.5-16.5v-6.5h430.9v6.5
									C549.8,507.4,542.4,514.8,533.3,514.8z"/>
							</g>
						</g>
					</g>
					<g id="XMLID_105_">
						<g id="XMLID_106_">
							<g id="XMLID_107_">
								<rect id="XMLID_462_" x="146.2" y="258.7" class="st7" width="375.2" height="222.1"/>
							</g>
						</g>
					</g>
					<g id="XMLID_108_">
						<g id="XMLID_109_">
							<g id="XMLID_110_">
								<g id="XMLID_111_">
									<path id="XMLID_112_" class="st7" d="M295.2,491.8c0,0,0.1,0,0.4,0s0.7,0,1.3,0c1.1,0,2.8,0,4.9,0c4.3,0,10.5,0,18.2-0.1
										c15.5,0,36.9-0.1,60.8-0.1h0.4L381,492c-0.8,1.3-1.6,2.7-2.4,4.1c-0.9,1.5-1.7,3-2.6,4.4l-0.1,0.1h-0.1
										c-33.1-0.1-61.3-0.1-75.2-0.1h-0.1v-0.1c-1.7-2.8-3-4.9-3.9-6.4c-0.4-0.7-0.8-1.2-1-1.6C295.3,492,295.2,491.8,295.2,491.8
										s0.1,0.2,0.4,0.6c0.2,0.4,0.6,0.9,1.1,1.6c0.9,1.4,2.3,3.5,4,6.3l-0.1-0.1c13.9,0,42.2-0.1,75.2-0.1l-0.2,0.1
										c0.8-1.4,1.7-2.9,2.6-4.4c0.8-1.4,1.6-2.8,2.4-4.1l0.2,0.4c-23.8-0.1-45.1-0.1-60.5-0.1c-7.7,0-13.9-0.1-18.3-0.1
										c-2.1,0-3.8,0-5,0c-0.6,0-1,0-1.3,0C295.4,491.8,295.2,491.8,295.2,491.8z"/>
								</g>
							</g>
						</g>
					</g>
				</g>
			</g>
		</g>
		<g id="XMLID_113_">
			<g id="XMLID_114_">
				<line id="XMLID_115_" class="st9" x1="135" y1="491.8" x2="532.7" y2="491.8"/>
			</g>
			<g id="XMLID_116_">
				<g id="XMLID_117_">
					<path id="XMLID_118_" class="st7" d="M532.7,491.8c0,0.1-89,0.2-198.8,0.2S135,491.9,135,491.8s89-0.2,198.9-0.2
						C443.7,491.5,532.7,491.6,532.7,491.8z"/>
				</g>
			</g>
		</g>
	</g>
	<g id="XMLID_119_">
		<g id="XMLID_120_">
			<path id="XMLID_121_" class="st6" d="M431.2,214.3L431.2,214.3c6.1,0,11.1,5,11.1,11.1v22.8h-33.2v-21c0-7.1,5.8-12.9,12.9-12.9
				L431.2,214.3L431.2,214.3z"/>
		</g>
		<g id="XMLID_122_">
			<g id="XMLID_123_">
				<path id="XMLID_124_" class="st6" d="M431.2,214.3c0,0.1-31.3,0.2-70,0.2s-70-0.2-70-0.3s31.3-0.2,70-0.2
					S431.2,214.2,431.2,214.3z"/>
			</g>
		</g>
		<g id="XMLID_125_">
			<path id="XMLID_126_" class="st1" d="M430.9,214.3l-13.9-0.1l-20,0.1H249.1c-12.6,0-22.7,10.2-22.7,22.7v240.1v4.2h191.5V226.8
				C418.4,214.3,430.9,214.3,430.9,214.3z"/>
		</g>
		<g id="XMLID_127_">
			<path id="XMLID_128_" class="st6" d="M430.9,214.3l-115.4,0.3h-57.7h-7.2c-1.2,0-2.4,0-3.6,0.1c-1.2,0.2-2.4,0.3-3.5,0.6
				c-4.6,1.1-8.8,3.9-11.8,7.6c-1.5,1.8-2.7,3.9-3.5,6.2c-0.2,0.6-0.4,1.1-0.6,1.7l-0.4,1.7c-0.2,1.2-0.4,2.3-0.4,3.5
				c-0.1,4.8,0,9.6,0,14.4l0.2,230.9l-0.5-0.5l191.5,0.1l-0.3,0.3l0.1-137.3l0.1-68.7l0.1-34.3v-8.6V228c0-0.7,0-1.4,0.1-2.1
				c0.1-0.7,0.1-1.4,0.3-2.1c0.6-2.8,2.2-5.4,4.6-7c1.2-0.8,2.5-1.4,3.8-1.9C428.1,214.6,429.5,214.3,430.9,214.3z M430.9,214.3
				c-1.4,0.1-2.8,0.3-4.2,0.7c-1.4,0.4-2.7,1-3.8,1.9c-2.4,1.6-4,4.2-4.6,7c-0.2,0.7-0.2,1.4-0.3,2.1c-0.1,0.7-0.1,1.4-0.1,2.1v4.3
				v8.6l0.1,34.3l0.1,68.7l0.1,137.3v0.3h-0.3l-191.5,0.1h-0.5v-0.5l0.2-230.9c0-4.8,0-9.6,0.1-14.4c0-1.2,0.2-2.4,0.4-3.6l0.5-1.8
				c0.1-0.6,0.4-1.2,0.6-1.7c0.9-2.3,2.1-4.4,3.6-6.3c3.1-3.7,7.3-6.6,12.1-7.8c1.2-0.3,2.4-0.5,3.6-0.6s2.4-0.1,3.6-0.1h7.2h57.7
				L430.9,214.3z"/>
		</g>
		<g id="XMLID_131_">
			<path id="XMLID_132_" class="st8" d="M255.2,258.3h33.4l0.1,11.2h-1.6c-0.5-4-2-6.7-4.5-8.1c-1.4-0.8-3.5-1.2-6.2-1.3v29.2
				c0,2,0.4,3.4,1.1,4.1s2.2,1,4.5,1v1.4h-19.8v-1.4c2.2,0,3.6-0.3,4.3-1c0.7-0.7,1.1-2,1.1-4.1v-29.2c-2.7,0.1-4.8,0.5-6.2,1.3
				c-2.7,1.4-4.2,4.2-4.5,8.1h-1.6L255.2,258.3z"/>
		</g>
		<g id="XMLID_134_">
			<g id="XMLID_135_">
				<path id="XMLID_136_" class="st8" d="M391.6,260.8c0,0.4-18.4,0.7-41.2,0.7c-22.7,0-41.2-0.3-41.2-0.7s18.4-0.7,41.2-0.7
					C373.1,260.1,391.6,260.4,391.6,260.8z"/>
			</g>
		</g>
		<g id="XMLID_137_">
			<g id="XMLID_138_">
				<ellipse id="XMLID_139_" class="st7" cx="326.8" cy="273.9" rx="15.9" ry="0.7"/>
			</g>
		</g>
		<g id="XMLID_140_">
			<g id="XMLID_141_">
				<path id="XMLID_142_" class="st7" d="M302.6,314.1c0,0.4-13.5,0.7-30.2,0.7s-30.2-0.3-30.2-0.7c0-0.4,13.5-0.7,30.2-0.7
					C289.1,313.3,302.6,313.7,302.6,314.1z"/>
			</g>
		</g>
		<g id="XMLID_143_">
			<g id="XMLID_144_">
				<path id="XMLID_145_" class="st8" d="M371.1,314.1c0,0.4-13.5,0.7-30.2,0.7s-30.2-0.3-30.2-0.7c0-0.4,13.5-0.7,30.2-0.7
					C357.5,313.3,371.1,313.7,371.1,314.1z"/>
			</g>
		</g>
		<g id="XMLID_146_">
			<g id="XMLID_147_">
				<path id="XMLID_148_" class="st7" d="M302.6,324.8c0,0.4-13.5,0.7-30.2,0.7s-30.2-0.3-30.2-0.7c0-0.4,13.5-0.7,30.2-0.7
					S302.6,324.4,302.6,324.8z"/>
			</g>
		</g>
		<g id="XMLID_149_">
			<g id="XMLID_150_">
				<path id="XMLID_151_" class="st8" d="M302.6,335.5c0,0.4-13.5,0.7-30.2,0.7s-30.2-0.3-30.2-0.7c0-0.4,13.5-0.7,30.2-0.7
					S302.6,335.1,302.6,335.5z"/>
			</g>
		</g>
		<g id="XMLID_152_">
			<g id="XMLID_153_">
				<ellipse id="XMLID_154_" class="st7" cx="326.8" cy="295.8" rx="15.9" ry="0.7"/>
			</g>
		</g>
		<g id="XMLID_155_">
			<g id="XMLID_156_">
				<ellipse id="XMLID_157_" class="st7" cx="387.3" cy="314.1" rx="10.6" ry="0.7"/>
			</g>
		</g>
		<g id="XMLID_158_">
			<g id="XMLID_159_">
				<path id="XMLID_160_" class="st7" d="M403.6,273.9c0,0.4-12.2,0.7-27.3,0.7c-15.1,0-27.3-0.3-27.3-0.7s12.2-0.7,27.3-0.7
					C391.4,273.2,403.6,273.5,403.6,273.9z"/>
			</g>
		</g>
		<g id="XMLID_161_">
			<g id="XMLID_162_">
				<path id="XMLID_163_" class="st7" d="M401.1,284.4c0,0.4-20.2,0.7-45.1,0.7s-45.1-0.3-45.1-0.7s20.2-0.7,45.1-0.7
					C380.9,283.7,401.1,284,401.1,284.4z"/>
			</g>
		</g>
		<g id="XMLID_164_">
			<g id="XMLID_165_">
				<path id="XMLID_166_" class="st7" d="M397.9,324.8c0,0.4-19.5,0.7-43.7,0.7c-24.1,0-43.7-0.3-43.7-0.7c0-0.4,19.5-0.7,43.7-0.7
					S397.9,324.4,397.9,324.8z"/>
			</g>
		</g>
		<g id="XMLID_167_">
			<g id="XMLID_168_">
				<path id="XMLID_169_" class="st8" d="M397.9,355.8c0,0.4-18.3,0.7-41,0.7c-22.6,0-41-0.3-41-0.7c0-0.4,18.3-0.7,41-0.7
					S397.9,355.4,397.9,355.8z"/>
			</g>
		</g>
		<g id="XMLID_170_">
			<g id="XMLID_171_">
				<path id="XMLID_172_" class="st7" d="M397.9,366.2c0,0.4-18.3,0.7-41,0.7c-22.6,0-41-0.3-41-0.7c0-0.4,18.3-0.7,41-0.7
					C379.6,365.5,397.9,365.8,397.9,366.2z"/>
			</g>
		</g>
		<g id="XMLID_173_">
			<g id="XMLID_174_">
				<path id="XMLID_175_" class="st7" d="M397.9,376.7c0,0.4-18.3,0.7-41,0.7c-22.6,0-41-0.3-41-0.7c0-0.4,18.3-0.7,41-0.7
					C379.6,375.9,397.9,376.3,397.9,376.7z"/>
			</g>
		</g>
		<g id="XMLID_176_">
			<g id="XMLID_177_">
				<path id="XMLID_178_" class="st7" d="M397.9,387.1c0,0.4-18.3,0.7-41,0.7c-22.6,0-41-0.3-41-0.7c0-0.4,18.3-0.7,41-0.7
					C379.6,386.4,397.9,386.7,397.9,387.1z"/>
			</g>
		</g>
		<g id="XMLID_179_">
			<g id="XMLID_180_">
				<path id="XMLID_181_" class="st7" d="M363.2,397.5c0,0.2-2.6,0.4-6.9,0.5s-10.2,0.2-16.7,0.2s-12.4-0.1-16.7-0.2
					c-4.3-0.1-6.9-0.3-6.9-0.5s2.6-0.4,6.9-0.5s10.2-0.2,16.7-0.2s12.4,0.1,16.7,0.2C360.5,397.1,363.2,397.3,363.2,397.5z"/>
			</g>
		</g>
		<g id="XMLID_182_">
			<g id="XMLID_183_">
				<path id="XMLID_184_" class="st7" d="M383.1,336.1c0,0.4-15.8,0.7-35.3,0.7s-35.3-0.3-35.3-0.7c0-0.4,15.8-0.7,35.3-0.7
					C367.3,335.3,383.1,335.7,383.1,336.1z"/>
			</g>
		</g>
		<g id="XMLID_185_">
			<g id="XMLID_186_">
				<g id="XMLID_758_">
					<g id="XMLID_188_">
						<polygon id="XMLID_189_" class="st3" points="301.2,357 305.5,437.5 226.8,447.3 226.8,356.3 						"/>
					</g>
				</g>
			</g>
			<g id="XMLID_187_">
				<g id="XMLID_754_">
					<g id="XMLID_191_">
						
							<rect id="XMLID_192_" x="209.7" y="341" transform="matrix(-6.424464e-003 1 -1 -6.424464e-003 648.3958 144.5628)" class="st2" width="85.4" height="106.8"/>
					</g>
				</g>
			</g>
			<g id="XMLID_190_">
				
					<rect id="XMLID_461_" x="202.7" y="357.1" transform="matrix(1 6.423988e-003 -6.423988e-003 1 2.539 -1.6127)" class="st8" width="99.3" height="74.6"/>
			</g>
			<g id="XMLID_193_" class="st10">
				<polygon id="XMLID_460_" points="202.4,431.4 237.4,385.3 258.7,414.4 273.4,399 301.7,432.1 				"/>
			</g>
			<g id="XMLID_194_" class="st10">
				<g id="XMLID_195_">
					<g id="XMLID_196_">
						<circle id="XMLID_459_" cx="260.2" cy="379.7" r="7.8"/>
					</g>
				</g>
			</g>
		</g>
		<g id="XMLID_197_">
			<g id="XMLID_198_">
				<circle id="XMLID_199_" class="st6" cx="314.2" cy="457.6" r="1.7"/>
			</g>
			<g id="XMLID_200_">
				<circle id="XMLID_201_" class="st6" cx="324" cy="457.6" r="1.7"/>
			</g>
			<g id="XMLID_202_">
				<circle id="XMLID_203_" class="st6" cx="333.8" cy="457.6" r="1.7"/>
			</g>
		</g>
		<g id="XMLID_204_">
			<g id="XMLID_205_">
				<path id="XMLID_206_" class="st8" d="M371.5,419.2c0,0.4-13.5,0.7-30.2,0.7s-30.2-0.3-30.2-0.7c0-0.4,13.5-0.7,30.2-0.7
					C358,418.5,371.5,418.8,371.5,419.2z"/>
			</g>
		</g>
		<g id="XMLID_207_">
			<g id="XMLID_208_">
				<path id="XMLID_209_" class="st7" d="M398.4,430c0,0.4-19.5,0.7-43.7,0.7c-24.1,0-43.7-0.3-43.7-0.7c0-0.4,19.5-0.7,43.7-0.7
					C378.8,429.2,398.4,429.6,398.4,430z"/>
			</g>
		</g>
	</g>
</g>
<g id="Box">
	<g id="XMLID_684_">
		<g id="XMLID_720_">
			<g id="XMLID_726_">
				<g id="XMLID_727_">
					<g id="XMLID_728_">
						
							<rect id="XMLID_729_" x="596.8" y="441.5" transform="matrix(-6.423126e-003 1 -1 -6.423126e-003 1100.2015 -145.7812)" class="st2" width="51.4" height="64.3"/>
					</g>
				</g>
			</g>
			
				<rect id="XMLID_725_" x="592.6" y="451.2" transform="matrix(1 6.424279e-003 -6.424279e-003 1 3.0562 -3.9893)" class="st8" width="59.8" height="45"/>
			<polygon id="XMLID_724_" class="st11" points="592.4,496 613.5,468.2 626.3,485.8 635.1,476.5 652.2,496.4 			"/>
			<g id="XMLID_721_" class="st10">
				<g id="XMLID_722_">
					<circle id="XMLID_723_" cx="627.2" cy="464.9" r="4.7"/>
				</g>
			</g>
		</g>
		<g id="XMLID_710_">
			<g id="XMLID_716_">
				<g id="XMLID_717_">
					<g id="XMLID_718_">
						
							<rect id="XMLID_719_" x="587.4" y="436.2" transform="matrix(-6.424661e-003 1 -1 -6.424661e-003 1085.3717 -141.6565)" class="st2" width="51.4" height="64.3"/>
					</g>
				</g>
			</g>
			
				<rect id="XMLID_715_" x="583.1" y="445.8" transform="matrix(1 6.424279e-003 -6.424279e-003 1 3.021 -3.9286)" class="st8" width="59.8" height="45"/>
			<polygon id="XMLID_714_" class="st11" points="583,490.6 604,462.8 616.9,480.4 625.7,471.1 642.8,491 			"/>
			<g id="XMLID_711_" class="st10">
				<g id="XMLID_712_">
					<circle id="XMLID_713_" cx="617.8" cy="459.5" r="4.7"/>
				</g>
			</g>
		</g>
		<g id="XMLID_700_">
			<g id="XMLID_706_">
				<g id="XMLID_707_">
					<g id="XMLID_708_">
						
							<rect id="XMLID_709_" x="578.9" y="431.8" transform="matrix(-6.423115e-003 1 -1 -6.423115e-003 1072.4115 -137.6632)" class="st2" width="51.4" height="64.3"/>
					</g>
				</g>
			</g>
			
				<rect id="XMLID_705_" x="574.7" y="441.4" transform="matrix(1 6.422729e-003 -6.422729e-003 1 2.992 -3.8737)" class="st8" width="59.8" height="45"/>
			<polygon id="XMLID_704_" class="st11" points="574.6,486.2 595.6,458.4 608.5,476 617.3,466.7 634.4,486.6 			"/>
			<g id="XMLID_701_" class="st10">
				<g id="XMLID_702_">
					<circle id="XMLID_703_" cx="609.4" cy="455.1" r="4.7"/>
				</g>
			</g>
		</g>
		<g id="XMLID_690_">
			<g id="XMLID_696_">
				<g id="XMLID_697_">
					<g id="XMLID_698_">
						
							<rect id="XMLID_699_" x="569.5" y="437.3" transform="matrix(-6.423126e-003 1 -1 -6.423126e-003 1068.4828 -122.7782)" class="st2" width="51.4" height="64.3"/>
					</g>
				</g>
			</g>
			
				<rect id="XMLID_695_" x="565.2" y="446.9" transform="matrix(1 6.422727e-003 -6.422727e-003 1 3.0268 -3.8128)" class="st7" width="59.8" height="45"/>
			<polygon id="XMLID_694_" class="st11" points="565.1,491.7 586.2,463.9 599,481.5 607.9,472.2 624.9,492.1 			"/>
			<g id="XMLID_691_" class="st10">
				<g id="XMLID_692_">
					<circle id="XMLID_693_" cx="599.9" cy="460.6" r="4.7"/>
				</g>
			</g>
		</g>
		<g id="XMLID_685_">
			<rect id="XMLID_689_" x="627.6" y="462.6" class="st6" width="37.1" height="49.7"/>
			<path id="XMLID_686_" class="st8" d="M556.4,462.6v49.7h74.3v-49.7H556.4z M601.5,474.4h-15.8c-1.9,0-3.4-1.5-3.4-3.4
				s1.5-3.4,3.4-3.4h15.8c1.9,0,3.4,1.5,3.4,3.4S603.3,474.4,601.5,474.4z"/>
		</g>
	</g>
</g>
<g id="Character">
	<g id="XMLID_239_">
		<g id="XMLID_240_">
			<g id="XMLID_241_">
				<g id="XMLID_242_">
					<path id="XMLID_243_" class="st7" d="M508.2,507.1l-69.1-4.2c-0.4-1-0.7-1.6-0.7-1.6l-18.7,0.4l-6.1-0.4c0,0-0.1,0.2-0.2,0.5
						l-62.8,1.3c-12.5,0-25.7,7.6-25.7,17.4c-0.2,9.3,4.3,19.4,15.6,19.2l85.6-0.3l85.6,0.3c11.2,0.2,14.2-6.5,14.2-14.6
						C527.2,510.1,517.8,507.2,508.2,507.1z"/>
				</g>
				<g id="XMLID_244_">
					<g id="XMLID_245_">
						<path id="XMLID_246_" class="st6" d="M348.3,539.7c0,0,0.1,0,0.4,0s0.7,0,1.2,0c1.1,0,2.7,0,4.7,0c4.1,0,10,0,17.2-0.1
							c14.6,0,34.9,0,57.5-0.1l-0.2,0.3c-0.1-1.9-0.2-3.9-0.4-5.9c-0.3-4.1-0.5-8.2-0.8-12.1l0.2,0.2c-21-2.3-39.6-4.4-53-5.9
							c-6.6-0.8-12-1.4-15.7-1.8c-1.8-0.2-3.2-0.4-4.2-0.5c-0.5-0.1-0.8-0.1-1.1-0.1c-0.2,0-0.4-0.1-0.4-0.1s0.1,0,0.4,0
							s0.6,0.1,1.1,0.1c1,0.1,2.4,0.2,4.2,0.4c3.7,0.4,9.1,1,15.7,1.7c13.4,1.4,31.9,3.5,53,5.7h0.2v0.2c0.2,3.9,0.5,8,0.8,12.1
							c0.1,2,0.3,4,0.4,5.9v0.3h-0.3c-22.6,0-42.9-0.1-57.5-0.1c-7.3,0-13.2-0.1-17.2-0.1c-2,0-3.6,0-4.7,0c-0.5,0-0.9,0-1.2,0
							C348.4,539.7,348.3,539.7,348.3,539.7z"/>
					</g>
				</g>
				<g id="XMLID_247_">
					<g id="XMLID_248_">
						<path id="XMLID_249_" class="st6" d="M365.9,515.1c-0.1,0.1-0.9-0.6-2.4-1.5c-1.5-0.9-3.7-2-6.3-2.8c-2.6-0.7-5-1-6.8-1
							s-2.9,0.1-2.9,0c0,0,0.3-0.1,0.8-0.2s1.2-0.2,2.1-0.2c1.8-0.1,4.3,0.1,6.9,0.9s4.9,1.9,6.3,2.9c0.7,0.5,1.3,0.9,1.7,1.3
							C365.7,514.9,365.9,515.1,365.9,515.1z"/>
					</g>
				</g>
				<g id="XMLID_250_">
					<g id="XMLID_251_">
						<path id="XMLID_252_" class="st6" d="M502.9,511.4c0,0.1-13.6,3.4-30.4,7.4c-16.8,3.9-30.5,7-30.5,6.9
							c0-0.1,13.6-3.4,30.4-7.4C489.2,514.4,502.9,511.3,502.9,511.4z"/>
					</g>
				</g>
				<g id="XMLID_253_">
					<g id="XMLID_254_">
						<path id="XMLID_255_" class="st6" d="M491.4,510.1c0,0.2-2.6,0.7-5.3,2.6c-2.7,1.8-4.2,4.1-4.3,4c0,0,0.3-0.6,0.9-1.5
							c0.7-0.9,1.7-2,3.1-2.9c1.4-0.9,2.8-1.5,3.9-1.8C490.7,510.1,491.4,510,491.4,510.1z"/>
					</g>
				</g>
			</g>
			<g id="XMLID_256_">
				<path id="XMLID_445_" class="st12" d="M465.7,431.7l21.9,38.1c2.7,4.7,2.9,10.4,0.4,15.3l0,0c-2.8,5.6-8.6,9.1-14.9,8.9
					l-33.6-0.9l-0.9-12.2l29.6-5.7l-20-34.5L465.7,431.7z"/>
			</g>
			<g id="XMLID_257_">
				<path id="XMLID_258_" class="st12" d="M384.1,496.8L415,505l0.7-9.3l-28.5-16.5l20.8-38.6l-17.5-9l-21.9,38.1l0,0
					c-5.3,9.8-0.3,22.1,10.3,25.5L384.1,496.8z"/>
			</g>
			<g id="XMLID_259_">
				<path id="XMLID_260_" class="st8" d="M456.4,456.1l21.1-11.1c0,0-3.5-7.4-9-15.1c-6.5-9-16.7-15.4-28.2-17.8l0,0l-24.3,0.3
					c-3.5,0.4-6.3,1-8.7,2v-0.1c-13.2,2.9-27.8,31.7-27.8,31.7l19.2,10.1l0.4,3c0.6,4,2.3,7.7,5,10.8l-5.6,36.8l62.4,1.3l-7.9-26.4
					L456.4,456.1z"/>
			</g>
			<g id="XMLID_261_">
				<g id="XMLID_262_">
					<path id="XMLID_263_" class="st6" d="M404.7,470.1c0,0-0.4-0.2-0.9-0.7c-0.6-0.5-1.3-1.3-2.1-2.4c-1.6-2.2-3-5.9-2.6-10
						c0.3-2.1,0.9-3.9,1.4-5.6c0.6-1.7,1.1-3.2,1.6-4.4c0.5-1.2,0.9-2.2,1.2-2.9c0.3-0.7,0.5-1,0.5-1s-0.1,0.4-0.4,1.1
						c-0.3,0.8-0.7,1.8-1.1,3c-0.5,1.3-1,2.7-1.5,4.4c-0.5,1.7-1.1,3.5-1.4,5.5c-0.2,2,0.1,3.9,0.5,5.6s1.2,3.1,1.9,4.2
						C403.4,469,404.8,470,404.7,470.1z"/>
				</g>
			</g>
			<g id="XMLID_264_">
				<g id="XMLID_265_">
					<polygon id="XMLID_266_" class="st6" points="395.4,515.6 391.8,474.5 467.8,474.5 462.8,516.1 					"/>
				</g>
				<g id="XMLID_267_">
					<circle id="XMLID_268_" class="st1" cx="429.8" cy="496.4" r="4.8"/>
				</g>
			</g>
			<g id="XMLID_269_">
				<g id="XMLID_270_">
					<polygon id="XMLID_271_" class="st12" points="428.5,523.6 441.4,525.4 441.4,539.4 429.5,539.1 					"/>
				</g>
				<g id="XMLID_272_">
					<g id="XMLID_273_">
						<path id="XMLID_274_" class="st8" d="M441.4,525.4h5.8c1.1,0,2.2,0.3,3.2,0.9l3.1,1.8c1,0.6,4.2,2.2,5.3,2.5
							c3.5,1.1,9.5,2.7,10.7,3.6c3.6,2.8,2.5,6,0.5,6.3c-1.7,0.3-28.6-1.1-28.6-1.1V525.4z"/>
					</g>
					<g id="XMLID_275_">
						<g id="XMLID_276_">
							<path id="XMLID_277_" class="st6" d="M450.9,538.3c-0.1,0-0.6-1.6-0.6-3.6c-0.1-2.1,0.3-3.7,0.4-3.7s0,1.7,0.1,3.7
								C450.8,536.6,451,538.2,450.9,538.3z"/>
						</g>
					</g>
					<g id="XMLID_278_">
						<g id="XMLID_279_">
							<ellipse id="XMLID_280_" class="st6" cx="453.7" cy="534.8" rx="0.2" ry="3.3"/>
						</g>
					</g>
					<g id="XMLID_281_">
						<g id="XMLID_282_">
							
								<ellipse id="XMLID_283_" transform="matrix(0.997 -7.775333e-002 7.775333e-002 0.997 -40.2338 37.1231)" class="st6" cx="456.6" cy="535.2" rx="0.2" ry="3.5"/>
						</g>
					</g>
					<g id="XMLID_284_">
						<g id="XMLID_285_">
							<path id="XMLID_286_" class="st6" d="M448.4,534.5c0,0-0.4-0.1-1.2-0.4c-0.7-0.3-1.8-0.9-2.9-1.8c-0.3-0.2-0.6-0.5-0.8-0.8
								c-0.3-0.3-0.6-0.6-0.7-1c-0.2-0.4-0.2-1,0.2-1.4c0.2-0.2,0.4-0.4,0.7-0.4c0.3,0,0.5,0,0.8,0.1c1.9,0.6,3.5,2.5,3.8,4.8
								s-1,4.4-2.6,5.5c-0.4,0.3-0.8,0.5-1.3,0.6c-0.2,0-0.5,0-0.8,0c-0.3-0.1-0.5-0.3-0.6-0.5c-0.2-0.5,0-1,0.2-1.3
								c0.2-0.4,0.5-0.6,0.7-0.9c1-1,2.1-1.6,2.9-1.9s1.2-0.4,1.2-0.3c0,0-0.4,0.2-1.1,0.5s-1.7,0.9-2.7,1.9
								c-0.2,0.3-0.5,0.5-0.7,0.8s-0.3,0.7-0.1,1c0.1,0.3,0.5,0.4,0.9,0.3c0.4-0.1,0.8-0.3,1.2-0.5c1.5-1,2.6-3,2.3-5.1
								c-0.3-2.1-1.8-3.8-3.4-4.4c-0.4-0.1-0.8-0.1-1,0.2c-0.2,0.3-0.3,0.7-0.1,1c0.3,0.7,0.9,1.2,1.4,1.7
								C446.7,534,448.5,534.4,448.4,534.5z"/>
						</g>
					</g>
				</g>
				<g id="XMLID_287_">
					<g id="XMLID_288_">
						<path id="XMLID_289_" class="st6" d="M470,540.5c0,0,0.4-0.2,0.7-0.9c0.3-0.6,0.3-1.8-0.4-2.9c-0.6-1.1-1.9-2.1-3.6-2.7
							c-1.6-0.6-3.6-0.9-5.6-1.5c-4-1.2-7.3-2.9-9.6-4.4c-1.1-0.7-2-1.4-2.6-1.8c-0.6-0.5-0.9-0.8-0.9-0.8s0.4,0.2,1,0.6
							c0.6,0.4,1.5,1,2.7,1.7c2.3,1.4,5.6,3,9.5,4.2c1.9,0.6,3.9,0.9,5.6,1.5c1.7,0.6,3.1,1.7,3.7,3c0.6,1.2,0.7,2.5,0.2,3.2
							c-0.2,0.3-0.4,0.5-0.6,0.7C470.1,540.5,470,540.5,470,540.5z"/>
					</g>
				</g>
			</g>
			<g id="XMLID_290_">
				<g id="XMLID_291_">
					<path id="XMLID_292_" class="st2" d="M461.2,422.2c0,0,0,0.1,0,0.2c0,0.2,0,0.3,0,0.6c0,0.5-0.1,1.3-0.2,2.2
						c-0.2,2-0.5,4.8-0.8,8.4v0.2l-0.2-0.1c-3.1-1.6-6.9-3.6-11.2-5.9l0.3-0.1c-1.8,3.1-3.9,6.6-6.1,10.3l-0.1,0.2l-0.2-0.2
						c-3.2-2.5-6.7-5.1-10.2-7.9h0.3c-1.4,1.1-2.9,2.3-4.5,3.5c-2.1,1.6-4.1,3.2-6.1,4.8l-0.2,0.2l-0.1-0.2c-2-3.7-4-7.3-5.8-10.7
						l0.3,0.1c-4.5,2-8.6,3.8-12.3,5.5l-0.2,0.1v-0.2c-0.7-4.2-1.3-7.9-1.9-10.9l0.2,0.1c-3,1.1-5.4,2-7,2.7
						c-0.8,0.3-1.4,0.5-1.9,0.7c-0.2,0.1-0.4,0.1-0.5,0.2c-0.1,0-0.2,0.1-0.2,0c0,0,0,0,0.2-0.1c0.1-0.1,0.3-0.1,0.5-0.2
						c0.4-0.2,1.1-0.4,1.8-0.8c1.7-0.7,4-1.6,7-2.8l0.2-0.1v0.2c0.5,3,1.2,6.7,2,10.9L404,433c3.7-1.7,7.8-3.5,12.3-5.5l0.2-0.1
						l0.1,0.2c1.8,3.4,3.8,7,5.8,10.7l-0.4-0.1c2-1.6,4-3.1,6.1-4.8c1.5-1.2,3-2.4,4.5-3.5l0.1-0.1l0.1,0.1c3.6,2.8,7,5.4,10.2,7.9
						l-0.3,0.1c2.2-3.7,4.3-7.1,6.1-10.2l0.1-0.2l0.2,0.1c4.3,2.3,8.1,4.3,11.2,6l-0.2,0.1c0.4-3.6,0.7-6.4,1-8.4
						c0.1-1,0.2-1.7,0.3-2.2c0-0.2,0.1-0.4,0.1-0.6C461.2,422.3,461.2,422.2,461.2,422.2z"/>
				</g>
			</g>
			<g id="XMLID_293_">
				<g id="XMLID_294_">
					<path id="XMLID_295_" class="st2" d="M470.3,432.5c0,0,0,0.1-0.1,0.3c0,0.2-0.1,0.5-0.2,0.8c-0.2,0.7-0.5,1.7-0.8,3
						c-0.7,2.7-1.8,6.5-3,11.3v0.2L466,448c-3.7-1.8-8.2-3.9-13.1-6.3l0.3-0.1c-3.3,4.8-7.1,10.1-11,15.7l-0.2,0.2l-0.2-0.2
						c-3.4-3.4-6.9-7-10.6-10.7c-0.7-0.8-1.5-1.5-2.2-2.3h0.3c-5,3.1-9.8,6.1-14.3,9l-0.2,0.1l-0.1-0.2c-2.8-4.9-5.3-9.4-7.7-13.6
						l0.2,0.1c-5.6,1.9-10.6,3.7-14.7,5.1h-0.1v-0.1c-1.4-4-2.5-7.2-3.3-9.4c-0.4-1.1-0.6-1.9-0.8-2.5c-0.1-0.3-0.2-0.5-0.2-0.6
						S388,432,388,432s0,0.1,0.1,0.2c0.1,0.2,0.1,0.4,0.2,0.6c0.2,0.6,0.5,1.4,0.9,2.5c0.8,2.2,1.9,5.4,3.4,9.4l-0.2-0.1
						c4.1-1.4,9-3.2,14.6-5.2l0.2-0.1l0.1,0.1c2.4,4.2,5,8.7,7.7,13.6l-0.3-0.1c4.5-2.8,9.3-5.9,14.3-9l0.2-0.1l0.1,0.1
						c0.7,0.7,1.5,1.5,2.2,2.3c3.7,3.7,7.2,7.3,10.6,10.7h-0.4c4-5.6,7.7-10.9,11.1-15.7l0.1-0.1l0.2,0.1c4.9,2.4,9.3,4.6,13,6.4
						l-0.2,0.1c1.3-4.8,2.4-8.6,3.2-11.3c0.4-1.3,0.7-2.3,0.9-3C470.1,433.1,470.2,432.8,470.3,432.5L470.3,432.5z"/>
				</g>
			</g>
		</g>
		<g id="XMLID_296_">
			<g id="XMLID_297_">
				<path id="XMLID_298_" class="st6" d="M460.9,367.8c-3.7,0.4-7.6-0.8-10.4-3.3c3.4,1.7,7.9-0.6,9.1-4.2s0.2-10.3-2.7-12.7
					c-2.8-2.3-6.7-3.1-10.2-2.2s-7.2,6.2-8.3,9.6l0.1,0.1c-0.5-0.2-1.1-0.4-1.6-0.6c-3.9-1.3-8-1.9-12-1.5c-4,0.5-8,2.1-11,4.8
					l23.6,37.9c4.3-0.4,8.1-3.3,10.3-6.9c2.2-3.7,3.1-8,3.3-12.3c0.1-1.1,0.1-2.2,0-3.3c2.5,0.4,5.1,0.8,7.6,1.2
					c-1.4-1.8-3.1-3.4-5-4.5C456.2,371.1,459.4,370.1,460.9,367.8z"/>
			</g>
			<g id="XMLID_299_">
				<g id="XMLID_300_">
					<g id="XMLID_301_">
						<g id="XMLID_302_">
							<g id="XMLID_303_">
								<g id="XMLID_304_">
									<g id="XMLID_305_">
										<g id="XMLID_306_">
											<g id="XMLID_307_">
												<g id="XMLID_308_">
													<g id="XMLID_309_">
														<g id="XMLID_310_">
															<g id="XMLID_311_">
																<path id="XMLID_444_" class="st12" d="M431.1,426.7c6.4-0.1,11.5-5.3,11.6-11.7l0.5-47.2l0,0c0-1.9-1.4-3.6-3.4-3.8
																	l-19.9-5c-6.4-0.7-10.6,7.2-11,13.6c-0.4,7.1-0.7,15.8,0.1,21.1c1.7,10.7,9.9,12,9.9,12s0,4.1,0,9.2
																	C419,421.5,424.5,426.8,431.1,426.7L431.1,426.7z"/>
															</g>
														</g>
													</g>
												</g>
											</g>
											<g id="XMLID_312_">
												<g id="XMLID_313_">
													<g id="XMLID_314_">
														<g id="XMLID_315_">
															<g id="XMLID_316_">
																<g id="XMLID_317_">
																	<path id="XMLID_443_" class="st6" d="M413.1,379.4c0,0.7,0.6,1.3,1.3,1.4c0.8,0,1.4-0.5,1.4-1.2s-0.6-1.3-1.3-1.4
																		C413.7,378.1,413.1,378.7,413.1,379.4z"/>
																</g>
															</g>
														</g>
													</g>
												</g>
												<g id="XMLID_318_">
													<g id="XMLID_319_">
														<g id="XMLID_320_">
															<g id="XMLID_321_">
																<g id="XMLID_322_">
																	<g id="XMLID_323_">
																		<path id="XMLID_442_" class="st6" d="M410.8,377c0.2,0.2,1.2-0.6,2.7-0.6s2.6,0.7,2.7,0.6s-0.1-0.4-0.6-0.7
																			c-0.5-0.3-1.3-0.7-2.2-0.7c-0.9,0-1.7,0.3-2.1,0.7C410.9,376.6,410.7,376.9,410.8,377z"/>
																	</g>
																</g>
															</g>
														</g>
													</g>
												</g>
											</g>
											<g id="XMLID_324_">
												<g id="XMLID_325_">
													<g id="XMLID_326_">
														<g id="XMLID_327_">
															<g id="XMLID_328_">
																<g id="XMLID_329_">
																	<path id="XMLID_441_" class="st6" d="M427.1,379.4c0,0.7,0.6,1.3,1.3,1.4c0.8,0,1.4-0.5,1.4-1.2s-0.6-1.3-1.3-1.4
																		C427.7,378.1,427.1,378.7,427.1,379.4z"/>
																</g>
															</g>
														</g>
													</g>
												</g>
												<g id="XMLID_330_">
													<g id="XMLID_331_">
														<g id="XMLID_332_">
															<g id="XMLID_333_">
																<g id="XMLID_334_">
																	<g id="XMLID_335_">
																		<path id="XMLID_440_" class="st6" d="M425.3,377.3c0.2,0.2,1.2-0.6,2.7-0.6s2.6,0.7,2.7,0.6s-0.1-0.4-0.6-0.7
																			c-0.5-0.3-1.3-0.7-2.2-0.7c-0.9,0-1.7,0.3-2.1,0.7C425.4,376.9,425.2,377.2,425.3,377.3z"/>
																	</g>
																</g>
															</g>
														</g>
													</g>
												</g>
											</g>
											<g id="XMLID_336_">
												<g id="XMLID_337_">
													<g id="XMLID_338_">
														<g id="XMLID_339_">
															<g id="XMLID_340_">
																<g id="XMLID_341_">
																	<path id="XMLID_439_" class="st6" d="M420,388.2c0-0.1-0.9-0.2-2.4-0.4c-0.4,0-0.7-0.1-0.8-0.4
																		c-0.1-0.3,0.1-0.7,0.3-1.1c0.4-0.9,0.7-1.9,1.1-2.9c1.5-4.1,2.7-7.4,2.5-7.5s-1.6,3.2-3.1,7.3
																		c-0.4,1-0.7,2-1.1,2.9c-0.1,0.4-0.4,0.9-0.2,1.5c0.1,0.3,0.4,0.5,0.6,0.6s0.5,0.1,0.6,0.1
																		C419,388.3,419.9,388.3,420,388.2z"/>
																</g>
															</g>
														</g>
													</g>
												</g>
											</g>
											<g id="XMLID_342_">
												<g id="XMLID_343_">
													<g id="XMLID_344_">
														<g id="XMLID_345_">
															<g id="XMLID_346_">
																<path id="XMLID_438_" class="st13" d="M418.9,405.7c0,0,7.2,0.5,14.3-3.8c0,0-3.5,7.3-14.2,6.3L418.9,405.7z"/>
															</g>
														</g>
													</g>
												</g>
											</g>
											<g id="XMLID_347_">
												<g id="XMLID_348_">
													<g id="XMLID_349_">
														<g id="XMLID_350_">
															<g id="XMLID_351_">
																<path id="XMLID_437_" class="st13" d="M420.6,391.8c0.5-0.7,1.5-1.1,2.4-1c0.6,0.1,1.3,0.4,1.7,0.9
																	c0.4,0.5,0.5,1.3,0.1,1.8c-0.4,0.6-1.2,0.7-1.9,0.5c-0.7-0.2-1.3-0.7-1.9-1.1c-0.2-0.1-0.3-0.3-0.4-0.4
																	C420.4,392.2,420.4,392,420.6,391.8"/>
															</g>
														</g>
													</g>
												</g>
											</g>
											<g id="XMLID_352_">
												<g id="XMLID_353_">
													<g id="XMLID_354_">
														<g id="XMLID_355_">
															<g id="XMLID_356_">
																<g id="XMLID_357_">
																	<path id="XMLID_436_" class="st6" d="M424.3,389.2c-0.2,0-0.2,1.6-1.6,2.7s-3.1,1-3.1,1.2c0,0.1,0.4,0.3,1.1,0.3
																		s1.7-0.2,2.6-0.9c0.8-0.7,1.2-1.6,1.2-2.3C424.6,389.6,424.4,389.2,424.3,389.2z"/>
																</g>
															</g>
														</g>
													</g>
												</g>
											</g>
										</g>
									</g>
								</g>
								<g id="XMLID_358_">
									<g id="XMLID_359_">
										<g id="XMLID_360_">
											<g id="XMLID_361_">
												<g id="XMLID_362_">
													<path id="XMLID_435_" class="st6" d="M424.6,374.7c0.1,0.4,1.6,0.2,3.3,0.4c1.7,0.2,3.1,0.7,3.4,0.3
														c0.1-0.2-0.1-0.5-0.7-0.9s-1.4-0.8-2.5-0.9c-1-0.1-2,0.1-2.6,0.3C424.9,374.2,424.6,374.5,424.6,374.7z"/>
												</g>
											</g>
										</g>
									</g>
								</g>
								<g id="XMLID_363_">
									<g id="XMLID_364_">
										<g id="XMLID_365_">
											<g id="XMLID_366_">
												<g id="XMLID_367_">
													<path id="XMLID_417_" class="st6" d="M411,374.3c0.3,0.3,1.3,0,2.5,0c1.2-0.1,2.3,0.2,2.5-0.1c0.1-0.2-0.1-0.5-0.5-0.8
														s-1.2-0.6-2-0.5c-0.8,0-1.6,0.3-2,0.7C411,373.8,410.9,374.1,411,374.3z"/>
												</g>
											</g>
										</g>
									</g>
								</g>
							</g>
						</g>
						<g id="XMLID_368_">
							<g id="XMLID_369_">
								<path id="XMLID_370_" class="st12" d="M442.1,381c0.8-0.6,1.9-0.4,2.8,0.1c2,1.1,2.9,3.7,2.2,5.9c-0.7,2.1-3.1,3.6-5.3,3.3"
									/>
							</g>
						</g>
						<g id="XMLID_371_">
							<g id="XMLID_372_">
								<g id="XMLID_373_">
									<path id="XMLID_374_" class="st13" d="M442.8,387.2c0-0.1,0.4,0.1,0.9-0.1s1-1,0.9-1.8c0-0.9-0.6-1.5-1.1-1.7
										s-0.9-0.1-0.9-0.2s0.4-0.3,1.1-0.2c0.3,0.1,0.7,0.3,1,0.7c0.3,0.4,0.5,0.9,0.5,1.4c0.1,1.1-0.6,2.1-1.3,2.2
										C443.1,387.6,442.7,387.2,442.8,387.2z"/>
								</g>
							</g>
						</g>
					</g>
				</g>
			</g>
			<g id="XMLID_375_">
				<g id="XMLID_376_">
					<path id="XMLID_377_" class="st7" d="M445.7,389.3c0,0,0.2,0.1,0.5,0.3c0.4,0.3,0.8,0.6,1.3,1.1c1.2,1,2.7,2.3,4.6,3.9l0.2,0.1
						l-0.1,0.2c-1.7,2.1-3.6,4.6-5.8,7.3c-0.5,0.6-1,1.2-1.4,1.8l-0.4,0.5v-0.6c-0.2-4.3-0.3-8.2-0.4-11c0-1.3-0.1-2.4-0.1-3.3
						c0-0.8,0-1.2,0-1.2s0.1,0.4,0.1,1.2c0.1,0.8,0.1,1.9,0.2,3.2c0.2,2.8,0.4,6.6,0.6,10.9l-0.4-0.1c0.5-0.6,0.9-1.2,1.4-1.8
						c2.1-2.7,4.1-5.3,5.8-7.3v0.3c-1.8-1.6-3.3-3-4.5-4c-0.5-0.5-0.9-0.8-1.2-1.2C445.9,389.5,445.7,389.3,445.7,389.3z"/>
				</g>
			</g>
			<g id="XMLID_378_">
				<path id="XMLID_379_" class="st6" d="M424.1,354.2c-2.6,0.1-5.2,0.2-7.8,0.9c-2.5,0.6-5,1.8-6.7,3.8s-2.6,4.8-1.9,7.3
					s3.3,4.5,5.9,4.1c2-0.3,3.9-1.7,5.8-1.1c1.8,0.5,2.8,2.7,4.6,3.1c1.8,0.3,3.4-1.3,5.3-1.5c2-0.2,3.8,1.5,4.7,3.3
					c0.9,1.8,1.2,3.9,2.2,5.7c0.6,1.2,1.5,2.3,2.7,2.6c1.2,0.3,2.4-0.1,3.3-0.9s1.5-1.9,1.9-3c1.9-4.7,1.5-10.3-1.1-14.7
					c-2.6-4.4-7.3-7.4-12.4-8"/>
			</g>
			<g id="XMLID_380_">
				<g id="XMLID_381_">
					<path id="XMLID_382_" class="st8" d="M450.1,365.6c-0.1,0-0.3-0.9-1-2.2c-0.6-1.3-1.8-3-3.4-4.5c-1.7-1.5-3.5-2.4-4.8-3
						c-1.4-0.5-2.3-0.7-2.3-0.8c0,0,0.2,0,0.6,0s1,0.2,1.7,0.4c1.4,0.4,3.3,1.4,5,2.9s2.8,3.3,3.4,4.7c0.3,0.7,0.5,1.3,0.6,1.7
						C450.1,365.3,450.2,365.6,450.1,365.6z"/>
				</g>
			</g>
			<g id="XMLID_383_">
				<g id="XMLID_384_">
					<path id="XMLID_385_" class="st7" d="M458.3,349.9c0,0.1-0.9-0.5-2.6-0.8c-1.6-0.3-4-0.2-6.3,0.9s-3.9,2.9-4.8,4.2
						c-1,1.3-1.5,2.3-1.5,2.2c0,0,0.1-0.3,0.3-0.7c0.2-0.4,0.5-1,1-1.7c0.9-1.4,2.5-3.3,4.9-4.4c2.4-1.2,4.9-1.3,6.5-0.8
						c0.8,0.2,1.5,0.5,1.9,0.7C458.1,349.8,458.3,349.9,458.3,349.9z"/>
				</g>
			</g>
			<g id="XMLID_386_">
				<g id="XMLID_387_">
					<path id="XMLID_388_" class="st7" d="M448,362.5c0.1,0,0.1,0.8,0,2.2c-0.1,1.4-0.5,3.2-1.3,5.1s-1.9,3.5-2.8,4.5
						s-1.6,1.5-1.6,1.5c-0.1-0.1,2.4-2.4,4-6.2C447.9,365.9,447.9,362.5,448,362.5z"/>
				</g>
			</g>
			<g id="XMLID_389_">
				<g id="XMLID_390_">
					<path id="XMLID_391_" class="st7" d="M448.4,362.7c0,0,0.1,0.2,0.3,0.6c0.1,0.4,0.3,1,0.4,1.8c0.3,1.5,0.3,3.7-0.3,5.9
						c-0.6,2.3-1.6,4.2-2.6,5.4c-0.5,0.6-0.9,1.1-1.2,1.4c-0.3,0.3-0.5,0.4-0.5,0.4c-0.1-0.1,0.6-0.7,1.4-2c0.8-1.2,1.8-3.1,2.4-5.3
						c0.6-2.2,0.6-4.3,0.4-5.8C448.5,363.6,448.3,362.7,448.4,362.7z"/>
				</g>
			</g>
		</g>
	</g>
</g>
<g id="XMLID_496_">
	<g id="XMLID_517_">
		<path id="XMLID_518_" class="st0" d="M476.4,365.1c-2.7,0.9-3.9,4.7-2.1,6.9c1.8,2.2,5.8,1.9,7.2-0.5s-0.3-6.1-3.1-6.5"/>
	</g>
	<g id="XMLID_515_">
		<path id="XMLID_516_" class="st0" d="M489,346.9c-3.1,1-4.4,5.4-2.4,7.9s6.6,2.2,8.3-0.6c1.6-2.8-0.3-7-3.6-7.5"/>
	</g>
	<g id="XMLID_509_">
		<g id="XMLID_513_">
			<path id="XMLID_514_" class="st2" d="M515.8,266.6c-8.4-0.7-16.9,1.2-22.6,7.3c-5.8,6.2-8.5,15-7.2,23.3
				c-8.9,3.7-13.8,15.1-10.3,24.1s14.7,14.2,23.8,11c4.1,10.4,13.9,18.3,25,20s22.8-2.7,29.9-11.3c8.8,2,18.6,1.8,25.9-3.3
				c7.4-5.1,10.7-16.5,5.1-23.5c10.1-2.5,15.2-15.1,12.2-25s-11.9-17.1-21.5-21.1c-6.3-2.7-14.2-4.1-19.6,0.2
				c-4.3-6.6-12-11-19.9-11.3C528.6,256.6,520.6,260.3,515.8,266.6"/>
		</g>
		<g id="XMLID_510_">
			<g id="XMLID_511_">
				<path id="XMLID_512_" class="st6" d="M515.8,266.6c0,0,0.2-0.2,0.5-0.6s0.9-1,1.6-1.8c1.5-1.5,4-3.6,7.8-5.2
					c1.9-0.8,4.1-1.5,6.6-1.9c2.5-0.3,5.2-0.4,8.1,0.2c2.9,0.6,5.9,1.7,8.7,3.5c2.8,1.8,5.5,4.3,7.5,7.4h-0.2c2.2-1.7,5-2.7,7.9-2.7
					c2.9-0.1,6,0.4,8.9,1.4c3,1,5.9,2.3,8.8,4c2.9,1.7,5.6,3.7,8.1,6.1c2.5,2.4,4.7,5.3,6.3,8.6c0.8,1.7,1.4,3.4,1.8,5.2
					c0.3,1.8,0.5,3.7,0.4,5.6c-0.2,3.8-1.4,7.6-3.6,10.9c-1.1,1.6-2.4,3.2-4.1,4.4c-1.6,1.2-3.5,2.1-5.5,2.6l0.1-0.4
					c1.2,1.5,2.1,3.4,2.5,5.3s0.5,4,0.1,6c-0.6,4-2.6,7.8-5.5,10.7c-3,2.9-6.9,4.7-11,5.6s-8.5,0.9-12.7,0.4
					c-1.6-0.2-3.1-0.5-4.6-0.8l0.2-0.1c-7.7,9.2-20.3,13.4-31.4,11.1c-5.5-1.1-10.6-3.7-14.7-7.2c-4.1-3.5-7.3-7.9-9.2-12.7l0.3,0.1
					c-5.3,1.8-11,0.9-15.6-1.6s-8-6.8-9.1-11.5c-1.1-4.8-0.2-9.7,1.9-13.6c2.1-4,5.4-7,9.2-8.6l-0.1,0.2c-0.6-3.9-0.3-7.6,0.6-11
					c0.9-3.4,2.3-6.4,4-9c0.8-1.3,1.8-2.4,2.8-3.5c1-1,2-2,3.1-2.7c2.1-1.6,4.4-2.5,6.4-3.2c4.1-1.3,7.5-1.4,9.8-1.5
					C514.6,266.4,515.8,266.6,515.8,266.6s-0.3,0-0.9,0c-0.6,0-1.4-0.1-2.6-0.1c-2.2,0-5.6,0.2-9.7,1.5c-2,0.7-4.2,1.7-6.3,3.2
					c-1.1,0.7-2.1,1.7-3.1,2.7c-0.9,1.1-1.9,2.2-2.7,3.5c-1.7,2.5-3.1,5.5-3.9,8.9c-0.8,3.4-1.1,7.1-0.5,10.9v0.1l-0.1,0.1
					c-3.7,1.6-6.9,4.6-9,8.5c-2.1,3.9-2.9,8.7-1.8,13.3c1.1,4.6,4.4,8.8,8.9,11.3c4.4,2.5,10.1,3.4,15.2,1.6l0.2-0.1l0.1,0.2
					c1.9,4.7,5,9.1,9.1,12.5s9.1,6,14.5,7.1c10.9,2.2,23.3-1.9,30.9-11l0.1-0.1h0.1c1.5,0.3,3,0.6,4.5,0.8c4.2,0.5,8.5,0.5,12.5-0.4
					s7.9-2.7,10.8-5.5c2.9-2.8,4.8-6.6,5.4-10.4c0.6-3.9-0.2-7.9-2.5-10.9l-0.2-0.3l0.3-0.1c1.9-0.5,3.7-1.4,5.3-2.5s2.9-2.7,4-4.2
					c2.2-3.2,3.3-7,3.6-10.7c0.2-1.9,0-3.7-0.4-5.5c-0.4-1.8-1-3.5-1.7-5.2c-1.6-3.2-3.7-6.1-6.2-8.5s-5.2-4.4-8-6.1
					c-2.8-1.7-5.7-3-8.7-4c-2.9-1-5.9-1.5-8.8-1.4c-2.9,0.1-5.6,1-7.8,2.6l-0.1,0.1l-0.1-0.1c-2-3.1-4.6-5.5-7.4-7.3
					c-2.8-1.8-5.7-2.9-8.6-3.5c-2.8-0.6-5.6-0.6-8-0.3c-2.5,0.3-4.6,1-6.5,1.8c-3.8,1.6-6.2,3.6-7.8,5.1c-0.8,0.7-1.3,1.3-1.7,1.8
					C516,266.4,515.8,266.6,515.8,266.6z"/>
			</g>
		</g>
	</g>
	<g id="XMLID_506_">
		<g id="XMLID_507_">
			<path id="XMLID_508_" class="st7" d="M573.1,295.5c0,0.4-16.5,0.7-36.7,0.7c-20.3,0-36.7-0.3-36.7-0.7s16.4-0.7,36.7-0.7
				C556.7,294.8,573.1,295.1,573.1,295.5z"/>
		</g>
	</g>
	<g id="XMLID_503_">
		<g id="XMLID_504_">
			<path id="XMLID_505_" class="st7" d="M573.1,303.5c0,0.4-16.5,0.7-36.7,0.7c-20.3,0-36.7-0.3-36.7-0.7s16.4-0.7,36.7-0.7
				C556.7,302.7,573.1,303.1,573.1,303.5z"/>
		</g>
	</g>
	<g id="XMLID_500_">
		<g id="XMLID_501_">
			<path id="XMLID_502_" class="st7" d="M573.1,311.4c0,0.4-16.5,0.7-36.7,0.7c-20.3,0-36.7-0.3-36.7-0.7c0-0.4,16.4-0.7,36.7-0.7
				C556.7,310.7,573.1,311,573.1,311.4z"/>
		</g>
	</g>
	<g id="XMLID_497_">
		<g id="XMLID_498_">
			<path id="XMLID_499_" class="st7" d="M573.1,319.4c0,0.4-16.5,0.7-36.7,0.7c-20.3,0-36.7-0.3-36.7-0.7c0-0.4,16.4-0.7,36.7-0.7
				C556.7,318.7,573.1,319,573.1,319.4z"/>
		</g>
	</g>
</g>
<g id="XMLID_418_">
	<g id="XMLID_419_">
		<path id="XMLID_434_" d="M113.5,65.3c-1.2,0.3-2.2,0.5-3.2,0.8c-2.4,0.8-4.5,2.2-6.4,4c-1.5,1.5-3.3,2.8-5.2,3.9
			c-1.9,1.1-3.8,1.4-5.9,1.2c-0.4,0-0.9,0-1.3,0.1c1.2,0.5,2.6,0.5,3.8,0.7c-1.9,0.6-3.8,0.7-5.8,1c0.9,0.4,1.9,0.4,2.8,0.4
			c-1.4,0.4-2.8,0.4-4.3,0.4c0.4,0.3,1,0.4,1.4,0.4c0,0.3-0.2,0.2-0.3,0.2c-2.1,0.4-4.3,0.6-6.5,0.5c-0.4,0-0.6,0.1-0.8,0.4
			c-0.4,0.6-0.8,1.2-1.2,2c0.3,0.1,0.5,0.1,0.8,0.1c0.8,0,1.5,0,2.3,0.1c0.4,0,0.8,0.3,0.7,0.8c0,0.6,0,1.3,0,2c0,0.8-0.2,1-1,1.2
			c-1.2,0.2-1.9,0.7-2.2,1.9c-0.2,0.4,0,0.8,0.4,1.1c2.8,1.6,5.4,3.4,8.2,4.9c1.2,0.7,1.7,1.5,1.7,2.9c-0.1,2.9,0,6,0,8.9
			c0,1,0,2-0.1,3c0,0.6-0.2,0.8-0.8,0.8c-12,0-24,0-36,0c-0.6,0-0.8-0.3-0.8-0.8c0-3.4,0-6.8,0-10.2c0-1,0.1-2,0.1-2.9
			c0-0.4,0.2-0.7,0.5-1c2.1-1.2,4.4-2.6,6.5-3.9c1-0.6,2-1.2,3-1.8c0.3-0.1,0.3-0.3,0.3-0.5c0-1.2-0.9-2.1-2.1-2.2
			c-1-0.1-1.2-0.3-1.2-1.2c0-0.5,0-1.1,0-1.6c0-1,0.2-1.2,1.1-1.2c5.6,0,11.2,0,16.8,0c0.4,0,0.5-0.1,0.7-0.4
			c4.4-7.9,11.2-12.4,19.8-14.7c0.4-0.1,0.7-0.3,1.1-0.4c-8.8,1.6-16.1,5.8-20.9,13.6c0-0.2,0.1-0.4,0.1-0.4c0-0.2,0.1-0.4,0.1-0.4
			c0.1-0.5,0.2-1.1,0-1.7c-0.5-1.9-0.4-3.6,0.9-5.4c-0.1,0.6-0.1,1.1-0.2,1.5c0.9-1.1,1.5-2.4,2.7-3.3c0,0.4-0.3,0.8-0.3,1.4
			c1.2-1.2,2.1-2.6,3.6-3.6c-0.5,0.8-1.1,1.5-1.6,2.3c0.4-0.1,0.6-0.4,0.8-0.5c1.8-1.7,3.7-3.2,6-4c1.6-0.6,3.3-0.9,5.1-1.2
			c1.8-0.3,3.6-0.6,5.4-0.6c3.1,0,6.3,0,9.4,0.9c0.4,0.1,0.6,0.3,1,0.4C113.1,64.9,113.2,65,113.5,65.3z"/>
		<path id="XMLID_433_" class="st14" d="M62,117.4c-0.9,0-1.8-0.1-2.6,0.2c-0.4,0.1-0.7,0.2-0.8,0.6c-0.1,0.4,0.3,0.6,0.5,0.7
			c0.4,0.2,0.8,0.5,1.2,0.6c1.1,0.3,2-0.2,3-0.6c0.2-0.1,0.4-0.4,0.6,0c0.2,0.3,0,0.4-0.2,0.6c-1.1,1-3.1,1.1-4.4,0.3
			c-1.1-0.7-1.4-1.7-1.8-2.8c-0.1-0.4,0.1-0.6,0.2-0.9c0.4-0.9,0.9-1.6,2-1.8c0.8-0.1,1.5-0.4,2.3-0.2c1.2,0.3,2.1,1.1,2.2,2.3
			c0.1,0.4-0.4,0.9-0.8,0.9C63.1,117.4,62.5,117.4,62,117.4z"/>
		<path id="XMLID_432_" class="st14" d="M84.5,117.4c-0.9,0.1-1.8-0.1-2.8,0.1c-0.6,0.1-1,0.4-1.1,0.8c0,0.3,0.1,0.4,0.3,0.5
			c1.4,1.2,2.9,1.1,4.4,0.3c0.1,0,0.2-0.1,0.3-0.1c0.2-0.1,0.4-0.1,0.4,0.1c0.1,0.2,0.1,0.4-0.1,0.4c-0.6,0.5-1.3,0.9-2.1,1
			c-1.2,0.2-2.1-0.3-3-1c-0.9-0.7-1.2-2.7-0.7-3.7c0.4-0.7,0.8-1.2,1.7-1.3c0.8-0.1,1.5-0.4,2.3-0.3c1.3,0.3,2.2,1.1,2.3,2.4
			c0.1,0.4-0.3,0.8-0.7,0.8C85.3,117.4,85,117.4,84.5,117.4z"/>
		<path id="XMLID_431_" class="st14" d="M78.2,115.9c-0.4-0.1-0.6-0.4-0.8-0.6c-1-1.2-2-0.9-2.8,0.3c-0.4,0.4-0.5,0.9-0.6,1.3
			c0,0.1-0.1,0.2-0.1,0.3c0.1,0.7,1.2,1.9,1.9,2c0.9,0.2,1.8-0.4,2.1-1.2c0.2-0.4,0-0.7,0.2-1.1c0.1-0.1,0.1-0.4,0.3-0.4
			c0.2,0,0.3,0.3,0.2,0.4c-0.2,1-0.4,2-1.2,2.8c-0.4,0.3-0.7,0.4-1.1,0.3c-0.4-0.1-1-0.2-1.4-0.4c-0.4-0.1-0.5,0.1-0.6,0.4
			c-0.1,0.8,0.3,1.2,1.1,1.4c0.3,0.1,0.6-0.1,0.6,0.3s-0.4,0.4-0.7,0.5c-0.9,0.1-1.8,0.2-2.8,0.2c-0.2,0-0.3-0.1-0.4-0.2
			c-0.1-0.2,0-0.3,0.1-0.4c0.2-0.2,0.4-0.4,0.6-0.4c0.4-0.2,0.5-0.4,0.5-0.9c-0.1-0.9,0.1-1.9,0-2.8c-0.1-0.6,0.1-1.4,0-2
			c0-0.4-0.2-0.7-0.7-0.7c-0.1,0-0.2,0-0.2-0.1c-0.2-0.1-0.4,0-0.4-0.3c0-0.2,0.3-0.2,0.4-0.2c0.4,0,0.7,0,1,0.2
			c0.6,0.3,1.2,0.3,1.7,0c1-0.4,1.7-0.2,2.5,0.4C78,115,78.1,115.4,78.2,115.9z"/>
		<path id="XMLID_430_" class="st14" d="M71,115.8c-0.4-0.3-0.6-0.5-0.9-0.8c-0.5-0.6-1.3-0.6-2-0.2c-0.6,0.5-1,1.2-1.2,1.9
			c-0.2,0.4,0.2,0.8,0.4,1.2c0.6,1.1,1.7,1.5,2.7,1c0.5-0.3,1.1-0.7,1.1-1.5c0-0.2,0.1-0.4,0.1-0.6c0.1-0.1,0.1-0.4,0.3-0.4
			s0.2,0.3,0.2,0.4c-0.2,1-0.4,2-1.2,2.7c-0.3,0.3-0.6,0.4-1.1,0.3c-0.4-0.1-0.9-0.2-1.4-0.4c-0.5-0.1-0.7,0-0.8,0.5
			c0,0.7,0.4,1.2,1.2,1.3c0.2,0.1,0.6-0.1,0.6,0.2c0,0.3-0.4,0.4-0.6,0.4c-0.9,0.2-1.9,0.2-2.8,0.3c-0.2,0-0.3-0.1-0.4-0.2
			c-0.1-0.2,0-0.3,0.1-0.4c0.2-0.3,0.5-0.4,0.8-0.6c0.2-0.1,0.4-0.3,0.4-0.5c0-1.7-0.1-3.4-0.1-5.1c0-0.4-0.2-0.6-0.6-0.6
			c-0.1,0-0.2,0-0.4-0.1c-0.1,0-0.3-0.1-0.3-0.3s0.1-0.2,0.3-0.2c0.4,0,0.8,0,1.2,0.2c0.6,0.3,1.2,0.2,1.7-0.1
			c0.9-0.4,1.7-0.1,2.4,0.4C70.9,115,71,115.4,71,115.8z"/>
		<path id="XMLID_429_" class="st14" d="M55.8,115.9c-0.3-0.3-0.5-0.5-0.7-0.8c-0.7-0.7-1.5-0.8-2.2,0c-0.2,0.2-0.4,0.4-0.5,0.5
			c-0.8,1.2-0.7,2,0.3,2.9c0.5,0.6,1.2,0.7,2,0.4c0.8-0.3,1.2-0.8,1.3-1.6c0-0.2,0-0.4,0.1-0.5c0.1-0.1,0.1-0.4,0.3-0.4
			s0.2,0.3,0.3,0.4c0.1,0.7-0.7,2.4-1.4,2.8c-0.4,0.3-1,0.2-1.4,0.1c-0.3-0.1-0.6-0.2-0.9-0.3c-0.5-0.1-0.7,0.1-0.7,0.6
			c0,0.7,0.4,1.1,1.1,1.2c0.3,0.1,0.7-0.1,0.6,0.3c0,0.4-0.4,0.4-0.7,0.4c-0.9,0.1-1.8,0.2-2.7,0.2c-0.2,0-0.3-0.1-0.4-0.2
			c-0.1-0.2,0-0.3,0.1-0.4c0.2-0.3,0.5-0.4,0.8-0.5c0.3-0.2,0.4-0.4,0.4-0.7c0.1-1.5-0.1-2.9,0-4.4c0.1-1,0-1-0.9-1.2
			c-0.2-0.1-0.4-0.1-0.4-0.3s0.2-0.2,0.4-0.2c0.4,0,0.8,0,1.2,0.2c0.5,0.3,1.1,0.2,1.6-0.1c0.9-0.4,1.7-0.2,2.5,0.4
			c0.4,0.3,0.4,0.6,0.4,1.1C55.9,115.8,55.8,115.9,55.8,115.9z"/>
		<path id="XMLID_428_" d="M89.4,114c1,0,1.1,0.1,1.3,1c0,0.1,0.1,0.2,0.2,0.2c0.2,0,0.3-0.1,0.4-0.3c0.3-0.5,0.6-0.8,1.2-1
			c0.7-0.2,1.4-0.1,2,0.2c0.6,0.3,0.8,1.2,0.3,1.6c-0.5,0.4-1,0.2-1.2-0.4c-0.2-0.8-0.4-0.9-1.2-0.6c-1.6,0.6-2.4,2-1.8,3.6
			c0.1,0.3,0.3,0.4,0.4,0.4c0.4,0.1,0.9,0.3,1.3,0.4c0.3,0,0.4,0.2,0.5,0.4c0,0.3-0.3,0.4-0.4,0.4c-0.8,0.2-1.5,0.1-2.3,0
			c-0.3,0-0.4-0.1-0.7,0c-0.5,0.2-1.1,0-1.5-0.2c-0.2-0.1-0.4-0.1-0.4-0.3c0-0.2,0.2-0.3,0.4-0.4c0.4-0.1,0.7-0.3,1.1-0.4
			c0.4-0.2,0.7-0.4,0.8-1c0.1-0.6,0.1-1.2,0.1-1.9c0-0.9-0.2-1.1-1-1.3c-0.3-0.1-0.7,0-0.7-0.3c0-0.4,0.5-0.3,0.8-0.4
			C89.2,114,89.3,114,89.4,114z"/>
		<path id="XMLID_427_" class="st14" d="M97.9,117.8c0.5,0,1.2,0.6,1.2,1.2c0,0.4-0.7,1.1-1.3,1.2c-0.7,0-1.3-0.5-1.3-1.2
			C96.5,118.3,97.2,117.9,97.9,117.8z"/>
		<path id="XMLID_426_" class="st15" d="M74,93.7c0.6-0.6,1.2-1.1,1.7-1.5c0.3-0.2,0.4-0.4,0.4-0.8c0.3-0.7,0.5-1.4,0.8-2.1
			c0.1-0.3,0.2-0.4,0.4-0.4c1,0,2,0,2.9,0c0.3,0,0.4,0.1,0.6,0.2c3,1.8,6,3.6,9.1,5.4c0.3,0.2,0.4,0.4,0.4,0.7c0,3.8,0,7.6,0,11.5
			c0,0.4-0.1,0.5-0.5,0.5c-10.2,0-20.3,0-30.6,0c-1,0-2-0.1-3-0.1c-0.4,0-0.4-0.1-0.4-0.4c0-3.8,0-7.7,0-11.5c0-0.3,0.1-0.4,0.3-0.5
			c3.1-1.9,6.2-3.7,9.2-5.6c0.2-0.1,0.3-0.1,0.4-0.1c3,0,6,0,9.1,0c0.7,0,0.7,0,0.4,0.6C74.8,90.9,74.3,92.2,74,93.7z"/>
		<path id="XMLID_425_" class="st16" d="M65.4,85.4c4,0,8,0,12,0c-0.4,0.7-0.6,1.3-1,2c-0.1,0.2-0.3,0.2-0.4,0.2c-3.1,0-6.3,0-9.4,0
			c-0.3,0-0.4-0.1-0.4-0.4C66.1,86.6,65.8,86,65.4,85.4z"/>
		<path id="XMLID_424_" class="st17" d="M73.1,82.8c3.2,0,6.4,0,9.6,0c0.4,0,0.5,0.1,0.5,0.5c0,0.4-0.2,0.5-0.6,0.5
			c-4.4,0-8.9,0-13.3,0c-2,0-4-0.1-6-0.1c-0.4,0-0.4-0.3-0.4-0.5c0-0.4,0.1-0.4,0.4-0.4C66.6,82.9,69.8,82.8,73.1,82.8z"/>
		<path id="XMLID_423_" class="st16" d="M80.7,85.4c-0.4,0.5-0.6,1.2-0.7,1.8c0,0.2-0.1,0.4-0.4,0.4c-0.6,0-1.2,0-1.9,0
			c0.4-0.7,0.7-1.4,1-2c0.1-0.1,0.1-0.2,0.2-0.2C79.6,85.4,80.1,85.4,80.7,85.4z"/>
		<path id="XMLID_422_" class="st16" d="M60.8,116.6c-0.4,0-0.8,0-1.2,0c-0.3,0-0.6-0.2-0.7-0.4s0.2-0.4,0.4-0.6c0.9-1,2.8-1,3.7,0
			c0.2,0.2,0.4,0.4,0.3,0.6c-0.1,0.3-0.4,0.3-0.6,0.4C62,116.6,61.5,116.6,60.8,116.6z"/>
		<path id="XMLID_421_" class="st16" d="M82.7,116.7c-0.3,0-0.6,0-1.1-0.1c-0.3,0-0.5-0.2-0.6-0.4c-0.1-0.3,0.1-0.4,0.3-0.6
			c1-1,2.8-1.1,3.8-0.1c0.2,0.2,0.4,0.4,0.3,0.6c-0.1,0.3-0.4,0.4-0.5,0.4C84.1,116.6,83.5,116.6,82.7,116.7z"/>
		<path id="XMLID_420_" d="M73.1,106c-5.1,0-10.2,0-15.3,0c-0.4,0-0.5-0.1-0.5-0.5c0-2.6,0-5.1,0-7.6c0-0.3,0-0.4,0.4-0.6
			c3.2-1.5,6.6-2.1,10.1-1.9c2,0.1,3.6,1,5.3,1.9c1.5,0.8,3,1.6,4.7,2c1.8,0.4,3.6,0.3,5.3,0.1s3.6-0.6,5.2-1.2
			c0.4-0.2,0.6-0.1,0.6,0.4c0,2.4,0,4.8-0.1,7.2c0,0.2,0.1,0.4-0.3,0.4C83.4,106,78.2,106,73.1,106C73.1,106,73.1,106,73.1,106z"/>
	</g>
</g>
</svg>
