<?xml version="1.0" encoding="utf-8"?>
<!-- Generator: Adobe Illustrator 19.0.0, SVG Export Plug-In . SVG Version: 6.00 Build 0)  -->
<svg version="1.1" id="Layer_1" xmlns="http://www.w3.org/2000/svg" xmlns:xlink="http://www.w3.org/1999/xlink" x="0px" y="0px"
	 width="1503px" height="887.1px" viewBox="331 -146.8 1503 887.1" style="enable-background:new 331 -146.8 1503 887.1;"
	 xml:space="preserve">
<style type="text/css">
	.st0{opacity:0.37;fill:none;stroke:#00A99D;stroke-width:3.4822;stroke-miterlimit:10;enable-background:new    ;}
	.st1{opacity:0.34;fill:none;stroke:#554E8C;stroke-width:3.4822;stroke-miterlimit:10;enable-background:new    ;}
	.st2{fill:none;stroke:#0071BC;stroke-width:3.4822;stroke-miterlimit:10;}
	.st3{opacity:0.27;fill:none;stroke:#0071BC;stroke-width:3.4822;stroke-miterlimit:10;enable-background:new    ;}
	.st4{fill:none;stroke:#22B573;stroke-width:3.4822;stroke-miterlimit:10;}
	.st5{opacity:0.19;fill:none;stroke:#29ABE2;stroke-width:6.9643;stroke-miterlimit:10;enable-background:new    ;}
	.st6{opacity:8.000000e-002;fill:#29ABE2;enable-background:new    ;}
	.st7{opacity:0.16;fill:#29ABE2;enable-background:new    ;}
	.st8{fill:#A1B3FF;}
	.st9{fill:#CAE3FF;}
	.st10{fill:#AADEFF;}
	.st11{fill:#D6F0FF;}
	.st12{fill:url(#polygon25_1_);}
	.st13{fill:url(#polygon27_1_);}
	.st14{fill:#2973A5;}
	.st15{fill:#2E2425;}
	.st16{fill:#3C82BC;}
	.st17{fill:url(#face_1_);}
	.st18{fill:#554E8C;}
	.st19{fill:#FFFFFF;}
	.st20{opacity:0.61;}
	.st21{fill:#29ABE2;}
	.st22{fill:#00A99D;}
	.st23{opacity:0.7;}
	.st24{fill:#22B573;}
	.st25{opacity:0.69;}
	.st26{fill:url(#path82_1_);}
	.st27{fill:#20365B;}
	.st28{fill:#547A75;}
	.st29{fill:#738D8A;}
	.st30{fill:url(#path66_1_);}
	.st31{fill:#162449;}
	.st32{fill:none;stroke:#2E2425;stroke-width:1.123;stroke-linecap:round;stroke-miterlimit:6.46;}
	.st33{fill:url(#path78_1_);}
	.st34{fill:url(#path46_1_);}
	.st35{fill:#333333;}
	.st36{fill:#83ABDB;}
	.st37{fill:url(#path58_1_);}
	.st38{fill:#79A2CC;}
	.st39{fill:url(#SVGID_1_);}
	.st40{fill:url(#SVGID_2_);}
	.st41{fill:url(#SVGID_3_);}
	.st42{fill:url(#SVGID_4_);}
	.st43{fill:url(#SVGID_5_);}
	.st44{fill:url(#SVGID_6_);}
	.st45{fill:url(#SVGID_7_);}
	.st46{fill:url(#SVGID_8_);}
	.st47{fill:url(#SVGID_9_);}
	.st48{fill:url(#SVGID_10_);}
	.st49{fill:#C61F00;}
	.st50{fill:none;stroke:#000000;stroke-width:3.4822;stroke-miterlimit:10;}
	.st51{fill:#010101;}
	.st52{fill:#FEFEFE;}
	.st53{fill:#FDFDFD;}
	.st54{fill:#FCFCFC;}
</style>
<title>Asset 8</title>
<g>
	<g id="Layer_2">
		<g id="Layer_1-2">
			<circle class="st0" cx="677.8" cy="217.5" r="190.2"/>
			<polygon class="st1" points="1332.1,76.9 1408.6,153.4 1462.6,38.1 			"/>
			<polygon class="st2" points="642.6,338 675.2,370.7 698.3,321.5 			"/>
			<polygon class="st3" points="591.1,481.7 595.7,407 511.2,431.8 			"/>
			<circle class="st4" cx="1483.1" cy="469" r="193.7"/>
			<line class="st5" x1="459.8" y1="352" x2="1281.5" y2="69.9"/>
			<line class="st5" x1="459.8" y1="378.9" x2="1281.5" y2="96.9"/>
			<line class="st5" x1="459.8" y1="405.9" x2="1281.5" y2="123.9"/>
			<line class="st5" x1="459.8" y1="433.8" x2="1281.5" y2="151.7"/>
			<line class="st5" x1="459.8" y1="460.8" x2="1281.5" y2="178.7"/>
			<line class="st5" x1="459.8" y1="487.8" x2="1281.5" y2="205.7"/>
			<line class="st5" x1="797.5" y1="346" x2="1661.9" y2="433.5"/>
			<line class="st5" x1="786.2" y1="370.5" x2="1650.7" y2="458"/>
			<line class="st5" x1="774.9" y1="395" x2="1639.4" y2="482.6"/>
			<line class="st5" x1="767.3" y1="411.6" x2="1631.7" y2="499.2"/>
			<line class="st5" x1="756.4" y1="435.3" x2="1620.8" y2="522.9"/>
			<line class="st5" x1="747.6" y1="454.3" x2="1612.1" y2="541.9"/>
			<line class="st5" x1="737.8" y1="475.7" x2="1602.2" y2="563.2"/>
			<line class="st5" x1="730.5" y1="491.5" x2="1594.9" y2="579"/>
			<path class="st6" d="M586.1,218.4c0,0-259.6,91.3-114.6,205.9s66.3,198.8,66.3,245.3c0,46.6,404.7,28.6,488.9-94.9
				s132.5-218.5-46.6-231c-179.1-12.5-225.6-46.6-184.4-120c41.2-73.4,34-189.8-128.9-111s-114.6,93.1-66.3,77
				S611.1,207.6,586.1,218.4z"/>
			<path class="st7" d="M1132.8,127.9c0,0-259.6,91.3-114.6,205.9s66.3,198.8,66.3,245.3c0,46.6,404.7,28.6,488.9-94.9
				s132.5-218.5-46.6-231s-225.6-46.6-184.4-120s34-189.8-128.9-111s-114.6,93.1-66.3,77C1195.5,83.2,1157.8,117.1,1132.8,127.9z"/>
			<path class="st8" d="M1373.5,557.5l78.7,72.2c-59.7,0-220.3-78-306.9-78c-51,0-83,21-102.2,42.1h-25.7l-31.6-147.4L1373.5,557.5z
				"/>
			<path class="st9" d="M1017.5,446.3v147.4h-25.7c-19.2-21-51.2-42.1-102.2-42.1c-86.5,0-231.1,80.2-290.8,80.2l62.7-74.4
				L1017.5,446.3z"/>
			<path class="st10" d="M1373.5,79.5l78.7,550.2c-59.7,0-220.3-125.4-306.9-125.4c-51,0-83,21-102.2,42.1h-25.7l-63.3-217.9
				l63.3-217.9c0,0,25.9-84.2,127.8-84.2C1231.9,26.2,1313.8,79.5,1373.5,79.5z"/>
			<path class="st11" d="M1017.5,110.4v435.9h-25.7c-19.2-21-51.2-42.1-102.2-42.1c-86.5,0-230.4,121.8-290.1,121.8l61.9-546.5
				c59.7,0,141.6-53.2,228.2-53.2C991.6,26.2,1017.5,110.4,1017.5,110.4z"/>
			
				<radialGradient id="polygon25_1_" cx="2762.8213" cy="114.0709" r="196.4372" gradientTransform="matrix(-0.65 0 0 0.65 2493.22 189.385)" gradientUnits="userSpaceOnUse">
				<stop  offset="0" style="stop-color:#FFBE9B"/>
				<stop  offset="1" style="stop-color:#D47D69"/>
			</radialGradient>
			<path id="polygon25" class="st12" d="M709.3,331.7l11-55.6c0.1-0.7-0.3-1.5-1.1-1.6c-0.1,0-0.2,0-0.3,0l-3.4,0.1
				c-0.7,0-1.2,0.5-1.3,1.2l-6.9,55.5L709.3,331.7z"/>
			
				<radialGradient id="polygon27_1_" cx="360.9566" cy="112.739" r="201.5908" gradientTransform="matrix(0.65 0 0 0.65 506.22 189.385)" gradientUnits="userSpaceOnUse">
				<stop  offset="0" style="stop-color:#FFBE9B"/>
				<stop  offset="1" style="stop-color:#D47D69"/>
			</radialGradient>
			<path id="polygon27" class="st13" d="M730.5,331.9l-0.2-56.8c0-0.8,0.6-1.4,1.4-1.4h3.5c0.8,0,1.4,0.6,1.4,1.4c0,0,0,0.1,0,0.1
				l-4.4,56.7L730.5,331.9z"/>
			<path id="path47" class="st14" d="M719.1,173.2c0,0.8,0.7,1.3,1.5,1.3c0.1,0,0.2,0,0.3,0c14.3-4.2,39.7-14.7,42.6-18
				c0.2-0.2,0.2-0.6-0.1-0.7l0,0l-2.9-2.5c-0.2-0.2-0.5-0.1-0.8,0.1c-12.6,7.3-34.3,10.2-39.8,10.8c-0.7,0.1-1.3,0.7-1.2,1.5
				L719.1,173.2z"/>
			<g id="woman1">
				<path id="path49" class="st15" d="M740.6,229l-27.7-2.9c-0.8-0.1-1.4,0.5-1.5,1.2c0,0.1,0,0.2,0,0.2l1.5,24.3l1.3,21.4
					c0,0.7,0.7,1.3,1.4,1.3c5-0.1,22.8-0.5,22.5-0.8s3-35.8,3.7-43.2C741.9,229.7,741.4,229,740.6,229
					C740.6,229,740.6,229,740.6,229z"/>
				<path id="path51" class="st16" d="M711.3,226c0,0,0-0.1,0-0.1c0.2-3.4,0.8-6.7,1.7-9.9c1.6-5.9,4.9-12.5,5-15.5
					c0.2-7-0.2-15.5-1.5-20c-1.3-4.4-1.8-9-1.5-13.5c0.3-1.5,1.1-2.9,2.3-3.8c2.5-1.6,5.3-3.2,5.5-3.3l0,0l9.7-0.7
					c0.8,0,1.5,0,2.3,0l0,0c0,0,8.4-0.2,11,0.7c0.9,0.3,1,1.1,1.7,1.8l0,0c0.6,0.2,25.2,14.2,33.3-21.9c0.1-0.3,0.3-0.5,0.6-0.6h3.7
					c0.4,0,0.6,0.3,0.6,0.6l0,0c0.1,4.8,0.1,29.4-34,38.3c-1.4,0.4-2.7,1.1-3.7,2.2c-0.5,0.6-6.5,11.3-6.5,21c0,4.8,1.5,17,0.4,27.8
					c-0.6,6.5-24.2,1.4-29.4,0.2c-0.6-0.1-1-0.6-1.1-1.3L711.3,226z"/>
				
					<radialGradient id="face_1_" cx="375.2161" cy="-75.6109" r="45.3203" gradientTransform="matrix(0.65 0 0 0.65 506.22 189.385)" gradientUnits="userSpaceOnUse">
					<stop  offset="0" style="stop-color:#FFBE9B"/>
					<stop  offset="1" style="stop-color:#D47D69"/>
				</radialGradient>
				<path id="face" class="st17" d="M739.8,139.9c0.6-0.4,1.5-0.2,1.9,0.4c0.1,0.1,0.1,0.3,0.2,0.4c0.4,1.6,0.6,3.3,0.5,5
					c0,0-0.4,5-1.1,7.1c-0.2,0.4-0.4,0.9-0.9,1.1c-2.4,0.6-1.7,0.5-2,2.6l0,0c-0.1,0.7-0.7,1.3-1.4,1.2l-9.1-0.4
					c-0.8,0-1.4-0.7-1.3-1.4c0,0,0,0,0,0c0.1-0.8,0.1-1.6,0.1-2.4c-0.2-1.2-0.4-2.4-0.6-3.5c-0.1-0.6,0.1-1.1,0.6-1.5L739.8,139.9z"
					/>
				<path id="path54" class="st15" d="M725.4,136.5c0,0,3.1-4,7.7-4.4c0,0,3.5-0.3,5.8,1.4l0.1,0c0.9,0.7,1.7,1.5,2.4,2.4
					c0.1,0.2,0.2,0.5,0.2,0.7c0,1.7-0.4,3.3-1.3,4.7c-0.8,1-1.3,2.2-1.5,3.5c0,0.1,0,0.2,0,0.3c0,1,0.2,7.6,0.9,10.1
					c0.4,1.4,0.7,2.8,1,4.3c0.1,0.6-0.2,1.2-0.8,1.5c-2.1,1-7.6,2.9-16.4,0.1c-0.6-0.2-1-0.8-1-1.5c0.4-3.2,1.3-12.5,1.1-16.9
					c0,0,0-0.1,0-0.1C723.7,141.9,723.9,138,725.4,136.5z"/>
			</g>
			<path class="st18" d="M781.6-27.7l75,75c7.2,7.2,7.2,18.8,0,26l-75,75c-7.2,7.2-18.8,7.2-26,0l-75-75c-7.2-7.2-7.2-18.8,0-26
				l75-75C762.8-34.9,774.4-34.9,781.6-27.7z"/>
			<path class="st19" d="M728,27.2l7.5-7.5l86.9,38.8l-12.8,12.8l-58-27.9l27.9,58l-12.7,12.7L728,27.2z M756.9,81.1L789.9,48
				l11.4,11.4l-33.1,33.1L756.9,81.1z"/>
			<g class="st20">
				<path class="st21" d="M929.7,526.6h106.1c10.1,0,18.4,8.2,18.4,18.4V651c0,10.1-8.2,18.4-18.4,18.4H929.7
					c-10.1,0-18.4-8.2-18.4-18.4V545C911.3,534.8,919.5,526.6,929.7,526.6z"/>
				<path class="st19" d="M952.1,552.6h16.8l0.1,88.9h-16.8L952.1,552.6z M958.2,552.6h53.5v16.1h-53.5V552.6z M958.2,589.3h46.8
					v16.1h-46.8V589.3z M958.2,625.4h53.5v16.1h-53.5V625.4z"/>
			</g>
			<path class="st22" d="M1079.7,528.9h106.1c10.1,0,18.4,8.2,18.4,18.4v106.1c0,10.1-8.2,18.4-18.4,18.4h-106.1
				c-10.1,0-18.4-8.2-18.4-18.4V547.2C1061.4,537.1,1069.6,528.9,1079.7,528.9z"/>
			<path class="st19" d="M1105.3,554.8h16.8v88.9h-16.8V554.8z M1112.6,627.6h28.4c3.8,0,6.8-0.9,8.9-2.8c2.1-1.9,3.2-4.5,3.2-7.8
				v-0.2c0.1-2-0.4-4-1.4-5.7c-1-1.6-2.4-2.9-4.1-3.6c-2.1-0.9-4.3-1.3-6.5-1.3h-28.4v-16.1h28.4c3.5,0,6.2-0.9,8-2.6
				c1.9-1.7,2.8-4.2,2.8-7.4c0.1-2.5-0.9-5-2.8-6.7c-1.9-1.6-4.6-2.4-8-2.4h-28.4v-16.2h28.9c5.1-0.1,10.1,0.8,14.7,2.8
				c3.9,1.7,7.1,4.6,9.3,8.3c2.2,4,3.3,8.4,3.2,13c0.1,3.2-0.6,6.3-2,9.2c-1.4,2.7-3.4,4.9-6,6.6c-2.9,1.8-6.1,3-9.4,3.5
				c3.6,0.4,7.1,1.6,10.1,3.6c2.7,1.8,4.9,4.3,6.4,7.2c1.5,3.2,2.3,6.8,2.2,10.3v0.2c0.1,4.6-1,9.1-3.2,13.1
				c-2.2,3.7-5.5,6.6-9.4,8.3c-4.7,2-9.7,3-14.8,2.8h-30V627.6z"/>
			<g class="st23">
				<path class="st24" d="M1246.5,581.1h106.1c10.1,0,18.4,8.2,18.4,18.4v106.1c0,10.1-8.2,18.4-18.4,18.4h-106.1
					c-10.1,0-18.4-8.2-18.4-18.4V599.4C1228.2,589.3,1236.4,581.1,1246.5,581.1z"/>
				<path class="st19" d="M1270.5,602.3l16.8,0.1l-0.8,88.9l-16.8-0.1L1270.5,602.3z M1276.3,639.9l45.6,0.4l-0.1,16.1l-45.6-0.4
					L1276.3,639.9z M1276.7,602.4l52.3,0.5l-0.1,16.1l-52.3-0.5L1276.7,602.4z"/>
			</g>
			<g class="st25">
				<path class="st21" d="M997.9,378.2H1104c10.1,0,18.4,8.2,18.4,18.4v106.1c0,10.1-8.2,18.4-18.4,18.4H997.9
					c-10.1,0-18.4-8.2-18.4-18.4V396.5C979.6,386.4,987.8,378.2,997.9,378.2z"/>
				<path class="st19" d="M1041.6,493.1l-7.2-3.9c-4.8-2.5-8.6-6.5-11-11.3c-2.5-5-3.8-10.9-3.8-18v-24.4c0-7,1.3-13,3.8-18
					c2.4-4.8,6.3-8.8,11-11.3c4.8-2.6,10.6-3.9,17.4-3.9c5.2-0.1,10.4,1.2,15,3.6c4.5,2.5,8.2,6.1,10.9,10.5
					c3.1,5.1,5.1,10.7,6,16.6h-17.4c-0.5-2.7-1.6-5.2-3-7.5c-1.2-2-2.9-3.6-5-4.8c-2-1.1-4.2-1.7-6.5-1.6c-2.8-0.1-5.6,0.6-8,1.9
					c-2.2,1.3-4,3.3-5,5.6c-1.2,2.8-1.8,5.8-1.7,8.9V460c-0.1,3,0.5,6.1,1.7,8.9c1.1,2.3,2.8,4.3,5,5.6c2.5,1.3,5.2,2,8,1.9
					c2.3,0,4.6-0.5,6.6-1.6c2-1.1,3.7-2.8,5-4.7c1.4-2.3,2.4-4.9,2.9-7.6h17.4c-0.9,5.9-3,11.5-6,16.6c-2.7,4.4-6.4,8-10.9,10.4
					c-4.6,2.5-9.7,3.7-14.9,3.6L1041.6,493.1z"/>
			</g>
			
				<radialGradient id="path82_1_" cx="1398.9827" cy="577.9715" r="18.6208" gradientTransform="matrix(0.65 0 0 0.65 465.16 199.575)" gradientUnits="userSpaceOnUse">
				<stop  offset="0" style="stop-color:#FFBE9B"/>
				<stop  offset="1" style="stop-color:#D47D69"/>
			</radialGradient>
			<path id="path82" class="st26" d="M1369.7,581.9l-4-0.9l-4.1,1.4c-0.2,0.1-0.4,0.3-0.3,0.6c0,0.1,0.1,0.2,0.2,0.3
				c0.6,0.3,1.2,0.5,1.9,0.4c1-0.2,1.3-0.3,1.4-0.4c1.4,0.4,2.6,1.3,3.3,2.5c0.2,0.5,0.3,0.9,0.2,1.4c0,0.7-0.1,1.4-0.2,2.1l1.7-0.9
				L1369.7,581.9z"/>
			<path id="path60" class="st27" d="M1406.7,549.2c-1.4,0-3.1,0.8-5.2,4.6c-5.4,9.7,4.4,28-31.7,28v5.6c0,0,33.4,1.2,42-19
				C1413.7,563.9,1417.2,549,1406.7,549.2z"/>
			<path id="path62" class="st28" d="M1412.1,705.6c0.4,0.8,0.5,1.8,0.4,2.7h-6.7c0,0-0.5-0.7,0.3-1.3l2.3-1.6L1412.1,705.6z"/>
			<path id="path64" class="st29" d="M1417,705.5c0.6,1,0.9,2.1,0.7,3.2h-10.6c0,0-0.9-0.7,0.5-1.5l3.6-1.7H1417z"/>
			
				<radialGradient id="path66_1_" cx="1498.4156" cy="474.8474" r="96.6647" gradientTransform="matrix(0.65 0 0 0.65 465.16 199.575)" gradientUnits="userSpaceOnUse">
				<stop  offset="0" style="stop-color:#FFBE9B"/>
				<stop  offset="1" style="stop-color:#D47D69"/>
			</radialGradient>
			<path id="path66" class="st30" d="M1399,518.9c-0.7,1-1.1,2.1-1.4,3.2c-1,4.1-0.7,8.3,0.9,12.2c0.7,1.6,0.2,2.8,1.9,3
				c0.5,0.1,1,0.1,1.5-0.1c0.6-0.1,1.2,0.2,1.5,0.7c0.3,0.6,0.5,1.2,0.5,1.9v2.2h9.7l0.1-5.8l-10.2-16.1L1399,518.9z"/>
			<path id="path68" class="st15" d="M1396.5,516.2c0,0-0.5,0.3-0.5,0.7c0,0.8,0.4,3,1.8,3.3c0.8,0.1,1.5,0.5,2,1
				c0.9,0.9,1.8,1.8,2.6,2.8c0.5,0.7,0.8,1.4,0.9,2.3c0.1,0.9,0.3,2.3,1,2.5c0.3,0.1,0.6-0.1,0.7-0.4l0,0c0.2-1.6,2.2-1.4,2.2-0.2
				c0,2-0.6,2.4-0.4,3.6c0.3,1.8,3,3.8,5.2,4.8c3.1,1.4,3.6-4.8,3.7-7.3c0,0,0.4-5.4-0.4-8c-0.7-2.3-2.9-4.2-4.3-5.1s-3.9-1-6.6-0.8
				C1401.6,515.7,1396.5,516.3,1396.5,516.2L1396.5,516.2z"/>
			<path id="path70" class="st15" d="M1408.3,705.9c4.5,0.9,9.7-0.6,9.7-0.6c-1-23.6-2.2-46.3,2.6-67.6c2.5-11.1,5.7-2.8,5.7-26.4
				l-24.5-0.5l1.4,7.3c1.5,4.2,0.6,10.4,0.6,14.9c0.1,11.5-0.5,21.6,0.1,33.1l4.4,38.5V705.9z"/>
			<path id="path72" class="st31" d="M1404.4,542.1c-0.9,0.1-1.8,2-2.8,4.5c-2.4,6.4-3.3,13.2-2.6,20c1.1,11.5,3,32.1,3,40.8
				c0,2.2-1.2,4.4-0.4,5.4c4.6,6.2,21.2,3.8,24.8,0c0.9-1-0.6-2.6-1-5.2c-1.9-12.6-1.9-41.8-6.5-58.7c-0.9-3.2-1.9-6.1-5.2-6.7
				C1410.6,541.6,1407.5,541.6,1404.4,542.1z"/>
			<path id="path76" class="st32" d="M1397,527.2l9-0.4c0,0,1.6,0,1.8,1.4"/>
			<path id="path80" class="st27" d="M1408.5,551.1c0.6-0.5,1.2-1,1.8-1.5c1.8-1.4,4.5-1.1,5.9,0.8c0,0,0,0,0,0
				c0.1,0.1,0.2,0.3,0.3,0.4v0.1c0.6,1.1,0.7,2.4,0.4,3.7c-0.4,1.3-1,2.6-1.8,3.7c-2.2,3.3-13.3,19.2-22.5,26.7
				c-9.3,7.5-25.3,15.7-25.3,15.7l-2.1-4.3c8.6-5.1,16.5-11.3,23.5-18.4c5.8-5.8,9-10.6,15.4-21.5
				C1405.1,554.4,1406.7,552.6,1408.5,551.1z"/>
			
				<radialGradient id="path78_1_" cx="1158.9116" cy="177.2051" r="20.3445" gradientTransform="matrix(0.38 0.52 -0.52 0.38 1019.38 -61.86)" gradientUnits="userSpaceOnUse">
				<stop  offset="0" style="stop-color:#FFBE9B"/>
				<stop  offset="1" style="stop-color:#D47D69"/>
			</radialGradient>
			<path id="path78" class="st33" d="M1364.9,596.4l-2.4-0.8c-0.2-0.1-0.4-0.1-0.5,0.1l-1.2,0.7c-0.2,0.1-0.3,0.3-0.2,0.6l0,0
				c0.1,0.2,0.3,0.3,0.5,0.3h1.7l-0.9,0.4l2,5.5l3.2-2.1L1364.9,596.4z"/>
			<path id="path42" class="st28" d="M764.4,706.4c-0.8,1.7-1.1,3.5-0.9,5.4h15.7c0,0,1.3-1.3-0.8-2.7l-5.3-3.2L764.4,706.4z"/>
			<path id="path44" class="st29" d="M751.4,703.5c-1.3,1.4-2.9,3.6-3,6l22,4.9c0,0,2.1-1-0.4-3.2l-6.7-5.2L751.4,703.5z"/>
			
				<radialGradient id="path46_1_" cx="855.0514" cy="1037.0172" r="101.1828" gradientTransform="matrix(0.46 0.46 -0.46 0.46 936.22 -327.92)" gradientUnits="userSpaceOnUse">
				<stop  offset="0" style="stop-color:#FFBE9B"/>
				<stop  offset="1" style="stop-color:#D47D69"/>
			</radialGradient>
			<path id="path46" class="st34" d="M854.5,535.1c-0.2,1.3-0.7,2.6-1.4,3.7c-2.4,4-6,7.1-10.3,9c-1.8,0.8-2.4,2.1-3.9,0.9
				c-0.5-0.3-0.9-0.8-1.2-1.3c-0.4-0.6-1.1-0.8-1.7-0.6c-0.7,0.2-1.4,0.6-1.9,1.1l-1.7,1.7l-7.8-7.6l4-4l21.4-5.5L854.5,535.1z"/>
			<path id="path48" class="st15" d="M857.5,536.1c0,0,0.2,0.6-0.1,0.9c-0.7,0.6-1.6,1-2.9,0.1c-0.7-0.5-1.5-0.8-2.4-0.8
				c-1.4-0.1-2.8,0-4.2,0.2c-0.9,0.1-1.8,0.5-2.5,1.1c-0.8,0.7-2,1.5-2.8,1.2c-0.3-0.1-0.3-0.4-0.2-0.7c0.3-0.6,0-1.3-0.7-1.6
				c-0.5-0.2-1-0.1-1.4,0.3c-0.5,0.6-0.9,1.3-1.3,2c-1,2.2-5.8,2.6-8.5,1.6c-3.5-1.4-3.2-1.3-2-4c1.2-2.3,2.6-4.3,4.4-6.2
				c0,0,4-4.6,6.7-6.1c2.4-1.2,5.6-1.1,7.4-0.6s3.9,2.3,5.9,4.6C854.9,530.3,857.5,536.1,857.5,536.1z"/>
			<path id="path50" class="st35" d="M773.4,704.7c-5,0.9-10.8-0.7-10.8-0.7c1.1-26.5,24.9-46.1,16.9-69.1
				c-3.8-11.1-33.1-34.6-20.9-46.7l22.1,10.2l-1.6,8.1c4.5,10.2,8.5,16.3,10.5,20.3c6.1,12.1,6.8,11.3,6.1,24.2l-22.2,52.3
				L773.4,704.7z"/>
			<path id="path50-2" class="st15" d="M764.8,704.3c-5,0.6-10.7-1.6-10.7-1.6c3.2-26.3,28.4-44,22.3-67.6
				c-3-11.3-30.3-37-17.2-48.2l21.2,11.9l-2.2,8c3.6,10.6,7.2,16.9,8.9,21.1c5.1,12.6,5.9,11.8,4.1,24.6l-26.3,50.4L764.8,704.3z"/>
			<path id="path52" class="st36" d="M830.9,548.1c0.5,0.7-0.2,3-1.5,5.6c-3.3,6.9-8,12.9-13.8,17.8c-10,8.3-27.6,23.2-34.4,30.1
				c-1.7,1.7-2.5,4.4-4,4.6c-8.3,1.5-18.8-12.6-18.5-18.4c0.1-1.4,2.5-1.6,4.9-3.4c11.3-8.5,34.5-31.8,51.2-41.8
				c3.2-1.9,6.3-3.5,9.1-1.4C826.6,543.1,829,545.5,830.9,548.1L830.9,548.1z"/>
			
				<radialGradient id="path58_1_" cx="2383.9028" cy="1093.698" r="28.8671" gradientTransform="matrix(-0.61 0.22 -0.22 -0.61 2451.72 685.465)" gradientUnits="userSpaceOnUse">
				<stop  offset="0" style="stop-color:#FFBE9B"/>
				<stop  offset="1" style="stop-color:#D47D69"/>
			</radialGradient>
			<path id="path58" class="st37" d="M764.1,545.3l-1.5,1.5c-0.4,0.4-0.9,0.7-1.5,0.9l-3.2,1l-0.1-0.1c-0.6-0.4,0.8-1.9,1.5-2.1
				l-0.4,0.2c0,0-2.4,0.1-4.8,0.1c-0.4,0-0.8-0.2-1-0.6c-0.5-0.6-0.9-1.2-1.2-1.8c-0.2-0.5-0.1-0.9-0.3-1.4
				c-0.3-1.1,0.4-2.2,1.6-2.5c0,0,0.1,0,0.1,0l8.7-1.3L764.1,545.3z"/>
			<path id="path54-2" class="st38" d="M816.4,565.4c-2.2,0.6-4.5-2.6-7.3-6.7c-7-10.4-7.1-27.2-45-13.4l-2.2-5.9
				c0,0,37.7-15.9,52.3,3.7C818,548.2,826.9,562.7,816.4,565.4z"/>
			
				<image style="overflow:visible;opacity:0.18;enable-background:new    ;" width="258" height="56" xlink:href="1E0EE800.png"  transform="matrix(0.8705 0 0 0.8705 507.6369 581.7768)">
			</image>
			<polygon points="518.8,600.7 516,603.2 519.1,604.2 			"/>
			
				<linearGradient id="SVGID_1_" gradientUnits="userSpaceOnUse" x1="1479.9979" y1="-2622.7292" x2="1513.5225" y2="-2583.3547" gradientTransform="matrix(-0.2954 0.9554 0.9554 0.2954 3461.8691 -56.5874)">
				<stop  offset="0" style="stop-color:#FFFFFF"/>
				<stop  offset="0.63" style="stop-color:#A67C52"/>
			</linearGradient>
			<polygon class="st39" points="533.4,587.7 518,601.4 518.8,602.1 518.5,603 518.8,603.6 518.7,604.1 539.4,609.5 537.9,590.6 
				536.2,588.1 533.9,587.8 			"/>
			
				<linearGradient id="SVGID_2_" gradientUnits="userSpaceOnUse" x1="1434.6422" y1="-2519.6304" x2="1499.7952" y2="-2519.6304" gradientTransform="matrix(-0.2954 0.9554 0.9554 0.2954 3461.8691 -56.5874)">
				<stop  offset="0" style="stop-color:#CCE0F4"/>
				<stop  offset="6.000000e-002" style="stop-color:#C3DCF2"/>
				<stop  offset="0.17" style="stop-color:#A9D2EE"/>
				<stop  offset="0.31" style="stop-color:#80C2E7"/>
				<stop  offset="0.46" style="stop-color:#47ACDE"/>
				<stop  offset="0.57" style="stop-color:#1E9CD7"/>
				<stop  offset="0.87" style="stop-color:#0075BE"/>
				<stop  offset="0.99" style="stop-color:#005B97"/>
			</linearGradient>
			<path class="st40" d="M704.1,592.8l-168.8-5l-3.5,6.7l5.4,3.1l-4.5,3.5l4.8,3.4l-3.5,3.3l5.3,1.6l169.4-6.5c0,0,7.3-1.6,3-6.4
				C707.3,591.9,704.1,592.8,704.1,592.8z"/>
			
				<image style="overflow:visible;opacity:0.18;enable-background:new    ;" width="258" height="56" xlink:href="1E0EE80D.png"  transform="matrix(0.8705 0 0 0.8705 446.6992 543.473)">
			</image>
			<polygon points="649.6,557.7 652.5,555.1 649.3,554.2 			"/>
			
				<linearGradient id="SVGID_3_" gradientUnits="userSpaceOnUse" x1="1180.0098" y1="-123.3108" x2="1213.5343" y2="-83.9363" gradientTransform="matrix(0.2954 -0.9554 -0.9554 -0.2954 183.131 1666.6874)">
				<stop  offset="0" style="stop-color:#FFFFFF"/>
				<stop  offset="0.63" style="stop-color:#A67C52"/>
			</linearGradient>
			<polygon class="st41" points="635,570.7 650.4,556.9 649.7,556.2 650,555.3 649.6,554.7 649.8,554.3 629.1,548.9 630.5,567.8 
				632.2,570.3 634.6,570.5 			"/>
			
				<linearGradient id="SVGID_4_" gradientUnits="userSpaceOnUse" x1="1134.5905" y1="-20.1452" x2="1199.7509" y2="-20.1452" gradientTransform="matrix(0.2954 -0.9554 -0.9554 -0.2954 183.131 1666.6874)">
				<stop  offset="0" style="stop-color:#CCE0F4"/>
				<stop  offset="6.000000e-002" style="stop-color:#C3DCF2"/>
				<stop  offset="0.17" style="stop-color:#A9D2EE"/>
				<stop  offset="0.31" style="stop-color:#80C2E7"/>
				<stop  offset="0.46" style="stop-color:#47ACDE"/>
				<stop  offset="0.57" style="stop-color:#1E9CD7"/>
				<stop  offset="0.87" style="stop-color:#0075BE"/>
				<stop  offset="0.99" style="stop-color:#005B97"/>
			</linearGradient>
			<path class="st42" d="M464.3,565.5l168.8,5l3.5-6.7l-5.4-3.1l4.5-3.5l-4.8-3.4l3.5-3.3l-5.3-1.6l-169.4,6.5c0,0-7.3,1.6-3,6.4
				S464.3,565.5,464.3,565.5z"/>
			
				<linearGradient id="SVGID_5_" gradientUnits="userSpaceOnUse" x1="146.3941" y1="-2068.4309" x2="203.101" y2="-2068.4309" gradientTransform="matrix(2.216381e-002 0.9998 0.9998 -2.216381e-002 2668.6333 388.1768)">
				<stop  offset="0.58" style="stop-color:#BC83BA"/>
				<stop  offset="0.72" style="stop-color:#B06CAE"/>
				<stop  offset="0.89" style="stop-color:#A356A1"/>
				<stop  offset="1" style="stop-color:#9F4E9D"/>
			</linearGradient>
			<polygon class="st43" points="684.4,606.4 525.9,609.9 524.7,609.9 525.1,628.6 684.8,625.1 			"/>
			<polygon points="521.6,610 504.7,620.4 522.1,628.7 			"/>
			<polygon points="685.2,605.9 685.6,625.3 688.4,625.2 688,605.5 685.2,605.6 			"/>
			
				<linearGradient id="SVGID_6_" gradientUnits="userSpaceOnUse" x1="175.6626" y1="-1970.9502" x2="191.3808" y2="-1970.9502" gradientTransform="matrix(2.216381e-002 0.9998 0.9998 -2.216381e-002 2668.6333 388.1768)">
				<stop  offset="0.58" style="stop-color:#BC83BA"/>
				<stop  offset="0.72" style="stop-color:#B06CAE"/>
				<stop  offset="0.89" style="stop-color:#A356A1"/>
				<stop  offset="1" style="stop-color:#9F4E9D"/>
			</linearGradient>
			<path class="st44" d="M689.7,607.8l19.3-0.4c0,0,12.3,7.7,0.3,15.7l-19.3,0.4L689.7,607.8z"/>
			<polygon points="693.3,625.1 691.5,625.2 691.5,627 678.7,627.3 625.8,628.4 625.8,631.5 693.4,630 			"/>
			
				<image style="overflow:visible;opacity:0.18;enable-background:new    ;" width="258" height="56" xlink:href="1E0EE80E.png"  transform="matrix(0.8705 0 0 0.8705 370.0917 603.5403)">
			</image>
			<polygon points="573,617.7 575.8,615.2 572.7,614.2 			"/>
			
				<linearGradient id="SVGID_7_" gradientUnits="userSpaceOnUse" x1="1100.0015" y1="-67.8265" x2="1133.526" y2="-28.452" gradientTransform="matrix(0.2954 -0.9554 -0.9554 -0.2954 183.131 1666.6874)">
				<stop  offset="0" style="stop-color:#FFFFFF"/>
				<stop  offset="0.63" style="stop-color:#A67C52"/>
			</linearGradient>
			<polygon class="st45" points="558.4,630.7 573.8,617 573,616.3 573.3,615.4 573,614.8 573.1,614.3 552.4,608.9 553.9,627.8 
				555.6,630.3 557.9,630.6 			"/>
			
				<linearGradient id="SVGID_8_" gradientUnits="userSpaceOnUse" x1="1054.5336" y1="35.356" x2="1119.6906" y2="35.356" gradientTransform="matrix(0.2954 -0.9554 -0.9554 -0.2954 183.131 1666.6874)">
				<stop  offset="0" style="stop-color:#CCE0F4"/>
				<stop  offset="6.000000e-002" style="stop-color:#C3DCF2"/>
				<stop  offset="0.17" style="stop-color:#A9D2EE"/>
				<stop  offset="0.31" style="stop-color:#80C2E7"/>
				<stop  offset="0.46" style="stop-color:#47ACDE"/>
				<stop  offset="0.57" style="stop-color:#1E9CD7"/>
				<stop  offset="0.87" style="stop-color:#0075BE"/>
				<stop  offset="0.99" style="stop-color:#005B97"/>
			</linearGradient>
			<path class="st46" d="M387.7,625.6l168.8,5l3.5-6.7l-5.3-3.1l4.5-3.5l-4.8-3.4l3.5-3.3l-5.3-1.6L383,615.4c0,0-7.3,1.6-3,6.4
				C384.5,626.5,387.7,625.6,387.7,625.6z"/>
			
				<linearGradient id="SVGID_9_" gradientUnits="userSpaceOnUse" x1="614.8223" y1="408.5701" x2="671.538" y2="408.5701" gradientTransform="matrix(-2.216381e-002 -0.9998 -0.9998 2.216381e-002 976.3667 1221.9132)">
				<stop  offset="0.58" style="stop-color:#BC83BA"/>
				<stop  offset="0.72" style="stop-color:#B06CAE"/>
				<stop  offset="0.89" style="stop-color:#A356A1"/>
				<stop  offset="1" style="stop-color:#9F4E9D"/>
			</linearGradient>
			<polygon class="st47" points="473.8,590.3 632.3,586.8 633.5,586.8 633.1,568.1 473.4,571.6 			"/>
			<polygon points="636.6,586.7 653.5,576.3 636.2,568 			"/>
			<polygon points="473,590.8 472.6,571.4 469.8,571.4 470.2,591.1 473.1,591.1 			"/>
			
				<linearGradient id="SVGID_10_" gradientUnits="userSpaceOnUse" x1="644.0825" y1="506.0536" x2="659.7957" y2="506.0536" gradientTransform="matrix(-2.216381e-002 -0.9998 -0.9998 2.216381e-002 976.3667 1221.9132)">
				<stop  offset="0.58" style="stop-color:#BC83BA"/>
				<stop  offset="0.72" style="stop-color:#B06CAE"/>
				<stop  offset="0.89" style="stop-color:#A356A1"/>
				<stop  offset="1" style="stop-color:#9F4E9D"/>
			</linearGradient>
			<path class="st48" d="M468.5,588.9l-19.3,0.4c0,0-12.3-7.7-0.3-15.7l19.3-0.4L468.5,588.9z"/>
			<polygon points="464.9,571.5 466.7,571.5 466.7,569.7 479.5,569.4 532.5,568.2 532.4,565.2 464.8,566.7 			"/>
			<rect x="413.5" y="627.8" class="st49" width="287.9" height="68.7"/>
			<circle cx="460.1" cy="693.8" r="45.3"/>
			<circle cx="654.1" cy="693.8" r="45.3"/>
			<line class="st50" x1="762.1" y1="544.5" x2="701.4" y2="633.2"/>
		</g>
	</g>
</g>
<g>
	<g>
		<path d="M483.4-129.6c-2.1,0.5-4,0.9-5.7,1.5c-4.3,1.5-8.1,3.9-11.4,7.1c-2.8,2.7-5.9,5-9.2,6.9c-3.2,1.9-6.8,2.5-10.4,2.2
			c-0.8-0.1-1.5,0-2.3,0.1c2.2,0.9,4.5,1,6.9,1.2c-3.4,1.1-6.9,1.3-10.3,1.7c1.6,0.6,3.3,0.7,5.1,0.8c-2.5,0.8-5,0.9-7.6,0.8
			c0.8,0.5,1.7,0.6,2.6,0.9c0,0.4-0.3,0.3-0.5,0.3c-3.8,0.8-7.6,1.1-11.5,0.9c-0.6,0-1.1,0.2-1.4,0.7c-0.7,1.1-1.4,2.3-2.1,3.5
			c0.5,0.2,1,0.1,1.5,0.1c1.4,0,2.7,0.1,4.1,0.1c0.9,0,1.4,0.5,1.3,1.4c0,1.2,0,2.3,0,3.5c0,1.5-0.3,1.8-1.8,2c-2,0.3-3.4,1.3-4,3.2
			c-0.3,0.9-0.1,1.4,0.8,1.9c4.9,2.9,9.7,5.9,14.6,8.7c2.3,1.2,3.1,2.6,3,5.2c-0.2,5.2,0,10.5,0,15.8c0,1.8-0.1,3.6-0.1,5.4
			c0,1.1-0.3,1.4-1.4,1.4c-21.3,0-42.7,0-64,0c-1,0-1.5-0.4-1.5-1.4c0-6-0.1-12.1,0.1-18.1c0-1.7,0.1-3.5,0.1-5.2
			c0-0.9,0.3-1.3,1-1.7c3.8-2.3,7.7-4.6,11.5-6.9c1.8-1.1,3.5-2.1,5.3-3.2c0.4-0.2,0.5-0.5,0.5-0.9c0-2-1.7-3.8-3.8-4
			c-1.8-0.2-2-0.4-2-2.1c0-1,0-2,0-2.9c0-1.7,0.3-2,2-2c10,0,19.9,0,29.9,0c0.7,0,1-0.2,1.3-0.8c7.8-14,20-22.1,35.2-26.1
			c0.7-0.2,1.3-0.4,1.9-0.7c-15.7,2.8-28.5,10.2-37.2,24.1c0.1-0.3,0.1-0.6,0.2-0.8c0.1-0.3,0.2-0.6,0.2-0.8c0.2-1,0.3-2,0-3
			c-1-3.4-0.8-6.6,1.6-9.7c-0.1,1.1-0.2,1.8-0.3,2.6c1.6-1.9,2.6-4.2,4.7-5.8c0,0.8-0.5,1.5-0.5,2.5c2.1-2.1,3.8-4.5,6.4-6.3
			c-1,1.5-1.8,2.7-2.8,4.1c0.8-0.2,1.1-0.6,1.4-0.9c3.1-3.1,6.6-5.6,10.7-7.2c2.9-1.1,5.9-1.7,8.9-2.1c3.2-0.4,6.4-1.1,9.6-1.1
			c5.6,0.1,11.3,0,16.7,1.7c0.6,0.2,1.1,0.5,1.7,0.7C482.6-130.1,482.8-129.9,483.4-129.6z"/>
		<path class="st51" d="M391.7-36.8c-1.5,0-3.1-0.1-4.6,0.3c-0.7,0.2-1.2,0.4-1.4,1.1c-0.2,0.8,0.4,1.1,1,1.3
			c0.8,0.4,1.4,0.9,2.2,1.2c2,0.5,3.6-0.4,5.3-1c0.4-0.2,0.7-0.6,1.1-0.1c0.4,0.5-0.1,0.8-0.4,1.1c-1.9,1.8-5.5,1.8-7.8,0.5
			c-1.9-1.2-2.6-3.1-3.1-5c-0.2-0.6,0.1-1.1,0.3-1.6c0.7-1.6,1.5-2.9,3.6-3.2c1.4-0.2,2.6-0.6,4.1-0.4c2.2,0.4,3.7,1.9,4,4.1
			c0.1,0.8-0.6,1.6-1.4,1.6C393.6-36.8,392.6-36.8,391.7-36.8z"/>
		<path class="st51" d="M431.7-36.8c-1.5,0.1-3.2-0.2-4.9,0.2c-1.1,0.2-1.8,0.6-1.8,1.4c0,0.4,0.1,0.7,0.5,1c2.5,2,5.1,1.9,7.9,0.5
			c0.2-0.1,0.3-0.2,0.4-0.2c0.3-0.1,0.6-0.2,0.9,0.1c0.2,0.3,0.1,0.6-0.2,0.9c-1.1,1-2.4,1.5-3.8,1.7c-2.1,0.3-3.8-0.5-5.3-1.8
			c-1.6-1.3-2.2-4.8-1.2-6.6c0.7-1.2,1.5-2.1,3-2.3c1.4-0.2,2.6-0.7,4.1-0.4c2.4,0.4,3.9,1.9,4.2,4.3c0.1,0.6-0.5,1.4-1.3,1.4
			C433.3-36.7,432.6-36.8,431.7-36.8z"/>
		<path class="st51" d="M420.4-39.5c-0.8-0.2-1.1-0.7-1.5-1.1c-1.8-2.1-3.5-1.5-5,0.4c-0.6,0.7-0.9,1.6-1.2,2.4
			c0,0.2-0.1,0.3-0.1,0.5c0.1,1.2,2.1,3.3,3.4,3.5c1.6,0.3,3.2-0.7,3.9-2.2c0.3-0.6,0-1.3,0.3-1.9c0.1-0.2,0.2-0.6,0.4-0.6
			c0.3,0,0.5,0.4,0.4,0.7c-0.3,1.8-0.6,3.7-2.3,4.8c-0.6,0.4-1.2,0.6-1.9,0.4c-0.9-0.2-1.7-0.4-2.5-0.6c-0.8-0.2-1,0.1-1.1,0.8
			c-0.2,1.4,0.5,2.2,1.8,2.5c0.4,0.1,1.1-0.1,1.2,0.4c0,0.6-0.7,0.8-1.2,0.9c-1.6,0.2-3.2,0.3-4.8,0.4c-0.3,0-0.5-0.1-0.6-0.4
			c-0.1-0.3,0-0.5,0.2-0.7c0.3-0.3,0.7-0.6,1.1-0.8c0.7-0.3,1-0.8,0.9-1.5c-0.2-1.6,0.2-3.3-0.1-4.9c-0.2-1.2,0.1-2.5,0-3.7
			c-0.1-0.8-0.3-1.3-1.2-1.3c-0.1,0-0.3,0-0.4-0.1c-0.3-0.1-0.7,0-0.6-0.5c0.1-0.4,0.4-0.4,0.7-0.4c0.6,0,1.2,0,1.8,0.3
			c1,0.5,2,0.4,3-0.1c1.7-0.8,3.1-0.3,4.4,0.7C420.1-41,420.2-40.3,420.4-39.5z"/>
		<path class="st51" d="M407.6-39.5c-0.7-0.5-1.2-0.9-1.6-1.4c-1-1.1-2.4-1.2-3.5-0.3c-1.1,0.9-1.7,2.1-2.2,3.4
			c-0.3,0.9,0.3,1.4,0.6,2c1.1,1.9,3,2.6,4.7,1.7c1-0.5,1.8-1.3,1.9-2.6c0-0.3,0.1-0.7,0.2-1.1c0.1-0.2,0.1-0.7,0.5-0.6
			c0.3,0.1,0.4,0.5,0.3,0.7c-0.3,1.8-0.7,3.6-2.3,4.8c-0.5,0.4-1.2,0.6-1.8,0.4c-0.8-0.2-1.6-0.4-2.5-0.6c-0.9-0.2-1.3,0-1.4,1
			c-0.1,1.2,0.7,2,2,2.3c0.4,0.1,1.1-0.1,1.1,0.4c0,0.5-0.6,0.8-1.1,0.8c-1.6,0.3-3.3,0.3-4.9,0.4c-0.3,0-0.5-0.1-0.6-0.3
			c-0.2-0.3,0.1-0.5,0.2-0.7c0.4-0.5,0.9-0.7,1.4-1c0.4-0.2,0.7-0.5,0.7-1c0-3-0.1-6-0.1-9.1c0-0.8-0.3-1.2-1.1-1.2
			c-0.2,0-0.4-0.1-0.6-0.1c-0.2-0.1-0.5-0.2-0.4-0.5c0-0.3,0.2-0.4,0.5-0.4c0.7,0,1.4,0,2,0.3c1,0.5,2,0.4,3-0.1
			c1.6-0.8,3-0.2,4.3,0.7C407.5-41,407.8-40.4,407.6-39.5z"/>
		<path class="st51" d="M380.6-39.4c-0.5-0.5-0.9-1-1.3-1.5c-1.3-1.3-2.6-1.4-4-0.1c-0.3,0.3-0.6,0.6-0.9,1c-1.4,2-1.2,3.4,0.5,5.2
			c1,1,2.2,1.2,3.5,0.8c1.4-0.5,2.2-1.5,2.4-2.9c0-0.3,0-0.7,0.1-1c0.1-0.2,0.1-0.7,0.5-0.6c0.3,0,0.4,0.4,0.4,0.7
			c0.2,1.3-1.3,4.3-2.5,4.9c-0.8,0.5-1.7,0.3-2.5,0.1c-0.5-0.1-1.1-0.3-1.6-0.4c-0.9-0.2-1.3,0.1-1.3,1.1c0,1.2,0.6,1.9,1.8,2.2
			c0.4,0.1,1.2-0.1,1.2,0.5c0,0.6-0.7,0.8-1.3,0.8c-1.6,0.2-3.2,0.3-4.7,0.4c-0.3,0-0.5-0.1-0.6-0.4c-0.2-0.3,0-0.5,0.2-0.7
			c0.3-0.5,0.9-0.7,1.4-1c0.5-0.3,0.7-0.6,0.7-1.2c0.1-2.6-0.2-5.3,0-8c0.1-1.7,0-1.7-1.6-2.1c-0.3-0.1-0.6-0.2-0.6-0.5
			c0-0.3,0.4-0.3,0.6-0.3c0.7,0,1.4,0,2,0.3c1,0.5,1.9,0.4,2.8-0.1c1.7-0.9,3.1-0.3,4.4,0.6c0.6,0.4,0.8,1.1,0.8,1.9
			C380.7-39.5,380.6-39.5,380.6-39.4z"/>
		<path d="M440.5-42.6c1.7,0,1.8,0.1,2.3,1.8c0.1,0.2,0.1,0.4,0.4,0.4c0.3,0,0.5-0.1,0.7-0.4c0.4-0.9,1.2-1.4,2.1-1.7
			c1.3-0.4,2.5-0.2,3.7,0.4c1.1,0.5,1.4,2.3,0.5,2.8c-0.9,0.6-1.7,0.3-2-0.8c-0.4-1.4-0.7-1.6-2-1.1c-2.9,1.1-4.3,3.4-3.2,6.6
			c0.1,0.4,0.4,0.6,0.8,0.7c0.8,0.2,1.5,0.5,2.3,0.6c0.5,0,0.8,0.3,0.9,0.7c0.1,0.5-0.4,0.6-0.8,0.7c-1.4,0.4-2.7,0.1-4,0
			c-0.4,0-0.9-0.1-1.2,0c-1,0.3-1.8,0-2.7-0.3c-0.3-0.1-0.6-0.2-0.6-0.5c0-0.3,0.3-0.5,0.6-0.6c0.6-0.2,1.2-0.4,1.8-0.6
			c0.9-0.3,1.3-0.9,1.4-1.8c0.1-1.1,0.2-2.2,0.2-3.3c0-1.5-0.3-1.9-1.8-2.3c-0.5-0.1-1.3,0-1.3-0.5c0-0.7,0.9-0.4,1.5-0.6
			C440.1-42.7,440.3-42.6,440.5-42.6z"/>
		<path class="st51" d="M455.6-36c0.9,0,2.1,1.1,2.2,2c0,0.9-1.2,2-2.3,2c-1.3,0-2.4-0.9-2.4-2C453.1-35.1,454.2-36,455.6-36z"/>
		<path class="st52" d="M413-78.9c1.2-1,2.1-1.9,3.1-2.7c0.4-0.4,0.6-0.9,0.7-1.4c0.5-1.2,1-2.5,1.4-3.7c0.2-0.4,0.4-0.6,0.8-0.6
			c1.7,0,3.4,0,5.2,0c0.4,0,0.8,0.2,1.1,0.4c5.4,3.2,10.7,6.4,16.1,9.6c0.5,0.3,0.7,0.6,0.7,1.2c0,6.8,0,13.6,0,20.3
			c0,0.7-0.2,0.9-0.9,0.9c-18.1,0-36.2,0-54.3,0c-1.8,0-3.6-0.1-5.4-0.1c-0.6,0-0.8-0.2-0.8-0.8c0-6.8,0-13.7,0-20.5
			c0-0.4,0.1-0.7,0.5-0.9c5.5-3.3,11-6.6,16.5-9.9c0.3-0.2,0.5-0.2,0.8-0.2c5.4,0,10.8,0,16.2,0c1.2,0,1.2,0,0.7,1.1
			C414.4-83.9,413.7-81.5,413-78.9z"/>
		<path class="st53" d="M397.8-93.7c7.2,0,14.2,0,21.3,0c-0.6,1.2-1.2,2.3-1.7,3.4c-0.2,0.4-0.5,0.4-0.8,0.4c-5.6,0-11.2,0-16.8,0
			c-0.5,0-0.7-0.1-0.8-0.6C398.9-91.6,398.5-92.7,397.8-93.7z"/>
		<path class="st54" d="M411.4-98.3c5.7,0,11.4,0,17.1,0c0.7,0,1,0.1,1,0.9c0,0.8-0.3,1-1.1,1c-7.9,0-15.8,0-23.7,0
			c-3.6,0-7.1-0.1-10.7-0.1c-0.8,0-0.7-0.5-0.8-1c-0.1-0.6,0.2-0.8,0.8-0.8C399.8-98.3,405.6-98.3,411.4-98.3z"/>
		<path class="st53" d="M425-93.7c-0.7,1-1.1,2.1-1.2,3.2c0,0.4-0.2,0.6-0.6,0.6c-1.1,0-2.1,0-3.4,0c0.6-1.3,1.2-2.5,1.8-3.7
			c0.1-0.2,0.2-0.3,0.4-0.3C423-93.8,424-93.9,425-93.7z"/>
		<path class="st53" d="M389.6-38.1c-0.8,0-1.5,0-2.2,0c-0.5,0-1-0.3-1.2-0.8c-0.2-0.5,0.3-0.8,0.6-1.1c1.7-1.7,5-1.7,6.7,0
			c0.3,0.3,0.6,0.7,0.5,1.2c-0.2,0.5-0.6,0.5-1,0.6C391.7-38.1,390.6-38.1,389.6-38.1z"/>
		<path class="st53" d="M428.5-38c-0.4,0-1.2,0-2-0.1c-0.5,0-0.9-0.3-1.1-0.8c-0.2-0.5,0.2-0.8,0.5-1.1c1.7-1.8,5-1.8,6.8-0.1
			c0.3,0.3,0.6,0.6,0.4,1.1c-0.1,0.5-0.6,0.6-1,0.6C431.1-38.1,430-38.1,428.5-38z"/>
		<path d="M411.4-57c-9.1,0-18.1,0-27.2,0c-0.8,0-1-0.2-1-1c0-4.5,0-9,0-13.5c0-0.5,0.1-0.9,0.6-1.1c5.7-2.8,11.7-3.8,18-3.4
			c3.4,0.2,6.5,1.7,9.5,3.3c2.7,1.4,5.4,2.9,8.3,3.7c3.1,0.8,6.3,0.4,9.5,0.1c3.2-0.3,6.3-1.1,9.4-2.1c0.8-0.3,1.1-0.2,1.1,0.7
			c-0.1,4.3-0.1,8.6-0.1,12.8c0,0.3,0.1,0.7-0.5,0.7c-9.2,0-18.4,0-27.5,0C411.4-57,411.4-57,411.4-57z"/>
	</g>
</g>
</svg>
