<?xml version="1.0" encoding="utf-8"?>
<!-- Generator: Adobe Illustrator 19.0.0, SVG Export Plug-In . SVG Version: 6.00 Build 0)  -->
<svg version="1.1" xmlns="http://www.w3.org/2000/svg" xmlns:xlink="http://www.w3.org/1999/xlink" x="0px" y="0px" width="750px"
	 height="500px" viewBox="0 0 750 500" style="enable-background:new 0 0 750 500;" xml:space="preserve">
<style type="text/css">
	.st0{fill:#EBEBEB;}
	.st1{fill:#FAFAFA;}
	.st2{fill:#F5F5F5;}
	.st3{fill:#E0E0E0;}
	.st4{display:none;}
	.st5{display:inline;}
	.st6{fill:#263238;}
	.st7{fill:#455A64;}
	.st8{fill:#E8505B;}
	.st9{opacity:0.2;}
	.st10{fill:#FFBE9D;}
	.st11{fill:#EB996E;}
	.st12{fill:#010101;}
	.st13{fill:#FEFEFE;}
	.st14{fill:#FDFDFD;}
	.st15{fill:#FCFCFC;}
</style>
<g id="Background_Complete">
	<g id="XMLID_1_">
		<g id="XMLID_2_">
			<rect id="XMLID_494_" x="119.2" y="123.9" class="st0" width="110.9" height="199.3"/>
		</g>
		<g id="XMLID_3_">
			<rect id="XMLID_493_" x="123.6" y="129.7" class="st1" width="100.9" height="187.6"/>
		</g>
		<g id="XMLID_4_">
			<polygon id="XMLID_5_" class="st2" points="224.5,131.9 123.6,260.3 123.6,129.7 224.5,129.7 			"/>
		</g>
		<g id="XMLID_6_">
			<rect id="XMLID_492_" x="123.6" y="183.6" class="st0" width="103.1" height="2"/>
		</g>
		<g id="XMLID_7_">
			<rect id="XMLID_491_" x="123.6" y="228.3" class="st0" width="103.1" height="2"/>
		</g>
		<g id="XMLID_8_">
			<rect id="XMLID_490_" x="123.6" y="273" class="st0" width="103.1" height="2"/>
		</g>
		<g id="XMLID_9_">
			<rect id="XMLID_489_" x="171.5" y="184.6" class="st0" width="5.1" height="137.9"/>
		</g>
		<g id="XMLID_10_">
			<rect id="XMLID_416_" x="143" y="129.7" class="st0" width="2.3" height="55"/>
		</g>
		<g id="XMLID_11_">
			<rect id="XMLID_488_" x="163" y="129.7" class="st0" width="2.3" height="55"/>
		</g>
		<g id="XMLID_12_">
			<rect id="XMLID_487_" x="182.9" y="129.7" class="st0" width="2.3" height="55"/>
		</g>
		<g id="XMLID_13_">
			<rect id="XMLID_486_" x="202.8" y="129.7" class="st0" width="2.3" height="55"/>
		</g>
		<g id="XMLID_14_">
			<rect id="XMLID_485_" x="114.5" y="120.5" class="st2" width="4.7" height="203.9"/>
		</g>
		<g id="XMLID_15_">
			<polygon id="XMLID_16_" class="st3" points="234.8,325 230.1,323.2 230.1,120.5 234.8,120.5 			"/>
		</g>
		<g id="XMLID_17_">
			<rect id="XMLID_484_" x="114.5" y="118.5" class="st3" width="120.3" height="5.4"/>
		</g>
		<g id="XMLID_18_">
			<rect id="XMLID_483_" x="111.2" y="325.7" class="st3" width="126.8" height="5.1"/>
		</g>
		<g id="XMLID_19_">
			<polygon id="XMLID_20_" class="st0" points="230.1,323.2 238,325.7 111.2,325.7 119.2,323.2 			"/>
		</g>
	</g>
	<g id="XMLID_21_">
		<g id="XMLID_22_">
			<g id="XMLID_23_">
				<path id="XMLID_482_" class="st0" d="M707.4,248.1c0,0-7.8-0.6-7.1,17c0.7,17.6,2.5,27,2.5,27s-0.2,3.9-3.3,3.1
					c-3-0.8-8.7-4.6-11.5-1.7c-2.9,2.9-1.9,7.5,2,12.8c3.9,5.3,11.9,17.3,12.6,18.4c0.7,1.1,1,3.1-1.1,2.9
					c-2.1-0.2-16.6-5.1-18.5,1.9c-1.9,7,11.3,20,12.7,21.5c1.4,1.5,1.5,2.4,0.9,3.3c-0.6,0.9-5.3-1.2-9.4-2.5
					c-4.2-1.2-9.2-1.9-10,2.2c-0.8,4.1,5,16.2,26.8,28.9l10.5,5.2l9.9-6.3c20.4-14.8,24.9-27.4,23.8-31.5c-1.2-4-6.1-2.8-10.2-1.2
					c-4,1.6-8.5,4.2-9.2,3.4c-0.7-0.8-0.7-1.7,0.6-3.3c1.3-1.6,13.1-15.9,10.5-22.7c-2.6-6.8-16.5-0.5-18.6,0
					c-2.1,0.4-2-1.6-1.4-2.7c0.6-1.2,7.4-13.9,10.7-19.5c3.3-5.7,3.9-10.3,0.7-12.9c-3.1-2.5-8.4,1.8-11.3,2.9
					c-2.9,1.1-3.5-2.8-3.5-2.8s0.8-9.5-0.2-27.1c-1-17.6-9-16.2-9-16.2"/>
			</g>
			<g id="XMLID_24_">
				<g id="XMLID_25_">
					<path id="XMLID_481_" class="st3" d="M708,263.9c0,0,0,0.1,0,0.4c0,0.3,0,0.6,0.1,1.1c0.1,1,0.2,2.4,0.3,4.2
						c0.2,3.6,0.5,8.8,0.9,15.3c0.7,12.9,1.6,30.8,2.4,50.5c0.9,19.7,1.7,37.6,2.3,50.5c0.3,6.4,0.6,11.7,0.8,15.3
						c0.1,1.8,0.2,3.2,0.2,4.2c0,0.5,0,0.8,0,1.1c0,0.2,0,0.4,0,0.4s0-0.1,0-0.4c0-0.3,0-0.6-0.1-1.1c-0.1-1-0.2-2.4-0.3-4.2
						c-0.2-3.6-0.5-8.8-0.9-15.3c-0.7-12.9-1.6-30.8-2.4-50.5c-0.9-19.7-1.7-37.6-2.3-50.5c-0.3-6.4-0.6-11.7-0.8-15.3
						c-0.1-1.8-0.2-3.2-0.2-4.2c0-0.5,0-0.8,0-1.1C708,264,708,263.9,708,263.9z"/>
				</g>
			</g>
			<g id="XMLID_26_">
				<g id="XMLID_27_">
					<path id="XMLID_480_" class="st3" d="M695.7,299.2c0,0,0.3,0.2,0.7,0.5c0.4,0.4,1,0.9,1.7,1.6c1.4,1.4,3.2,3.3,5.2,5.5
						c2,2.2,3.7,4.1,5.1,5.6c0.6,0.7,1.1,1.2,1.6,1.7c0.4,0.4,0.6,0.6,0.5,0.6c0,0-0.3-0.2-0.7-0.5c-0.4-0.4-1-0.9-1.7-1.6
						c-1.4-1.4-3.2-3.3-5.2-5.5c-2-2.1-3.8-4.1-5.2-5.6c-0.6-0.7-1.1-1.2-1.6-1.7C695.9,299.4,695.7,299.2,695.7,299.2z"/>
				</g>
			</g>
			<g id="XMLID_28_">
				<g id="XMLID_29_">
					
						<ellipse id="XMLID_479_" transform="matrix(-0.7022 0.7119 -0.7119 -0.7022 1443.567 7.3738)" class="st3" cx="720.2" cy="305.6" rx="12.4" ry="0.2"/>
				</g>
			</g>
			<g id="XMLID_30_">
				<g id="XMLID_31_">
					<path id="XMLID_478_" class="st3" d="M711.5,344.7c0,0,0.2-0.2,0.7-0.5c0.6-0.3,1.2-0.7,2-1.1c1.7-1,4.1-2.3,6.7-3.9
						c2.6-1.6,4.9-3.1,6.5-4.2c0.8-0.5,1.4-0.9,2-1.3c0.5-0.3,0.7-0.5,0.7-0.4c0,0-0.2,0.2-0.7,0.6c-0.4,0.3-1.1,0.8-1.9,1.4
						c-1.6,1.2-3.9,2.7-6.5,4.3c-2.6,1.6-5,2.9-6.8,3.8c-0.9,0.5-1.6,0.8-2.1,1C711.8,344.6,711.5,344.7,711.5,344.7z"/>
				</g>
			</g>
			<g id="XMLID_32_">
				<g id="XMLID_33_">
					<path id="XMLID_477_" class="st3" d="M694.2,334.1c0,0,0.3,0.1,0.7,0.3c0.5,0.2,1.1,0.6,1.9,1.1c1.6,0.9,3.8,2.2,6.2,3.6
						c2.4,1.4,4.6,2.7,6.1,3.7c0.8,0.5,1.4,0.9,1.8,1.2c0.4,0.3,0.7,0.4,0.6,0.5c0,0-0.3-0.1-0.7-0.3c-0.5-0.2-1.1-0.6-1.9-1.1
						c-1.6-0.9-3.8-2.2-6.2-3.6c-2.4-1.4-4.6-2.7-6.1-3.7c-0.8-0.5-1.4-0.9-1.8-1.2C694.4,334.3,694.2,334.1,694.2,334.1z"/>
				</g>
			</g>
			<g id="XMLID_34_">
				<g id="XMLID_35_">
					<path id="XMLID_476_" class="st3" d="M690.7,360.9c0,0,0.3,0.1,0.9,0.4c0.6,0.4,1.5,0.8,2.4,1.3c2,1.1,4.9,2.8,8,4.6
						c3.1,1.8,5.9,3.5,7.9,4.7c0.9,0.6,1.7,1.1,2.4,1.5c0.6,0.4,0.9,0.6,0.8,0.6c0,0-0.3-0.1-0.9-0.4c-0.6-0.4-1.5-0.8-2.4-1.3
						c-2-1.1-4.9-2.8-8-4.6c-3.1-1.8-5.9-3.5-7.9-4.7c-0.9-0.6-1.7-1.1-2.4-1.5C691,361.1,690.7,360.9,690.7,360.9z"/>
				</g>
			</g>
			<g id="XMLID_36_">
				<g id="XMLID_37_">
					<path id="XMLID_475_" class="st3" d="M712.7,373.5c0,0,0.3-0.2,0.9-0.6c0.7-0.4,1.5-0.9,2.5-1.5c2.1-1.3,5.1-3.1,8.3-5.2
						c3.2-2.1,6.1-4.1,8.1-5.5c1-0.7,1.8-1.3,2.4-1.7c0.6-0.4,0.9-0.6,0.9-0.6c0,0-0.3,0.3-0.8,0.7c-0.6,0.4-1.4,1.1-2.4,1.8
						c-2,1.5-4.9,3.5-8.1,5.6c-3.2,2.1-6.2,3.9-8.4,5.1c-1.1,0.6-2,1.1-2.6,1.4C713.1,373.3,712.7,373.5,712.7,373.5z"/>
				</g>
			</g>
		</g>
		<g id="XMLID_38_">
			<g id="XMLID_39_">
				<g id="XMLID_40_">
					<polygon id="XMLID_474_" class="st3" points="728.4,391.5 699.5,391.5 708.9,463.1 719,463.1 					"/>
				</g>
			</g>
			<g id="XMLID_41_">
				<g id="XMLID_42_">
					<g id="XMLID_43_">
						<path id="XMLID_473_" class="st2" d="M701,400.3c0,0,0,0.1,0.2,0.3c0.1,0.2,0.4,0.3,0.7,0.5c0.7,0.3,1.9,0.3,3.1-0.4
							c1.2-0.6,2.2-1.9,3.8-2.5c1.6-0.6,3.5-0.5,5.3,0.1c1.9,0.6,3.5,1.5,5,2.4c1.5,0.9,2.8,1.7,4,2.2c1.2,0.5,2.2,0.8,3,0.9
							c0.4,0,0.6,0.1,0.8,0.1c0.2,0,0.3,0,0.3,0c0-0.1-1.6-0.1-4-1.2c-1.2-0.5-2.5-1.3-3.9-2.2c-1.5-0.9-3.1-1.9-5-2.5
							c-1.9-0.6-4-0.7-5.6-0.1c-0.8,0.3-1.5,0.8-2.1,1.3c-0.6,0.5-1.1,0.9-1.7,1.3c-1.1,0.7-2.2,0.7-2.8,0.5
							C701.2,400.7,701,400.3,701,400.3z"/>
					</g>
				</g>
			</g>
			<g id="XMLID_44_">
				<g id="XMLID_45_">
					<g id="XMLID_46_">
						<path id="XMLID_472_" class="st2" d="M702,413.5c0,0,0.2-0.3,0.7-0.8c0.5-0.5,1.2-1.1,2.3-1.5c1.1-0.4,2.5-0.7,4-0.6
							c1.6,0.1,3.2,0.4,5,0.7c1.8,0.3,3.6,0.4,5.2,0.2c1.6-0.2,3-0.7,4.1-1.2c1.1-0.5,1.9-1,2.4-1.5c0.5-0.4,0.8-0.7,0.8-0.7
							c-0.1-0.1-1.2,0.9-3.3,1.8c-1.1,0.4-2.4,0.9-4,1c-1.5,0.2-3.2,0.1-5-0.2c-1.8-0.3-3.5-0.6-5.1-0.7c-1.6,0-3,0.3-4.2,0.7
							c-1.1,0.5-1.9,1.1-2.3,1.7c-0.2,0.3-0.4,0.5-0.4,0.6C702.1,413.4,702,413.5,702,413.5z"/>
					</g>
				</g>
			</g>
			<g id="XMLID_47_">
				<g id="XMLID_48_">
					<g id="XMLID_49_">
						<path id="XMLID_471_" class="st2" d="M725.2,420.5c0,0-0.3-0.2-0.8-0.4c-0.5-0.2-1.4-0.4-2.4-0.5c-1-0.1-2.3,0-3.6,0.2
							c-1.4,0.2-2.8,0.6-4.3,0.9c-1.5,0.3-3,0.5-4.3,0.5c-1.3,0-2.5-0.3-3.4-0.7c-1.9-0.8-2.5-2-2.6-1.9c0,0,0.1,0.3,0.5,0.8
							c0.4,0.4,1,1,2,1.5c0.9,0.5,2.2,0.8,3.5,0.9c1.4,0.1,2.9-0.1,4.4-0.5c1.5-0.3,3-0.7,4.3-0.9c1.3-0.2,2.5-0.3,3.5-0.3
							C724,420,725.1,420.6,725.2,420.5z"/>
					</g>
				</g>
			</g>
			<g id="XMLID_50_">
				<g id="XMLID_51_">
					<g id="XMLID_52_">
						<path id="XMLID_470_" class="st2" d="M704.6,430.5c0,0.1,1-0.6,2.8-0.3c0.9,0.2,1.8,0.6,2.9,1.1c1.1,0.5,2.4,0.9,3.8,1.1
							c2.8,0.3,5.4-0.6,6.9-1.6c0.8-0.5,1.3-1,1.7-1.3c0.4-0.4,0.5-0.6,0.5-0.6c-0.1-0.1-0.8,0.8-2.4,1.7c-1.6,0.9-4,1.7-6.7,1.4
							c-2.7-0.2-4.8-1.8-6.7-2c-0.9-0.1-1.7,0-2.2,0.2C704.8,430.2,704.6,430.4,704.6,430.5z"/>
					</g>
				</g>
			</g>
			<g id="XMLID_53_">
				<g id="XMLID_54_">
					<g id="XMLID_55_">
						<path id="XMLID_469_" class="st2" d="M706.2,444.2c0,0.1,1,0,2.4-0.5c1.5-0.5,3.3-1.6,5.4-2.4c1.1-0.4,2.1-0.6,3.1-0.6
							c1,0,1.8,0.2,2.5,0.6c1.3,0.7,1.7,1.6,1.8,1.5c0,0,0-0.2-0.3-0.6c-0.2-0.4-0.7-0.8-1.4-1.2c-0.7-0.4-1.6-0.7-2.6-0.7
							c-1,0-2.2,0.2-3.3,0.6c-2.2,0.9-3.9,2-5.3,2.6C707.1,444,706.2,444.1,706.2,444.2z"/>
					</g>
				</g>
			</g>
			<g id="XMLID_56_">
				<g id="XMLID_57_">
					<g id="XMLID_58_">
						<path id="XMLID_468_" class="st2" d="M707.6,450.6c0,0.1,0.7,0.3,1.8,0.6c1.2,0.3,2.8,0.6,4.6,0.8c1.8,0.2,3.5,0.2,4.6,0.1
							c1.2-0.1,1.9-0.2,1.9-0.2c0-0.1-2.9,0-6.5-0.4C710.5,451.1,707.7,450.4,707.6,450.6z"/>
					</g>
				</g>
			</g>
		</g>
	</g>
	<g id="XMLID_59_">
		<g id="XMLID_60_">
			<rect id="XMLID_467_" x="622.6" y="132.1" class="st3" width="89.4" height="58.8"/>
		</g>
		<g id="XMLID_61_">
			<rect id="XMLID_415_" x="625.7" y="134.5" class="st1" width="83.1" height="53.7"/>
		</g>
		<g id="XMLID_62_">
			<rect id="XMLID_466_" x="653.7" y="154.1" class="st3" width="27.1" height="14.8"/>
		</g>
	</g>
</g>
<g id="Background_Simple" class="st4">
	<g id="XMLID_63_" class="st5">
		<path id="XMLID_64_" class="st2" d="M676.5,217.5c-3.4-28.3-24.2-53.9-51.2-63c-30.8-10.4-64.4-0.2-95.1,10.5
			c-30.7,10.7-63.5,22.2-95,14.3c-43.2-10.8-69.3-53.5-104.1-81.3c-37.2-29.8-87.4-42.7-134.3-34.7c-26.7,4.5-53.3,16.3-70.2,37.5
			c-14.7,18.4-31.1,47.6-31.8,71.1c-1.3,42.8,10.1,83,51.6,130.8c124.6,129.6,270.4,109.7,401.8,84c32.6-6.4,66.6-30.9,94-59.5
			C674.5,293.8,680.5,250.5,676.5,217.5z"/>
	</g>
</g>
<g id="Floor">
	<g id="XMLID_881_">
		<g id="XMLID_882_">
			<path id="XMLID_883_" class="st6" d="M737.1,464c0,0.1-143,0.2-319.4,0.2c-176.4,0-319.4-0.1-319.4-0.2s143-0.2,319.4-0.2
				C594.1,463.8,737.1,463.9,737.1,464z"/>
		</g>
	</g>
</g>
<g id="Device">
	<g id="XMLID_68_">
		<g id="XMLID_69_">
			<path id="XMLID_465_" class="st0" d="M515.4,286.8H339V89.4h191.5v182.3C530.4,280,523.7,286.8,515.4,286.8z"/>
		</g>
		<g id="XMLID_70_">
			<g id="XMLID_71_">
				<g id="XMLID_72_">
					<path id="XMLID_73_" class="st7" d="M514.6,148.1c0,0.4-34.6,0.7-77.3,0.7c-42.7,0-77.3-0.3-77.3-0.7c0-0.4,34.6-0.7,77.3-0.7
						C480,147.4,514.6,147.7,514.6,148.1z"/>
				</g>
			</g>
			<g id="XMLID_74_">
				<g id="XMLID_75_">
					<path id="XMLID_76_" class="st7" d="M438.2,161.5c0,0.4-17.1,0.7-38.2,0.7c-21.1,0-38.2-0.3-38.2-0.7c0-0.4,17.1-0.7,38.2-0.7
						C421.2,160.8,438.2,161.1,438.2,161.5z"/>
				</g>
			</g>
			<g id="XMLID_77_">
				<g id="XMLID_78_">
					<ellipse id="XMLID_79_" class="st7" cx="458.7" cy="160.2" rx="10.1" ry="0.7"/>
				</g>
			</g>
			<g id="XMLID_80_">
				<g id="XMLID_81_">
					<ellipse id="XMLID_82_" class="st7" cx="498.7" cy="159.4" rx="20" ry="0.7"/>
				</g>
			</g>
			<g id="XMLID_83_">
				<g id="XMLID_84_">
					<path id="XMLID_85_" class="st7" d="M431.9,174.3c0,0.4-16.1,0.7-35.9,0.7c-19.8,0-35.9-0.3-35.9-0.7c0-0.4,16.1-0.7,35.9-0.7
						C415.8,173.6,431.9,173.9,431.9,174.3z"/>
				</g>
			</g>
			<g id="XMLID_86_">
				<g id="XMLID_87_">
					<path id="XMLID_88_" class="st7" d="M518.7,173.9c0,0.4-17.6,0.7-39.2,0.7c-21.7,0-39.2-0.3-39.2-0.7c0-0.4,17.6-0.7,39.2-0.7
						C501.2,173.2,518.7,173.5,518.7,173.9z"/>
				</g>
			</g>
			<g id="XMLID_89_">
				<g id="XMLID_90_">
					<ellipse id="XMLID_91_" class="st7" cx="501.3" cy="186.8" rx="17.5" ry="0.7"/>
				</g>
			</g>
		</g>
		<g id="XMLID_92_">
			<g id="XMLID_93_">
				<path id="XMLID_94_" class="st8" d="M446.5,133.8c0,0.4-18.9,0.7-42.3,0.7c-23.4,0-42.3-0.3-42.3-0.7c0-0.4,18.9-0.7,42.3-0.7
					C427.6,133.1,446.5,133.4,446.5,133.8z"/>
			</g>
		</g>
	</g>
	<g id="XMLID_95_">
		<g id="XMLID_96_">
			<g id="XMLID_97_">
				<g id="XMLID_98_">
					<g id="XMLID_99_">
						<g id="XMLID_100_">
							<g id="XMLID_101_">
								<path id="XMLID_464_" class="st6" d="M564.2,462.9H193.5c-7.5,0-13.5-6.1-13.5-13.5v-236c0-7.5,6.1-13.5,13.5-13.5h370.7
									c7.5,0,13.5,6.1,13.5,13.5v236C577.7,456.9,571.7,462.9,564.2,462.9z"/>
							</g>
						</g>
					</g>
					<g id="XMLID_102_">
						<g id="XMLID_103_">
							<g id="XMLID_104_">
								<path id="XMLID_463_" class="st6" d="M578.3,466.5H180.4c-9.1,0-16.5-7.4-16.5-16.5v-6.5h430.9v6.5
									C594.8,459.1,587.4,466.5,578.3,466.5z"/>
							</g>
						</g>
					</g>
					<g id="XMLID_105_">
						<g id="XMLID_106_">
							<g id="XMLID_107_">
								<rect id="XMLID_462_" x="191.2" y="210.4" class="st7" width="375.2" height="222.1"/>
							</g>
						</g>
					</g>
					<g id="XMLID_108_">
						<g id="XMLID_109_">
							<g id="XMLID_110_">
								<g id="XMLID_111_">
									<path id="XMLID_112_" class="st7" d="M340.2,443.5c0,0,0.1,0,0.4,0c0.3,0,0.7,0,1.3,0c1.1,0,2.8,0,4.9,0
										c4.3,0,10.5,0,18.2-0.1c15.5,0,36.9-0.1,60.8-0.1l0.4,0l-0.2,0.4c-0.8,1.3-1.6,2.7-2.4,4.1c-0.9,1.5-1.7,3-2.6,4.4
										l-0.1,0.1l-0.1,0c-33.1-0.1-61.3-0.1-75.2-0.1l-0.1,0l0-0.1c-1.7-2.8-3-4.9-3.9-6.4c-0.4-0.7-0.8-1.2-1-1.6
										C340.3,443.7,340.2,443.5,340.2,443.5s0.1,0.2,0.4,0.6c0.2,0.4,0.6,0.9,1.1,1.6c0.9,1.4,2.3,3.5,4,6.3l-0.1-0.1
										c13.9,0,42.2-0.1,75.2-0.1l-0.2,0.1c0.8-1.4,1.7-2.9,2.6-4.4c0.8-1.4,1.6-2.8,2.4-4.1l0.2,0.4c-23.8-0.1-45.1-0.1-60.5-0.1
										c-7.7,0-13.9-0.1-18.3-0.1c-2.1,0-3.8,0-5,0c-0.6,0-1,0-1.3,0C340.4,443.5,340.2,443.5,340.2,443.5z"/>
								</g>
							</g>
						</g>
					</g>
				</g>
			</g>
		</g>
		<g id="XMLID_113_">
			<g id="XMLID_114_">
				<line id="XMLID_115_" class="st6" x1="180" y1="443.5" x2="577.7" y2="443.5"/>
			</g>
			<g id="XMLID_116_">
				<g id="XMLID_117_">
					<path id="XMLID_118_" class="st7" d="M577.7,443.5c0,0.1-89,0.2-198.8,0.2c-109.8,0-198.9-0.1-198.9-0.2
						c0-0.1,89-0.2,198.9-0.2C488.7,443.2,577.7,443.3,577.7,443.5z"/>
				</g>
			</g>
		</g>
	</g>
	<g id="XMLID_119_">
		<g id="XMLID_120_">
			<path id="XMLID_121_" class="st6" d="M476.2,166L476.2,166c6.1,0,11.1,5,11.1,11.1v22.8h-33.2v-21c0-7.1,5.8-12.9,12.9-12.9
				H476.2z"/>
		</g>
		<g id="XMLID_122_">
			<g id="XMLID_123_">
				<path id="XMLID_124_" class="st6" d="M476.2,166c0,0.1-31.3,0.2-70,0.2c-38.7,0-70-0.2-70-0.3c0-0.1,31.3-0.2,70-0.2
					C444.9,165.7,476.2,165.9,476.2,166z"/>
			</g>
		</g>
		<g id="XMLID_125_">
			<path id="XMLID_126_" class="st1" d="M475.9,166l-13.9-0.1L442,166H294.1c-12.6,0-22.7,10.2-22.7,22.7v240.1v4.2h191.5V178.5
				C463.4,166,475.9,166,475.9,166z"/>
		</g>
		<g id="XMLID_127_">
			<path id="XMLID_128_" class="st6" d="M475.9,166l-115.4,0.3l-57.7,0l-7.2,0c-1.2,0-2.4,0-3.6,0.1c-1.2,0.2-2.4,0.3-3.5,0.6
				c-4.6,1.1-8.8,3.9-11.8,7.6c-1.5,1.8-2.7,3.9-3.5,6.2c-0.2,0.6-0.4,1.1-0.6,1.7l-0.4,1.7c-0.2,1.2-0.4,2.3-0.4,3.5
				c-0.1,4.8,0,9.6,0,14.4l0.2,230.9l-0.5-0.5l191.5,0.1l-0.3,0.3l0.1-137.3l0.1-68.7l0.1-34.3l0-8.6l0-4.3c0-0.7,0-1.4,0.1-2.1
				c0.1-0.7,0.1-1.4,0.3-2.1c0.6-2.8,2.2-5.4,4.6-7c1.2-0.8,2.5-1.4,3.8-1.9C473.1,166.3,474.5,166,475.9,166z M475.9,166
				c-1.4,0.1-2.8,0.3-4.2,0.7c-1.4,0.4-2.7,1-3.8,1.9c-2.4,1.6-4,4.2-4.6,7c-0.2,0.7-0.2,1.4-0.3,2.1c-0.1,0.7-0.1,1.4-0.1,2.1
				l0,4.3l0,8.6L463,227l0.1,68.7l0.1,137.3l0,0.3l-0.3,0l-191.5,0.1l-0.5,0l0-0.5l0.2-230.9c0-4.8,0-9.6,0.1-14.4
				c0-1.2,0.2-2.4,0.4-3.6l0.5-1.8c0.1-0.6,0.4-1.2,0.6-1.7c0.9-2.3,2.1-4.4,3.6-6.3c3.1-3.7,7.3-6.6,12.1-7.8
				c1.2-0.3,2.4-0.5,3.6-0.6c1.2-0.1,2.4-0.1,3.6-0.1l7.2,0l57.7,0L475.9,166z"/>
		</g>
		<g id="XMLID_131_">
			<path id="XMLID_132_" class="st8" d="M300.2,210h33.4l0.1,11.2h-1.6c-0.5-4-2-6.7-4.5-8.1c-1.4-0.8-3.5-1.2-6.2-1.3V241
				c0,2,0.4,3.4,1.1,4.1c0.7,0.7,2.2,1,4.5,1v1.4h-19.8v-1.4c2.2,0,3.6-0.3,4.3-1c0.7-0.7,1.1-2,1.1-4.1v-29.2
				c-2.7,0.1-4.8,0.5-6.2,1.3c-2.7,1.4-4.2,4.2-4.5,8.1h-1.6L300.2,210z"/>
		</g>
		<g id="XMLID_134_">
			<g id="XMLID_135_">
				<path id="XMLID_136_" class="st8" d="M436.6,212.5c0,0.4-18.4,0.7-41.2,0.7c-22.7,0-41.2-0.3-41.2-0.7c0-0.4,18.4-0.7,41.2-0.7
					C418.1,211.8,436.6,212.1,436.6,212.5z"/>
			</g>
		</g>
		<g id="XMLID_137_">
			<g id="XMLID_138_">
				<ellipse id="XMLID_139_" class="st7" cx="371.8" cy="225.6" rx="15.9" ry="0.7"/>
			</g>
		</g>
		<g id="XMLID_140_">
			<g id="XMLID_141_">
				<path id="XMLID_142_" class="st7" d="M347.6,265.8c0,0.4-13.5,0.7-30.2,0.7c-16.7,0-30.2-0.3-30.2-0.7c0-0.4,13.5-0.7,30.2-0.7
					C334.1,265,347.6,265.4,347.6,265.8z"/>
			</g>
		</g>
		<g id="XMLID_143_">
			<g id="XMLID_144_">
				<path id="XMLID_145_" class="st8" d="M416.1,265.8c0,0.4-13.5,0.7-30.2,0.7c-16.7,0-30.2-0.3-30.2-0.7c0-0.4,13.5-0.7,30.2-0.7
					C402.5,265,416.1,265.4,416.1,265.8z"/>
			</g>
		</g>
		<g id="XMLID_146_">
			<g id="XMLID_147_">
				<path id="XMLID_148_" class="st7" d="M347.6,276.5c0,0.4-13.5,0.7-30.2,0.7c-16.7,0-30.2-0.3-30.2-0.7c0-0.4,13.5-0.7,30.2-0.7
					C334.1,275.8,347.6,276.1,347.6,276.5z"/>
			</g>
		</g>
		<g id="XMLID_149_">
			<g id="XMLID_150_">
				<path id="XMLID_151_" class="st8" d="M347.6,287.2c0,0.4-13.5,0.7-30.2,0.7c-16.7,0-30.2-0.3-30.2-0.7c0-0.4,13.5-0.7,30.2-0.7
					C334.1,286.5,347.6,286.8,347.6,287.2z"/>
			</g>
		</g>
		<g id="XMLID_152_">
			<g id="XMLID_153_">
				<ellipse id="XMLID_154_" class="st7" cx="371.8" cy="247.5" rx="15.9" ry="0.7"/>
			</g>
		</g>
		<g id="XMLID_155_">
			<g id="XMLID_156_">
				<ellipse id="XMLID_157_" class="st7" cx="432.3" cy="265.8" rx="10.6" ry="0.7"/>
			</g>
		</g>
		<g id="XMLID_158_">
			<g id="XMLID_159_">
				<path id="XMLID_160_" class="st7" d="M448.6,225.6c0,0.4-12.2,0.7-27.3,0.7c-15.1,0-27.3-0.3-27.3-0.7c0-0.4,12.2-0.7,27.3-0.7
					C436.4,224.9,448.6,225.2,448.6,225.6z"/>
			</g>
		</g>
		<g id="XMLID_161_">
			<g id="XMLID_162_">
				<path id="XMLID_163_" class="st7" d="M446.1,236.1c0,0.4-20.2,0.7-45.1,0.7c-24.9,0-45.1-0.3-45.1-0.7c0-0.4,20.2-0.7,45.1-0.7
					C425.9,235.4,446.1,235.7,446.1,236.1z"/>
			</g>
		</g>
		<g id="XMLID_164_">
			<g id="XMLID_165_">
				<path id="XMLID_166_" class="st7" d="M442.9,276.5c0,0.4-19.5,0.7-43.7,0.7c-24.1,0-43.7-0.3-43.7-0.7c0-0.4,19.5-0.7,43.7-0.7
					C423.4,275.8,442.9,276.1,442.9,276.5z"/>
			</g>
		</g>
		<g id="XMLID_167_">
			<g id="XMLID_168_">
				<path id="XMLID_169_" class="st8" d="M442.9,307.5c0,0.4-18.3,0.7-41,0.7c-22.6,0-41-0.3-41-0.7c0-0.4,18.3-0.7,41-0.7
					C424.6,306.8,442.9,307.1,442.9,307.5z"/>
			</g>
		</g>
		<g id="XMLID_170_">
			<g id="XMLID_171_">
				<path id="XMLID_172_" class="st7" d="M442.9,317.9c0,0.4-18.3,0.7-41,0.7c-22.6,0-41-0.3-41-0.7c0-0.4,18.3-0.7,41-0.7
					C424.6,317.2,442.9,317.5,442.9,317.9z"/>
			</g>
		</g>
		<g id="XMLID_173_">
			<g id="XMLID_174_">
				<path id="XMLID_175_" class="st7" d="M442.9,328.4c0,0.4-18.3,0.7-41,0.7c-22.6,0-41-0.3-41-0.7c0-0.4,18.3-0.7,41-0.7
					C424.6,327.6,442.9,328,442.9,328.4z"/>
			</g>
		</g>
		<g id="XMLID_176_">
			<g id="XMLID_177_">
				<path id="XMLID_178_" class="st7" d="M442.9,338.8c0,0.4-18.3,0.7-41,0.7c-22.6,0-41-0.3-41-0.7c0-0.4,18.3-0.7,41-0.7
					C424.6,338.1,442.9,338.4,442.9,338.8z"/>
			</g>
		</g>
		<g id="XMLID_179_">
			<g id="XMLID_180_">
				<path id="XMLID_181_" class="st7" d="M408.2,349.2c0,0.2-2.6,0.4-6.9,0.5c-4.3,0.1-10.2,0.2-16.7,0.2c-6.5,0-12.4-0.1-16.7-0.2
					c-4.3-0.1-6.9-0.3-6.9-0.5c0-0.2,2.6-0.4,6.9-0.5c4.3-0.1,10.2-0.2,16.7-0.2c6.5,0,12.4,0.1,16.7,0.2
					C405.5,348.8,408.2,349,408.2,349.2z"/>
			</g>
		</g>
		<g id="XMLID_182_">
			<g id="XMLID_183_">
				<path id="XMLID_184_" class="st7" d="M428.1,287.8c0,0.4-15.8,0.7-35.3,0.7c-19.5,0-35.3-0.3-35.3-0.7c0-0.4,15.8-0.7,35.3-0.7
					C412.3,287,428.1,287.4,428.1,287.8z"/>
			</g>
		</g>
		<g id="XMLID_185_">
			<g id="XMLID_186_">
				<g id="XMLID_758_">
					<g id="XMLID_188_">
						<polygon id="XMLID_189_" class="st3" points="346.2,308.7 350.5,389.2 271.8,399 271.8,308 						"/>
					</g>
				</g>
			</g>
			<g id="XMLID_187_">
				<g id="XMLID_754_">
					<g id="XMLID_191_">
						
							<rect id="XMLID_192_" x="254.7" y="292.7" transform="matrix(6.424597e-003 -1 1 6.424597e-003 -50.6313 641.2996)" class="st2" width="85.4" height="106.8"/>
					</g>
				</g>
			</g>
			<g id="XMLID_190_">
				
					<rect id="XMLID_461_" x="247.7" y="308.8" transform="matrix(-1 -6.424121e-003 6.424121e-003 -1 592.4325 694.1591)" class="st8" width="99.3" height="74.6"/>
			</g>
			<g id="XMLID_193_" class="st9">
				<polygon id="XMLID_460_" points="247.4,383.1 282.4,337 303.7,366.1 318.4,350.7 346.7,383.8 				"/>
			</g>
			<g id="XMLID_194_" class="st9">
				<g id="XMLID_195_">
					<g id="XMLID_196_">
						<circle id="XMLID_459_" cx="305.2" cy="331.4" r="7.8"/>
					</g>
				</g>
			</g>
		</g>
		<g id="XMLID_197_">
			<g id="XMLID_198_">
				<circle id="XMLID_199_" class="st6" cx="359.2" cy="409.3" r="1.7"/>
			</g>
			<g id="XMLID_200_">
				<circle id="XMLID_201_" class="st6" cx="369" cy="409.3" r="1.7"/>
			</g>
			<g id="XMLID_202_">
				<circle id="XMLID_203_" class="st6" cx="378.8" cy="409.3" r="1.7"/>
			</g>
		</g>
		<g id="XMLID_204_">
			<g id="XMLID_205_">
				<path id="XMLID_206_" class="st8" d="M416.5,370.9c0,0.4-13.5,0.7-30.2,0.7c-16.7,0-30.2-0.3-30.2-0.7c0-0.4,13.5-0.7,30.2-0.7
					C403,370.2,416.5,370.5,416.5,370.9z"/>
			</g>
		</g>
		<g id="XMLID_207_">
			<g id="XMLID_208_">
				<path id="XMLID_209_" class="st7" d="M443.4,381.7c0,0.4-19.5,0.7-43.7,0.7c-24.1,0-43.7-0.3-43.7-0.7c0-0.4,19.5-0.7,43.7-0.7
					C423.8,380.9,443.4,381.3,443.4,381.7z"/>
			</g>
		</g>
	</g>
</g>
<g id="Box">
	<g id="XMLID_684_">
		<g id="XMLID_720_">
			<g id="XMLID_726_">
				<g id="XMLID_727_">
					<g id="XMLID_728_">
						
							<rect id="XMLID_729_" x="641.8" y="393.3" transform="matrix(6.423259e-003 -1 1 6.423259e-003 237.7872 1090.1753)" class="st2" width="51.4" height="64.3"/>
					</g>
				</g>
			</g>
			
				<rect id="XMLID_725_" x="637.5" y="402.9" transform="matrix(-1 -6.424412e-003 6.424412e-003 -1 1332.1567 855.1343)" class="st8" width="59.8" height="45"/>
			<polygon id="XMLID_724_" class="st9" points="637.4,447.7 658.5,419.9 671.3,437.5 680.1,428.2 697.2,448.1 			"/>
			<g id="XMLID_721_" class="st9">
				<g id="XMLID_722_">
					<circle id="XMLID_723_" cx="672.2" cy="416.6" r="4.7"/>
				</g>
			</g>
		</g>
		<g id="XMLID_710_">
			<g id="XMLID_716_">
				<g id="XMLID_717_">
					<g id="XMLID_718_">
						
							<rect id="XMLID_719_" x="632.3" y="387.9" transform="matrix(6.424794e-003 -1 1 6.424794e-003 233.783 1075.4034)" class="st2" width="51.4" height="64.3"/>
					</g>
				</g>
			</g>
			
				<rect id="XMLID_715_" x="628.1" y="397.6" transform="matrix(-1 -6.424412e-003 6.424412e-003 -1 1313.3218 844.3318)" class="st8" width="59.8" height="45"/>
			<polygon id="XMLID_714_" class="st9" points="628,442.3 649,414.5 661.9,432.1 670.7,422.8 687.8,442.7 			"/>
			<g id="XMLID_711_" class="st9">
				<g id="XMLID_712_">
					<circle id="XMLID_713_" cx="662.8" cy="411.2" r="4.7"/>
				</g>
			</g>
		</g>
		<g id="XMLID_700_">
			<g id="XMLID_706_">
				<g id="XMLID_707_">
					<g id="XMLID_708_">
						
							<rect id="XMLID_709_" x="623.9" y="383.4" transform="matrix(6.423248e-003 -1 1 6.423248e-003 229.8741 1062.5919)" class="st2" width="51.4" height="64.3"/>
					</g>
				</g>
			</g>
			
				<rect id="XMLID_705_" x="619.7" y="393.1" transform="matrix(-1 -6.422861e-003 6.422861e-003 -1 1296.5466 835.3997)" class="st8" width="59.8" height="45"/>
			<polygon id="XMLID_704_" class="st9" points="619.6,437.9 640.6,410.1 653.5,427.7 662.3,418.4 679.4,438.3 			"/>
			<g id="XMLID_701_" class="st9">
				<g id="XMLID_702_">
					<circle id="XMLID_703_" cx="654.4" cy="406.8" r="4.7"/>
				</g>
			</g>
		</g>
		<g id="XMLID_690_">
			<g id="XMLID_696_">
				<g id="XMLID_697_">
					<g id="XMLID_698_">
						
							<rect id="XMLID_699_" x="614.5" y="389" transform="matrix(6.423259e-003 -1 1 6.423259e-003 214.9753 1058.6466)" class="st2" width="51.4" height="64.3"/>
					</g>
				</g>
			</g>
			
				<rect id="XMLID_695_" x="610.3" y="398.7" transform="matrix(-1 -6.422859e-003 6.422859e-003 -1 1277.6417 846.3885)" class="st7" width="59.8" height="45"/>
			<polygon id="XMLID_694_" class="st9" points="610.1,443.4 631.2,415.6 644,433.2 652.9,423.9 669.9,443.8 			"/>
			<g id="XMLID_691_" class="st9">
				<g id="XMLID_692_">
					<circle id="XMLID_693_" cx="644.9" cy="412.3" r="4.7"/>
				</g>
			</g>
		</g>
		<g id="XMLID_685_">
			<rect id="XMLID_689_" x="672.6" y="414.3" class="st6" width="37.1" height="49.7"/>
			<path id="XMLID_686_" class="st8" d="M601.4,414.3V464h74.3v-49.7H601.4z M646.5,426.1h-15.8c-1.9,0-3.4-1.5-3.4-3.4
				c0-1.9,1.5-3.4,3.4-3.4h15.8c1.9,0,3.4,1.5,3.4,3.4C649.9,424.6,648.3,426.1,646.5,426.1z"/>
		</g>
	</g>
</g>
<g id="Character">
	<g id="XMLID_239_">
		<g id="XMLID_240_">
			<g id="XMLID_241_">
				<g id="XMLID_242_">
					<path id="XMLID_243_" class="st7" d="M553.2,458.8l-69.1-4.2c-0.4-1-0.7-1.6-0.7-1.6l-18.7,0.4l-6.1-0.4c0,0-0.1,0.2-0.2,0.5
						l-62.8,1.3c-12.5,0-25.7,7.6-25.7,17.4c-0.2,9.3,4.3,19.4,15.6,19.2l85.6-0.3l85.6,0.3c11.2,0.2,14.2-6.5,14.2-14.6
						C572.2,461.8,562.8,458.9,553.2,458.8z"/>
				</g>
				<g id="XMLID_244_">
					<g id="XMLID_245_">
						<path id="XMLID_246_" class="st6" d="M393.3,491.4c0,0,0.1,0,0.4,0c0.3,0,0.7,0,1.2,0c1.1,0,2.7,0,4.7,0c4.1,0,10,0,17.2-0.1
							c14.6,0,34.9,0,57.5-0.1l-0.2,0.3c-0.1-1.9-0.2-3.9-0.4-5.9c-0.3-4.1-0.5-8.2-0.8-12.1l0.2,0.2c-21-2.3-39.6-4.4-53-5.9
							c-6.6-0.8-12-1.4-15.7-1.8c-1.8-0.2-3.2-0.4-4.2-0.5c-0.5-0.1-0.8-0.1-1.1-0.1c-0.2,0-0.4-0.1-0.4-0.1c0,0,0.1,0,0.4,0
							c0.3,0,0.6,0.1,1.1,0.1c1,0.1,2.4,0.2,4.2,0.4c3.7,0.4,9.1,1,15.7,1.7c13.4,1.4,31.9,3.5,53,5.7l0.2,0l0,0.2
							c0.2,3.9,0.5,8,0.8,12.1c0.1,2,0.3,4,0.4,5.9l0,0.3l-0.3,0c-22.6,0-42.9-0.1-57.5-0.1c-7.3,0-13.2-0.1-17.2-0.1
							c-2,0-3.6,0-4.7,0c-0.5,0-0.9,0-1.2,0C393.4,491.4,393.3,491.4,393.3,491.4z"/>
					</g>
				</g>
				<g id="XMLID_247_">
					<g id="XMLID_248_">
						<path id="XMLID_249_" class="st6" d="M410.9,466.8c-0.1,0.1-0.9-0.6-2.4-1.5c-1.5-0.9-3.7-2-6.3-2.8c-2.6-0.7-5-1-6.8-1
							c-1.8,0-2.9,0.1-2.9,0c0,0,0.3-0.1,0.8-0.2c0.5-0.1,1.2-0.2,2.1-0.2c1.8-0.1,4.3,0.1,6.9,0.9c2.6,0.8,4.9,1.9,6.3,2.9
							c0.7,0.5,1.3,0.9,1.7,1.3C410.7,466.6,410.9,466.8,410.9,466.8z"/>
					</g>
				</g>
				<g id="XMLID_250_">
					<g id="XMLID_251_">
						<path id="XMLID_252_" class="st6" d="M547.9,463.1c0,0.1-13.6,3.4-30.4,7.4c-16.8,3.9-30.5,7-30.5,6.9
							c0-0.1,13.6-3.4,30.4-7.4C534.2,466.1,547.9,463,547.9,463.1z"/>
					</g>
				</g>
				<g id="XMLID_253_">
					<g id="XMLID_254_">
						<path id="XMLID_255_" class="st6" d="M536.4,461.8c0,0.2-2.6,0.7-5.3,2.6c-2.7,1.8-4.2,4.1-4.3,4c0,0,0.3-0.6,0.9-1.5
							c0.7-0.9,1.7-2,3.1-2.9c1.4-0.9,2.8-1.5,3.9-1.8C535.7,461.8,536.4,461.7,536.4,461.8z"/>
					</g>
				</g>
			</g>
			<g id="XMLID_256_">
				<path id="XMLID_445_" class="st10" d="M510.7,383.4l21.9,38.1c2.7,4.7,2.9,10.4,0.4,15.3l0,0c-2.8,5.6-8.6,9.1-14.9,8.9
					l-33.6-0.9l-0.9-12.2l29.6-5.7l-20-34.5L510.7,383.4z"/>
			</g>
			<g id="XMLID_257_">
				<path id="XMLID_258_" class="st10" d="M429.1,448.5l30.9,8.2l0.7-9.3l-28.5-16.5l20.8-38.6l-17.5-9l-21.9,38.1l0,0
					c-5.3,9.8-0.3,22.1,10.3,25.5L429.1,448.5z"/>
			</g>
			<g id="XMLID_259_">
				<path id="XMLID_260_" class="st8" d="M501.4,407.8l21.1-11.1c0,0-3.5-7.4-9-15.1c-6.5-9-16.7-15.4-28.2-17.8c0,0,0,0,0,0
					l-24.3,0.3c-3.5,0.4-6.3,1-8.7,2l0-0.1c-13.2,2.9-27.8,31.7-27.8,31.7l19.2,10.1l0.4,3c0.6,4,2.3,7.7,5,10.8l-5.6,36.8l62.4,1.3
					l-7.9-26.4L501.4,407.8z"/>
			</g>
			<g id="XMLID_261_">
				<g id="XMLID_262_">
					<path id="XMLID_263_" class="st6" d="M449.7,421.8c0,0-0.4-0.2-0.9-0.7c-0.6-0.5-1.3-1.3-2.1-2.4c-1.6-2.2-3-5.9-2.6-10
						c0.3-2.1,0.9-3.9,1.4-5.6c0.6-1.7,1.1-3.2,1.6-4.4c0.5-1.2,0.9-2.2,1.2-2.9c0.3-0.7,0.5-1,0.5-1c0,0-0.1,0.4-0.4,1.1
						c-0.3,0.8-0.7,1.8-1.1,3c-0.5,1.3-1,2.7-1.5,4.4c-0.5,1.7-1.1,3.5-1.4,5.5c-0.2,2,0.1,3.9,0.5,5.6c0.4,1.7,1.2,3.1,1.9,4.2
						C448.4,420.7,449.8,421.7,449.7,421.8z"/>
				</g>
			</g>
			<g id="XMLID_264_">
				<g id="XMLID_265_">
					<polygon id="XMLID_266_" class="st6" points="440.4,467.3 436.8,426.2 512.8,426.2 507.8,467.8 					"/>
				</g>
				<g id="XMLID_267_">
					<circle id="XMLID_268_" class="st1" cx="474.8" cy="448.1" r="4.8"/>
				</g>
			</g>
			<g id="XMLID_269_">
				<g id="XMLID_270_">
					<polygon id="XMLID_271_" class="st10" points="473.5,475.3 486.4,477.1 486.4,491.1 474.5,490.8 					"/>
				</g>
				<g id="XMLID_272_">
					<g id="XMLID_273_">
						<path id="XMLID_274_" class="st8" d="M486.4,477.1h5.8c1.1,0,2.2,0.3,3.2,0.9l3.1,1.8c1,0.6,4.2,2.2,5.3,2.5
							c3.5,1.1,9.5,2.7,10.7,3.6c3.6,2.8,2.5,6,0.5,6.3c-1.7,0.3-28.6-1.1-28.6-1.1V477.1z"/>
					</g>
					<g id="XMLID_275_">
						<g id="XMLID_276_">
							<path id="XMLID_277_" class="st6" d="M495.9,490c-0.1,0-0.6-1.6-0.6-3.6c-0.1-2.1,0.3-3.7,0.4-3.7c0.1,0,0,1.7,0.1,3.7
								C495.8,488.3,496,489.9,495.9,490z"/>
						</g>
					</g>
					<g id="XMLID_278_">
						<g id="XMLID_279_">
							
								<ellipse id="XMLID_280_" transform="matrix(-7.971222e-003 1 -1 -7.971222e-003 989.1774 -8.2657)" class="st6" cx="498.7" cy="486.5" rx="3.3" ry="0.2"/>
						</g>
					</g>
					<g id="XMLID_281_">
						<g id="XMLID_282_">
							
								<ellipse id="XMLID_283_" transform="matrix(7.775546e-002 0.997 -0.997 7.775546e-002 948.1442 -51.0097)" class="st6" cx="501.6" cy="487" rx="3.5" ry="0.2"/>
						</g>
					</g>
					<g id="XMLID_284_">
						<g id="XMLID_285_">
							<path id="XMLID_286_" class="st6" d="M493.4,486.2c0,0-0.4-0.1-1.2-0.4c-0.7-0.3-1.8-0.9-2.9-1.8c-0.3-0.2-0.6-0.5-0.8-0.8
								c-0.3-0.3-0.6-0.6-0.7-1c-0.2-0.4-0.2-1,0.2-1.4c0.2-0.2,0.4-0.4,0.7-0.4c0.3,0,0.5,0,0.8,0.1c1.9,0.6,3.5,2.5,3.8,4.8
								c0.3,2.3-1,4.4-2.6,5.5c-0.4,0.3-0.8,0.5-1.3,0.6c-0.2,0-0.5,0-0.8,0c-0.3-0.1-0.5-0.3-0.6-0.5c-0.2-0.5,0-1,0.2-1.3
								c0.2-0.4,0.5-0.6,0.7-0.9c1-1,2.1-1.6,2.9-1.9c0.8-0.3,1.2-0.4,1.2-0.3c0,0-0.4,0.2-1.1,0.5c-0.7,0.3-1.7,0.9-2.7,1.9
								c-0.2,0.3-0.5,0.5-0.7,0.8c-0.2,0.3-0.3,0.7-0.1,1c0.1,0.3,0.5,0.4,0.9,0.3c0.4-0.1,0.8-0.3,1.2-0.5c1.5-1,2.6-3,2.3-5.1
								c-0.3-2.1-1.8-3.8-3.4-4.4c-0.4-0.1-0.8-0.1-1,0.2c-0.2,0.3-0.3,0.7-0.1,1c0.3,0.7,0.9,1.2,1.4,1.7
								C491.7,485.7,493.5,486.1,493.4,486.2z"/>
						</g>
					</g>
				</g>
				<g id="XMLID_287_">
					<g id="XMLID_288_">
						<path id="XMLID_289_" class="st6" d="M515,492.2c0,0,0.4-0.2,0.7-0.9c0.3-0.6,0.3-1.8-0.4-2.9c-0.6-1.1-1.9-2.1-3.6-2.7
							c-1.6-0.6-3.6-0.9-5.6-1.5c-4-1.2-7.3-2.9-9.6-4.4c-1.1-0.7-2-1.4-2.6-1.8c-0.6-0.5-0.9-0.8-0.9-0.8c0,0,0.4,0.2,1,0.6
							c0.6,0.4,1.5,1,2.7,1.7c2.3,1.4,5.6,3,9.5,4.2c1.9,0.6,3.9,0.9,5.6,1.5c1.7,0.6,3.1,1.7,3.7,3c0.6,1.2,0.7,2.5,0.2,3.2
							c-0.2,0.3-0.4,0.5-0.6,0.7C515.1,492.2,515,492.2,515,492.2z"/>
					</g>
				</g>
			</g>
			<g id="XMLID_290_">
				<g id="XMLID_291_">
					<path id="XMLID_292_" class="st2" d="M506.2,373.9c0,0,0,0.1,0,0.2c0,0.2,0,0.3,0,0.6c0,0.5-0.1,1.3-0.2,2.2
						c-0.2,2-0.5,4.8-0.8,8.4l0,0.2l-0.2-0.1c-3.1-1.6-6.9-3.6-11.2-5.9l0.3-0.1c-1.8,3.1-3.9,6.6-6.1,10.3l-0.1,0.2l-0.2-0.2
						c-3.2-2.5-6.7-5.1-10.2-7.9l0.3,0c-1.4,1.1-2.9,2.3-4.5,3.5c-2.1,1.6-4.1,3.2-6.1,4.8l-0.2,0.2l-0.1-0.2c-2-3.7-4-7.3-5.8-10.7
						l0.3,0.1c-4.5,2-8.6,3.8-12.3,5.5l-0.2,0.1l0-0.2c-0.7-4.2-1.3-7.9-1.9-10.9l0.2,0.1c-3,1.1-5.4,2-7,2.7
						c-0.8,0.3-1.4,0.5-1.9,0.7c-0.2,0.1-0.4,0.1-0.5,0.2c-0.1,0-0.2,0.1-0.2,0c0,0,0,0,0.2-0.1c0.1-0.1,0.3-0.1,0.5-0.2
						c0.4-0.2,1.1-0.4,1.8-0.8c1.7-0.7,4-1.6,7-2.8l0.2-0.1l0,0.2c0.5,3,1.2,6.7,2,10.9l-0.3-0.1c3.7-1.7,7.8-3.5,12.3-5.5l0.2-0.1
						l0.1,0.2c1.8,3.4,3.8,7,5.8,10.7l-0.4-0.1c2-1.6,4-3.1,6.1-4.8c1.5-1.2,3-2.4,4.5-3.5l0.1-0.1l0.1,0.1c3.6,2.8,7,5.4,10.2,7.9
						l-0.3,0.1c2.2-3.7,4.3-7.1,6.1-10.2l0.1-0.2l0.2,0.1c4.3,2.3,8.1,4.3,11.2,6l-0.2,0.1c0.4-3.6,0.7-6.4,1-8.4
						c0.1-1,0.2-1.7,0.3-2.2c0-0.2,0.1-0.4,0.1-0.6C506.2,374,506.2,373.9,506.2,373.9z"/>
				</g>
			</g>
			<g id="XMLID_293_">
				<g id="XMLID_294_">
					<path id="XMLID_295_" class="st2" d="M515.3,384.2c0,0,0,0.1-0.1,0.3c0,0.2-0.1,0.5-0.2,0.8c-0.2,0.7-0.5,1.7-0.8,3
						c-0.7,2.7-1.8,6.5-3,11.3l0,0.2l-0.2-0.1c-3.7-1.8-8.2-3.9-13.1-6.3l0.3-0.1c-3.3,4.8-7.1,10.1-11,15.7l-0.2,0.2l-0.2-0.2
						c-3.4-3.4-6.9-7-10.6-10.7c-0.7-0.8-1.5-1.5-2.2-2.3l0.3,0c-5,3.1-9.8,6.1-14.3,9l-0.2,0.1l-0.1-0.2c-2.8-4.9-5.3-9.4-7.7-13.6
						l0.2,0.1c-5.6,1.9-10.6,3.7-14.7,5.1l-0.1,0l0-0.1c-1.4-4-2.5-7.2-3.3-9.4c-0.4-1.1-0.6-1.9-0.8-2.5c-0.1-0.3-0.2-0.5-0.2-0.6
						c0-0.1-0.1-0.2-0.1-0.2c0,0,0,0.1,0.1,0.2c0.1,0.2,0.1,0.4,0.2,0.6c0.2,0.6,0.5,1.4,0.9,2.5c0.8,2.2,1.9,5.4,3.4,9.4l-0.2-0.1
						c4.1-1.4,9-3.2,14.6-5.2l0.2-0.1l0.1,0.1c2.4,4.2,5,8.7,7.7,13.6l-0.3-0.1c4.5-2.8,9.3-5.9,14.3-9l0.2-0.1l0.1,0.1
						c0.7,0.7,1.5,1.5,2.2,2.3c3.7,3.7,7.2,7.3,10.6,10.7l-0.4,0c4-5.6,7.7-10.9,11.1-15.7l0.1-0.1l0.2,0.1c4.9,2.4,9.3,4.6,13,6.4
						l-0.2,0.1c1.3-4.8,2.4-8.6,3.2-11.3c0.4-1.3,0.7-2.3,0.9-3c0.1-0.3,0.2-0.6,0.2-0.8C515.2,384.3,515.3,384.2,515.3,384.2z"/>
				</g>
			</g>
		</g>
		<g id="XMLID_296_">
			<g id="XMLID_297_">
				<path id="XMLID_298_" class="st6" d="M505.9,319.5c-3.7,0.4-7.6-0.8-10.4-3.3c3.4,1.7,7.9-0.6,9.1-4.2
					c1.2-3.6,0.2-10.3-2.7-12.7c-2.8-2.3-6.7-3.1-10.2-2.2c-3.5,0.9-7.2,6.2-8.3,9.6l0.1,0.1c-0.5-0.2-1.1-0.4-1.6-0.6
					c-3.9-1.3-8-1.9-12-1.5c-4,0.5-8,2.1-11,4.8l23.6,37.9c4.3-0.4,8.1-3.3,10.3-6.9c2.2-3.7,3.1-8,3.3-12.3c0.1-1.1,0.1-2.2,0-3.3
					c2.5,0.4,5.1,0.8,7.6,1.2c-1.4-1.8-3.1-3.4-5-4.5C501.2,322.8,504.4,321.8,505.9,319.5z"/>
			</g>
			<g id="XMLID_299_">
				<g id="XMLID_300_">
					<g id="XMLID_301_">
						<g id="XMLID_302_">
							<g id="XMLID_303_">
								<g id="XMLID_304_">
									<g id="XMLID_305_">
										<g id="XMLID_306_">
											<g id="XMLID_307_">
												<g id="XMLID_308_">
													<g id="XMLID_309_">
														<g id="XMLID_310_">
															<g id="XMLID_311_">
																<path id="XMLID_444_" class="st10" d="M476.1,378.4c6.4-0.1,11.5-5.3,11.6-11.7l0.5-47.2l0,0c0-1.9-1.4-3.6-3.4-3.8
																	l-19.9-5c-6.4-0.7-10.6,7.2-11,13.6c-0.4,7.1-0.7,15.8,0.1,21.1c1.7,10.7,9.9,12,9.9,12c0,0,0,4.1,0,9.2
																	C464,373.2,469.5,378.5,476.1,378.4L476.1,378.4z"/>
															</g>
														</g>
													</g>
												</g>
											</g>
											<g id="XMLID_312_">
												<g id="XMLID_313_">
													<g id="XMLID_314_">
														<g id="XMLID_315_">
															<g id="XMLID_316_">
																<g id="XMLID_317_">
																	<path id="XMLID_443_" class="st6" d="M458.1,331.1c0,0.7,0.6,1.3,1.3,1.4c0.8,0,1.4-0.5,1.4-1.2
																		c0-0.7-0.6-1.3-1.3-1.4C458.7,329.8,458.1,330.4,458.1,331.1z"/>
																</g>
															</g>
														</g>
													</g>
												</g>
												<g id="XMLID_318_">
													<g id="XMLID_319_">
														<g id="XMLID_320_">
															<g id="XMLID_321_">
																<g id="XMLID_322_">
																	<g id="XMLID_323_">
																		<path id="XMLID_442_" class="st6" d="M455.8,328.7c0.2,0.2,1.2-0.6,2.7-0.6c1.5,0,2.6,0.7,2.7,0.6
																			c0.1-0.1-0.1-0.4-0.6-0.7c-0.5-0.3-1.3-0.7-2.2-0.7c-0.9,0-1.7,0.3-2.1,0.7C455.9,328.3,455.7,328.6,455.8,328.7z
																			"/>
																	</g>
																</g>
															</g>
														</g>
													</g>
												</g>
											</g>
											<g id="XMLID_324_">
												<g id="XMLID_325_">
													<g id="XMLID_326_">
														<g id="XMLID_327_">
															<g id="XMLID_328_">
																<g id="XMLID_329_">
																	<path id="XMLID_441_" class="st6" d="M472.1,331.1c0,0.7,0.6,1.3,1.3,1.4c0.8,0,1.4-0.5,1.4-1.2
																		c0-0.7-0.6-1.3-1.3-1.4C472.7,329.8,472.1,330.4,472.1,331.1z"/>
																</g>
															</g>
														</g>
													</g>
												</g>
												<g id="XMLID_330_">
													<g id="XMLID_331_">
														<g id="XMLID_332_">
															<g id="XMLID_333_">
																<g id="XMLID_334_">
																	<g id="XMLID_335_">
																		<path id="XMLID_440_" class="st6" d="M470.3,329c0.2,0.2,1.2-0.6,2.7-0.6c1.5,0,2.6,0.7,2.7,0.6
																			c0.1-0.1-0.1-0.4-0.6-0.7c-0.5-0.3-1.3-0.7-2.2-0.7c-0.9,0-1.7,0.3-2.1,0.7C470.4,328.6,470.2,328.9,470.3,329z"
																			/>
																	</g>
																</g>
															</g>
														</g>
													</g>
												</g>
											</g>
											<g id="XMLID_336_">
												<g id="XMLID_337_">
													<g id="XMLID_338_">
														<g id="XMLID_339_">
															<g id="XMLID_340_">
																<g id="XMLID_341_">
																	<path id="XMLID_439_" class="st6" d="M465,339.9c0-0.1-0.9-0.2-2.4-0.4c-0.4,0-0.7-0.1-0.8-0.4
																		c-0.1-0.3,0.1-0.7,0.3-1.1c0.4-0.9,0.7-1.9,1.1-2.9c1.5-4.1,2.7-7.4,2.5-7.5c-0.2-0.1-1.6,3.2-3.1,7.3
																		c-0.4,1-0.7,2-1.1,2.9c-0.1,0.4-0.4,0.9-0.2,1.5c0.1,0.3,0.4,0.5,0.6,0.6c0.2,0.1,0.5,0.1,0.6,0.1
																		C464,340,464.9,340,465,339.9z"/>
																</g>
															</g>
														</g>
													</g>
												</g>
											</g>
											<g id="XMLID_342_">
												<g id="XMLID_343_">
													<g id="XMLID_344_">
														<g id="XMLID_345_">
															<g id="XMLID_346_">
																<path id="XMLID_438_" class="st11" d="M463.9,357.4c0,0,7.2,0.5,14.3-3.8c0,0-3.5,7.3-14.2,6.3L463.9,357.4z"/>
															</g>
														</g>
													</g>
												</g>
											</g>
											<g id="XMLID_347_">
												<g id="XMLID_348_">
													<g id="XMLID_349_">
														<g id="XMLID_350_">
															<g id="XMLID_351_">
																<path id="XMLID_437_" class="st11" d="M465.6,343.5c0.5-0.7,1.5-1.1,2.4-1c0.6,0.1,1.3,0.4,1.7,0.9
																	c0.4,0.5,0.5,1.3,0.1,1.8c-0.4,0.6-1.2,0.7-1.9,0.5c-0.7-0.2-1.3-0.7-1.9-1.1c-0.2-0.1-0.3-0.3-0.4-0.4
																	C465.4,343.9,465.4,343.7,465.6,343.5"/>
															</g>
														</g>
													</g>
												</g>
											</g>
											<g id="XMLID_352_">
												<g id="XMLID_353_">
													<g id="XMLID_354_">
														<g id="XMLID_355_">
															<g id="XMLID_356_">
																<g id="XMLID_357_">
																	<path id="XMLID_436_" class="st6" d="M469.3,340.9c-0.2,0-0.2,1.6-1.6,2.7c-1.4,1.1-3.1,1-3.1,1.2
																		c0,0.1,0.4,0.3,1.1,0.3c0.7,0,1.7-0.2,2.6-0.9c0.8-0.7,1.2-1.6,1.2-2.3C469.6,341.3,469.4,340.9,469.3,340.9z"/>
																</g>
															</g>
														</g>
													</g>
												</g>
											</g>
										</g>
									</g>
								</g>
								<g id="XMLID_358_">
									<g id="XMLID_359_">
										<g id="XMLID_360_">
											<g id="XMLID_361_">
												<g id="XMLID_362_">
													<path id="XMLID_435_" class="st6" d="M469.6,326.4c0.1,0.4,1.6,0.2,3.3,0.4c1.7,0.2,3.1,0.7,3.4,0.3
														c0.1-0.2-0.1-0.5-0.7-0.9c-0.6-0.4-1.4-0.8-2.5-0.9c-1-0.1-2,0.1-2.6,0.3C469.9,325.9,469.6,326.2,469.6,326.4z"/>
												</g>
											</g>
										</g>
									</g>
								</g>
								<g id="XMLID_363_">
									<g id="XMLID_364_">
										<g id="XMLID_365_">
											<g id="XMLID_366_">
												<g id="XMLID_367_">
													<path id="XMLID_417_" class="st6" d="M456,326c0.3,0.3,1.3,0,2.5,0c1.2-0.1,2.3,0.2,2.5-0.1c0.1-0.2-0.1-0.5-0.5-0.8
														c-0.4-0.3-1.2-0.6-2-0.5c-0.8,0-1.6,0.3-2,0.7C456,325.5,455.9,325.8,456,326z"/>
												</g>
											</g>
										</g>
									</g>
								</g>
							</g>
						</g>
						<g id="XMLID_368_">
							<g id="XMLID_369_">
								<path id="XMLID_370_" class="st10" d="M487.1,332.7c0.8-0.6,1.9-0.4,2.8,0.1c2,1.1,2.9,3.7,2.2,5.9
									c-0.7,2.1-3.1,3.6-5.3,3.3"/>
							</g>
						</g>
						<g id="XMLID_371_">
							<g id="XMLID_372_">
								<g id="XMLID_373_">
									<path id="XMLID_374_" class="st11" d="M487.8,338.9c0-0.1,0.4,0.1,0.9-0.1c0.5-0.2,1-1,0.9-1.8c0-0.9-0.6-1.5-1.1-1.7
										c-0.5-0.2-0.9-0.1-0.9-0.2c0-0.1,0.4-0.3,1.1-0.2c0.3,0.1,0.7,0.3,1,0.7c0.3,0.4,0.5,0.9,0.5,1.4c0.1,1.1-0.6,2.1-1.3,2.2
										C488.1,339.3,487.7,338.9,487.8,338.9z"/>
								</g>
							</g>
						</g>
					</g>
				</g>
			</g>
			<g id="XMLID_375_">
				<g id="XMLID_376_">
					<path id="XMLID_377_" class="st7" d="M490.7,341c0,0,0.2,0.1,0.5,0.3c0.4,0.3,0.8,0.6,1.3,1.1c1.2,1,2.7,2.3,4.6,3.9l0.2,0.1
						l-0.1,0.2c-1.7,2.1-3.6,4.6-5.8,7.3c-0.5,0.6-1,1.2-1.4,1.8l-0.4,0.5l0-0.6c-0.2-4.3-0.3-8.2-0.4-11c0-1.3-0.1-2.4-0.1-3.3
						c0-0.8,0-1.2,0-1.2c0,0,0.1,0.4,0.1,1.2c0.1,0.8,0.1,1.9,0.2,3.2c0.2,2.8,0.4,6.6,0.6,10.9l-0.4-0.1c0.5-0.6,0.9-1.2,1.4-1.8
						c2.1-2.7,4.1-5.3,5.8-7.3l0,0.3c-1.8-1.6-3.3-3-4.5-4c-0.5-0.5-0.9-0.8-1.2-1.2C490.9,341.2,490.7,341,490.7,341z"/>
				</g>
			</g>
			<g id="XMLID_378_">
				<path id="XMLID_379_" class="st6" d="M469.1,305.9c-2.6,0.1-5.2,0.2-7.8,0.9c-2.5,0.6-5,1.8-6.7,3.8c-1.7,2-2.6,4.8-1.9,7.3
					c0.7,2.5,3.3,4.5,5.9,4.1c2-0.3,3.9-1.7,5.8-1.1c1.8,0.5,2.8,2.7,4.6,3.1c1.8,0.3,3.4-1.3,5.3-1.5c2-0.2,3.8,1.5,4.7,3.3
					c0.9,1.8,1.2,3.9,2.2,5.7c0.6,1.2,1.5,2.3,2.7,2.6c1.2,0.3,2.4-0.1,3.3-0.9c0.9-0.8,1.5-1.9,1.9-3c1.9-4.7,1.5-10.3-1.1-14.7
					c-2.6-4.4-7.3-7.4-12.4-8"/>
			</g>
			<g id="XMLID_380_">
				<g id="XMLID_381_">
					<path id="XMLID_382_" class="st8" d="M495.1,317.3c-0.1,0-0.3-0.9-1-2.2c-0.6-1.3-1.8-3-3.4-4.5c-1.7-1.5-3.5-2.4-4.8-3
						c-1.4-0.5-2.3-0.7-2.3-0.8c0,0,0.2,0,0.6,0c0.4,0,1,0.2,1.7,0.4c1.4,0.4,3.3,1.4,5,2.9c1.7,1.5,2.8,3.3,3.4,4.7
						c0.3,0.7,0.5,1.3,0.6,1.7C495.1,317,495.2,317.3,495.1,317.3z"/>
				</g>
			</g>
			<g id="XMLID_383_">
				<g id="XMLID_384_">
					<path id="XMLID_385_" class="st7" d="M503.3,301.6c0,0.1-0.9-0.5-2.6-0.8c-1.6-0.3-4-0.2-6.3,0.9c-2.3,1.1-3.9,2.9-4.8,4.2
						c-1,1.3-1.5,2.3-1.5,2.2c0,0,0.1-0.3,0.3-0.7c0.2-0.4,0.5-1,1-1.7c0.9-1.4,2.5-3.3,4.9-4.4c2.4-1.2,4.9-1.3,6.5-0.8
						c0.8,0.2,1.5,0.5,1.9,0.7C503.1,301.5,503.3,301.6,503.3,301.6z"/>
				</g>
			</g>
			<g id="XMLID_386_">
				<g id="XMLID_387_">
					<path id="XMLID_388_" class="st7" d="M493,314.2c0.1,0,0.1,0.8,0,2.2c-0.1,1.4-0.5,3.2-1.3,5.1c-0.8,1.9-1.9,3.5-2.8,4.5
						c-0.9,1-1.6,1.5-1.6,1.5c-0.1-0.1,2.4-2.4,4-6.2C492.9,317.6,492.9,314.2,493,314.2z"/>
				</g>
			</g>
			<g id="XMLID_389_">
				<g id="XMLID_390_">
					<path id="XMLID_391_" class="st7" d="M493.4,314.4c0,0,0.1,0.2,0.3,0.6c0.1,0.4,0.3,1,0.4,1.8c0.3,1.5,0.3,3.7-0.3,5.9
						c-0.6,2.3-1.6,4.2-2.6,5.4c-0.5,0.6-0.9,1.1-1.2,1.4c-0.3,0.3-0.5,0.4-0.5,0.4c-0.1-0.1,0.6-0.7,1.4-2c0.8-1.2,1.8-3.1,2.4-5.3
						c0.6-2.2,0.6-4.3,0.4-5.8C493.5,315.3,493.3,314.4,493.4,314.4z"/>
				</g>
			</g>
		</g>
	</g>
</g>
<g id="Speech_Bubble">
	<g id="XMLID_496_">
		<g id="XMLID_517_">
			<path id="XMLID_518_" class="st0" d="M521.4,316.8c-2.7,0.9-3.9,4.7-2.1,6.9c1.8,2.2,5.8,1.9,7.2-0.5c1.4-2.4-0.3-6.1-3.1-6.5"/>
		</g>
		<g id="XMLID_515_">
			<path id="XMLID_516_" class="st0" d="M534,298.6c-3.1,1-4.4,5.4-2.4,7.9s6.6,2.2,8.3-0.6c1.6-2.8-0.3-7-3.6-7.5"/>
		</g>
		<g id="XMLID_509_">
			<g id="XMLID_513_">
				<path id="XMLID_514_" class="st2" d="M560.8,218.3c-8.4-0.7-16.9,1.2-22.6,7.3c-5.8,6.2-8.5,15-7.2,23.3
					c-8.9,3.7-13.8,15.1-10.3,24.1c3.5,9,14.7,14.2,23.8,11c4.1,10.4,13.9,18.3,25,20s22.8-2.7,29.9-11.3c8.8,2,18.6,1.8,25.9-3.3
					c7.4-5.1,10.7-16.5,5.1-23.5c10.1-2.5,15.2-15.1,12.2-25c-3-9.9-11.9-17.1-21.5-21.1c-6.3-2.7-14.2-4.1-19.6,0.2
					c-4.3-6.6-12-11-19.9-11.3C573.6,208.3,565.6,212,560.8,218.3"/>
			</g>
			<g id="XMLID_510_">
				<g id="XMLID_511_">
					<path id="XMLID_512_" class="st6" d="M560.8,218.3c0,0,0.2-0.2,0.5-0.6c0.3-0.4,0.9-1,1.6-1.8c1.5-1.5,4-3.6,7.8-5.2
						c1.9-0.8,4.1-1.5,6.6-1.9c2.5-0.3,5.2-0.4,8.1,0.2c2.9,0.6,5.9,1.7,8.7,3.5c2.8,1.8,5.5,4.3,7.5,7.4l-0.2,0
						c2.2-1.7,5-2.7,7.9-2.7c2.9-0.1,6,0.4,8.9,1.4c3,1,5.9,2.3,8.8,4c2.9,1.7,5.6,3.7,8.1,6.1c2.5,2.4,4.7,5.3,6.3,8.6
						c0.8,1.7,1.4,3.4,1.8,5.2c0.3,1.8,0.5,3.7,0.4,5.6c-0.2,3.8-1.4,7.6-3.6,10.9c-1.1,1.6-2.4,3.2-4.1,4.4
						c-1.6,1.2-3.5,2.1-5.5,2.6l0.1-0.4c1.2,1.5,2.1,3.4,2.5,5.3c0.4,1.9,0.5,4,0.1,6c-0.6,4-2.6,7.8-5.5,10.7
						c-3,2.9-6.9,4.7-11,5.6c-4.1,0.9-8.5,0.9-12.7,0.4c-1.6-0.2-3.1-0.5-4.6-0.8l0.2-0.1c-7.7,9.2-20.3,13.4-31.4,11.1
						c-5.5-1.1-10.6-3.7-14.7-7.2c-4.1-3.5-7.3-7.9-9.2-12.7l0.3,0.1c-5.3,1.8-11,0.9-15.6-1.6c-4.6-2.5-8-6.8-9.1-11.5
						c-1.1-4.8-0.2-9.7,1.9-13.6c2.1-4,5.4-7,9.2-8.6l-0.1,0.2c-0.6-3.9-0.3-7.6,0.6-11c0.9-3.4,2.3-6.4,4-9
						c0.8-1.3,1.8-2.4,2.8-3.5c1-1,2-2,3.1-2.7c2.1-1.6,4.4-2.5,6.4-3.2c4.1-1.3,7.5-1.4,9.8-1.5
						C559.6,218.1,560.8,218.3,560.8,218.3c0,0-0.3,0-0.9,0c-0.6,0-1.4-0.1-2.6-0.1c-2.2,0-5.6,0.2-9.7,1.5c-2,0.7-4.2,1.7-6.3,3.2
						c-1.1,0.7-2.1,1.7-3.1,2.7c-0.9,1.1-1.9,2.2-2.7,3.5c-1.7,2.5-3.1,5.5-3.9,8.9c-0.8,3.4-1.1,7.1-0.5,10.9l0,0.1l-0.1,0.1
						c-3.7,1.6-6.9,4.6-9,8.5c-2.1,3.9-2.9,8.7-1.8,13.3c1.1,4.6,4.4,8.8,8.9,11.3c4.4,2.5,10.1,3.4,15.2,1.6l0.2-0.1l0.1,0.2
						c1.9,4.7,5,9.1,9.1,12.5c4.1,3.4,9.1,6,14.5,7.1c10.9,2.2,23.3-1.9,30.9-11l0.1-0.1l0.1,0c1.5,0.3,3,0.6,4.5,0.8
						c4.2,0.5,8.5,0.5,12.5-0.4c4-0.9,7.9-2.7,10.8-5.5c2.9-2.8,4.8-6.6,5.4-10.4c0.6-3.9-0.2-7.9-2.5-10.9l-0.2-0.3l0.3-0.1
						c1.9-0.5,3.7-1.4,5.3-2.5c1.6-1.1,2.9-2.7,4-4.2c2.2-3.2,3.3-7,3.6-10.7c0.2-1.9,0-3.7-0.4-5.5c-0.4-1.8-1-3.5-1.7-5.2
						c-1.6-3.2-3.7-6.1-6.2-8.5c-2.5-2.4-5.2-4.4-8-6.1c-2.8-1.7-5.7-3-8.7-4c-2.9-1-5.9-1.5-8.8-1.4c-2.9,0.1-5.6,1-7.8,2.6
						l-0.1,0.1l-0.1-0.1c-2-3.1-4.6-5.5-7.4-7.3c-2.8-1.8-5.7-2.9-8.6-3.5c-2.8-0.6-5.6-0.6-8-0.3c-2.5,0.3-4.6,1-6.5,1.8
						c-3.8,1.6-6.2,3.6-7.8,5.1c-0.8,0.7-1.3,1.3-1.7,1.8C561,218.1,560.8,218.3,560.8,218.3z"/>
				</g>
			</g>
		</g>
		<g id="XMLID_506_">
			<g id="XMLID_507_">
				<path id="XMLID_508_" class="st7" d="M618.1,247.2c0,0.4-16.5,0.7-36.7,0.7c-20.3,0-36.7-0.3-36.7-0.7c0-0.4,16.4-0.7,36.7-0.7
					C601.7,246.5,618.1,246.8,618.1,247.2z"/>
			</g>
		</g>
		<g id="XMLID_503_">
			<g id="XMLID_504_">
				<path id="XMLID_505_" class="st7" d="M618.1,255.2c0,0.4-16.5,0.7-36.7,0.7c-20.3,0-36.7-0.3-36.7-0.7c0-0.4,16.4-0.7,36.7-0.7
					C601.7,254.4,618.1,254.8,618.1,255.2z"/>
			</g>
		</g>
		<g id="XMLID_500_">
			<g id="XMLID_501_">
				<path id="XMLID_502_" class="st7" d="M618.1,263.1c0,0.4-16.5,0.7-36.7,0.7c-20.3,0-36.7-0.3-36.7-0.7c0-0.4,16.4-0.7,36.7-0.7
					C601.7,262.4,618.1,262.7,618.1,263.1z"/>
			</g>
		</g>
		<g id="XMLID_497_">
			<g id="XMLID_498_">
				<path id="XMLID_499_" class="st7" d="M618.1,271.1c0,0.4-16.5,0.7-36.7,0.7c-20.3,0-36.7-0.3-36.7-0.7c0-0.4,16.4-0.7,36.7-0.7
					C601.7,270.4,618.1,270.7,618.1,271.1z"/>
			</g>
		</g>
	</g>
	<g id="XMLID_418_">
		<g id="XMLID_419_">
			<path id="XMLID_434_" d="M80.5,10.2c-1.3,0.3-2.5,0.6-3.6,0.9c-2.7,0.9-5.1,2.5-7.2,4.5C68,17.3,66,18.7,63.9,20
				c-2.1,1.2-4.3,1.6-6.6,1.4c-0.5,0-1,0-1.5,0.1c1.4,0.6,2.9,0.6,4.3,0.8c-2.1,0.7-4.3,0.8-6.5,1.1c1,0.4,2.1,0.4,3.2,0.5
				c-1.6,0.5-3.2,0.5-4.8,0.5c0.5,0.3,1.1,0.4,1.6,0.5c0,0.3-0.2,0.2-0.3,0.2c-2.4,0.5-4.8,0.7-7.3,0.6c-0.4,0-0.7,0.1-0.9,0.4
				c-0.4,0.7-0.9,1.4-1.3,2.2c0.3,0.1,0.6,0.1,0.9,0.1c0.9,0,1.7,0,2.6,0.1c0.5,0,0.9,0.3,0.8,0.9c0,0.7,0,1.5,0,2.2
				c0,0.9-0.2,1.1-1.1,1.3c-1.3,0.2-2.1,0.8-2.5,2.1c-0.2,0.5,0,0.9,0.5,1.2c3.1,1.8,6.1,3.8,9.2,5.5c1.4,0.8,1.9,1.7,1.9,3.3
				c-0.1,3.3,0,6.7,0,10c0,1.1,0,2.3-0.1,3.4c0,0.7-0.2,0.9-0.9,0.9c-13.5,0-27,0-40.5,0c-0.7,0-0.9-0.3-0.9-0.9c0-3.8,0-7.6,0-11.5
				c0-1.1,0.1-2.2,0.1-3.3c0-0.5,0.2-0.8,0.6-1.1c2.4-1.4,4.9-2.9,7.3-4.4c1.1-0.7,2.2-1.4,3.4-2c0.3-0.1,0.3-0.3,0.3-0.6
				c0-1.3-1-2.4-2.4-2.5c-1.1-0.1-1.3-0.3-1.3-1.4c0-0.6,0-1.2,0-1.8c0-1.1,0.2-1.3,1.2-1.3c6.3,0,12.6,0,18.9,0
				c0.4,0,0.6-0.1,0.8-0.5c4.9-8.9,12.6-14,22.3-16.5c0.4-0.1,0.8-0.3,1.2-0.5c-9.9,1.8-18.1,6.5-23.5,15.3c0-0.2,0.1-0.4,0.1-0.5
				c0-0.2,0.1-0.4,0.1-0.5c0.1-0.6,0.2-1.2,0-1.9c-0.6-2.1-0.5-4.1,1-6.1c-0.1,0.7-0.1,1.2-0.2,1.7c1-1.2,1.7-2.7,3-3.7
				c0,0.5-0.3,0.9-0.3,1.6c1.4-1.3,2.4-2.9,4.1-4c-0.6,0.9-1.2,1.7-1.8,2.6c0.5-0.1,0.7-0.4,0.9-0.6c2-1.9,4.2-3.6,6.8-4.5
				c1.8-0.7,3.7-1,5.7-1.3c2-0.3,4.1-0.7,6.1-0.7c3.5,0,7.1,0,10.6,1c0.4,0.1,0.7,0.3,1.1,0.4C80,9.8,80.2,9.9,80.5,10.2z"/>
			<path id="XMLID_433_" class="st12" d="M22.5,68.9c-1,0-2-0.1-2.9,0.2c-0.4,0.1-0.8,0.2-0.9,0.7c-0.1,0.5,0.3,0.7,0.6,0.8
				c0.5,0.2,0.9,0.6,1.4,0.7c1.2,0.3,2.3-0.2,3.4-0.7c0.2-0.1,0.5-0.4,0.7,0c0.2,0.3,0,0.5-0.2,0.7c-1.2,1.1-3.5,1.2-4.9,0.3
				c-1.2-0.8-1.6-1.9-2-3.2c-0.1-0.4,0.1-0.7,0.2-1c0.4-1,1-1.8,2.3-2c0.9-0.1,1.7-0.4,2.6-0.2c1.4,0.3,2.4,1.2,2.5,2.6
				c0.1,0.5-0.4,1-0.9,1C23.7,68.9,23.1,68.9,22.5,68.9z"/>
			<path id="XMLID_432_" class="st12" d="M47.8,68.9c-1,0.1-2-0.1-3.1,0.1c-0.7,0.1-1.1,0.4-1.2,0.9c0,0.3,0.1,0.4,0.3,0.6
				c1.6,1.3,3.3,1.2,5,0.3c0.1,0,0.2-0.1,0.3-0.1c0.2-0.1,0.4-0.1,0.5,0.1c0.1,0.2,0.1,0.4-0.1,0.5c-0.7,0.6-1.5,1-2.4,1.1
				c-1.3,0.2-2.4-0.3-3.4-1.1c-1-0.8-1.4-3-0.8-4.2c0.4-0.8,0.9-1.3,1.9-1.5c0.9-0.1,1.7-0.4,2.6-0.3c1.5,0.3,2.5,1.2,2.6,2.7
				c0.1,0.4-0.3,0.9-0.8,0.9C48.8,68.9,48.4,68.9,47.8,68.9z"/>
			<path id="XMLID_431_" class="st12" d="M40.7,67.2c-0.5-0.1-0.7-0.4-0.9-0.7c-1.1-1.3-2.2-1-3.1,0.3c-0.4,0.4-0.6,1-0.7,1.5
				c0,0.1-0.1,0.2-0.1,0.3c0.1,0.8,1.3,2.1,2.1,2.2c1,0.2,2-0.4,2.4-1.4c0.2-0.4,0-0.8,0.2-1.2c0.1-0.1,0.1-0.4,0.3-0.4
				c0.2,0,0.3,0.3,0.2,0.4c-0.2,1.1-0.4,2.3-1.4,3.1c-0.4,0.3-0.8,0.4-1.2,0.3c-0.5-0.1-1.1-0.2-1.6-0.4c-0.5-0.1-0.6,0.1-0.7,0.5
				c-0.1,0.9,0.3,1.4,1.2,1.6c0.3,0.1,0.7-0.1,0.7,0.3c0,0.4-0.4,0.5-0.8,0.6c-1,0.1-2,0.2-3.1,0.2c-0.2,0-0.3-0.1-0.4-0.2
				c-0.1-0.2,0-0.3,0.1-0.4c0.2-0.2,0.4-0.4,0.7-0.5c0.4-0.2,0.6-0.5,0.6-1c-0.1-1,0.1-2.1,0-3.1c-0.1-0.7,0.1-1.6,0-2.3
				c0-0.5-0.2-0.8-0.8-0.8c-0.1,0-0.2,0-0.2-0.1c-0.2-0.1-0.4,0-0.4-0.3c0-0.2,0.3-0.2,0.4-0.2c0.4,0,0.8,0,1.1,0.2
				c0.7,0.3,1.3,0.3,1.9,0c1.1-0.5,1.9-0.2,2.8,0.4C40.5,66.2,40.6,66.6,40.7,67.2z"/>
			<path id="XMLID_430_" class="st12" d="M32.6,67.1c-0.4-0.3-0.7-0.6-1-0.9c-0.6-0.7-1.5-0.7-2.2-0.2c-0.7,0.6-1.1,1.3-1.4,2.1
				c-0.2,0.5,0.2,0.9,0.4,1.3c0.7,1.2,1.9,1.7,3,1.1c0.6-0.3,1.2-0.8,1.2-1.7c0-0.2,0.1-0.4,0.1-0.7c0.1-0.1,0.1-0.4,0.3-0.4
				c0.2,0,0.2,0.3,0.2,0.5c-0.2,1.1-0.4,2.3-1.4,3c-0.3,0.3-0.7,0.4-1.2,0.3c-0.5-0.1-1-0.2-1.6-0.4c-0.6-0.1-0.8,0-0.9,0.6
				c0,0.8,0.4,1.3,1.3,1.5c0.2,0.1,0.7-0.1,0.7,0.2c0,0.3-0.4,0.5-0.7,0.5c-1,0.2-2.1,0.2-3.1,0.3c-0.2,0-0.3-0.1-0.4-0.2
				c-0.1-0.2,0-0.3,0.1-0.4c0.2-0.3,0.6-0.4,0.9-0.7c0.2-0.1,0.4-0.3,0.4-0.6c0-1.9-0.1-3.8-0.1-5.7c0-0.5-0.2-0.7-0.7-0.7
				c-0.1,0-0.2,0-0.4-0.1c-0.1,0-0.3-0.1-0.3-0.3c0-0.2,0.1-0.2,0.3-0.2c0.4,0,0.9,0,1.3,0.2c0.7,0.3,1.3,0.2,1.9-0.1
				c1-0.5,1.9-0.1,2.7,0.4C32.5,66.2,32.7,66.6,32.6,67.1z"/>
			<path id="XMLID_429_" class="st12" d="M15.5,67.2c-0.3-0.3-0.6-0.6-0.8-0.9c-0.8-0.8-1.7-0.9-2.5,0c-0.2,0.2-0.4,0.4-0.6,0.6
				c-0.9,1.3-0.8,2.2,0.3,3.3c0.6,0.7,1.4,0.8,2.2,0.5c0.9-0.3,1.4-0.9,1.5-1.8c0-0.2,0-0.4,0.1-0.6c0.1-0.1,0.1-0.4,0.3-0.4
				c0.2,0,0.2,0.3,0.3,0.4c0.1,0.8-0.8,2.7-1.6,3.1c-0.5,0.3-1.1,0.2-1.6,0.1c-0.3-0.1-0.7-0.2-1-0.3c-0.6-0.1-0.8,0.1-0.8,0.7
				c0,0.8,0.4,1.2,1.2,1.4c0.3,0.1,0.8-0.1,0.7,0.3c0,0.4-0.5,0.5-0.8,0.5c-1,0.1-2,0.2-3,0.2c-0.2,0-0.3-0.1-0.4-0.2
				c-0.1-0.2,0-0.3,0.1-0.4c0.2-0.3,0.6-0.4,0.9-0.6c0.3-0.2,0.4-0.4,0.4-0.8c0.1-1.7-0.1-3.3,0-5c0.1-1.1,0-1.1-1-1.3
				c-0.2-0.1-0.4-0.1-0.4-0.3c0-0.2,0.2-0.2,0.4-0.2c0.4,0,0.9,0,1.3,0.2c0.6,0.3,1.2,0.2,1.8-0.1c1-0.5,1.9-0.2,2.8,0.4
				c0.4,0.3,0.5,0.7,0.5,1.2C15.6,67.1,15.5,67.2,15.5,67.2z"/>
			<path id="XMLID_428_" d="M53.4,65.1c1.1,0,1.2,0.1,1.5,1.1c0,0.1,0.1,0.2,0.2,0.2c0.2,0,0.3-0.1,0.4-0.3c0.3-0.6,0.7-0.9,1.3-1.1
				c0.8-0.2,1.6-0.1,2.3,0.2c0.7,0.3,0.9,1.4,0.3,1.8c-0.6,0.4-1.1,0.2-1.3-0.5c-0.2-0.9-0.4-1-1.3-0.7c-1.8,0.7-2.7,2.2-2,4.1
				c0.1,0.3,0.3,0.4,0.5,0.4c0.5,0.1,1,0.3,1.5,0.4c0.3,0,0.5,0.2,0.6,0.5c0,0.3-0.3,0.4-0.5,0.4c-0.9,0.2-1.7,0.1-2.6,0
				c-0.3,0-0.5-0.1-0.8,0c-0.6,0.2-1.2,0-1.7-0.2c-0.2-0.1-0.4-0.1-0.4-0.3c0-0.2,0.2-0.3,0.4-0.4c0.4-0.1,0.8-0.3,1.2-0.4
				c0.5-0.2,0.8-0.5,0.9-1.1c0.1-0.7,0.1-1.4,0.1-2.1c0-1-0.2-1.2-1.1-1.5c-0.3-0.1-0.8,0-0.8-0.3c0-0.4,0.6-0.3,0.9-0.4
				C53.1,65.1,53.3,65.1,53.4,65.1z"/>
			<path id="XMLID_427_" class="st12" d="M62.9,69.3c0.6,0,1.4,0.7,1.4,1.3c0,0.5-0.8,1.2-1.5,1.3c-0.8,0-1.5-0.6-1.5-1.3
				C61.4,69.9,62.1,69.4,62.9,69.3z"/>
			<path id="XMLID_426_" class="st13" d="M36,42.2c0.7-0.7,1.3-1.2,1.9-1.7c0.3-0.2,0.4-0.5,0.5-0.9c0.3-0.8,0.6-1.6,0.9-2.4
				c0.1-0.3,0.2-0.4,0.5-0.4c1.1,0,2.2,0,3.3,0c0.3,0,0.5,0.1,0.7,0.2c3.4,2,6.8,4.1,10.2,6.1c0.3,0.2,0.4,0.4,0.4,0.8
				c0,4.3,0,8.6,0,12.9c0,0.4-0.1,0.6-0.6,0.6c-11.5,0-22.9,0-34.4,0c-1.1,0-2.3-0.1-3.4-0.1c-0.4,0-0.5-0.1-0.5-0.5
				c0-4.3,0-8.7,0-13c0-0.3,0.1-0.4,0.3-0.6c3.5-2.1,7-4.2,10.4-6.3c0.2-0.1,0.3-0.1,0.5-0.1c3.4,0,6.8,0,10.2,0
				c0.8,0,0.8,0,0.5,0.7C36.9,39.1,36.4,40.5,36,42.2z"/>
			<path id="XMLID_425_" class="st14" d="M26.4,32.8c4.5,0,9,0,13.5,0c-0.4,0.8-0.7,1.5-1.1,2.2c-0.1,0.2-0.3,0.2-0.5,0.2
				c-3.5,0-7.1,0-10.6,0c-0.3,0-0.4-0.1-0.5-0.4C27.1,34.2,26.8,33.5,26.4,32.8z"/>
			<path id="XMLID_424_" class="st15" d="M35,29.9c3.6,0,7.2,0,10.8,0c0.4,0,0.6,0.1,0.6,0.6c0,0.5-0.2,0.6-0.7,0.6c-5,0-10,0-15,0
				c-2.3,0-4.5-0.1-6.8-0.1c-0.5,0-0.5-0.3-0.5-0.6c0-0.4,0.1-0.5,0.5-0.5C27.7,30,31.3,29.9,35,29.9z"/>
			<path id="XMLID_423_" class="st14" d="M43.6,32.9c-0.4,0.6-0.7,1.3-0.8,2c0,0.2-0.1,0.4-0.4,0.4c-0.7,0-1.3,0-2.1,0
				c0.4-0.8,0.8-1.6,1.1-2.3c0.1-0.1,0.1-0.2,0.2-0.2C42.3,32.8,42.9,32.8,43.6,32.9z"/>
			<path id="XMLID_422_" class="st14" d="M21.2,68c-0.5,0-0.9,0-1.4,0c-0.3,0-0.7-0.2-0.8-0.5s0.2-0.5,0.4-0.7c1-1.1,3.2-1.1,4.2,0
				c0.2,0.2,0.4,0.4,0.3,0.7c-0.1,0.3-0.4,0.3-0.7,0.4C22.5,68,21.9,68,21.2,68z"/>
			<path id="XMLID_421_" class="st14" d="M45.8,68.1c-0.3,0-0.7,0-1.2-0.1c-0.3,0-0.6-0.2-0.7-0.5c-0.1-0.3,0.1-0.5,0.3-0.7
				c1.1-1.1,3.2-1.2,4.3-0.1c0.2,0.2,0.4,0.4,0.3,0.7c-0.1,0.3-0.4,0.4-0.6,0.4C47.4,68,46.7,68,45.8,68.1z"/>
			<path id="XMLID_420_" d="M35,56c-5.7,0-11.5,0-17.2,0c-0.5,0-0.6-0.1-0.6-0.6c0-2.9,0-5.7,0-8.6c0-0.3,0-0.5,0.4-0.7
				c3.6-1.7,7.4-2.4,11.4-2.1c2.2,0.1,4.1,1.1,6,2.1c1.7,0.9,3.4,1.8,5.3,2.3c2,0.5,4,0.3,6,0.1c2-0.2,4-0.7,5.9-1.4
				c0.5-0.2,0.7-0.1,0.7,0.4c0,2.7,0,5.4-0.1,8.1c0,0.2,0.1,0.4-0.3,0.4C46.6,56.1,40.8,56.1,35,56C35,56.1,35,56.1,35,56z"/>
		</g>
	</g>
</g>
</svg>
